SplineFontDB: 3.0
FontName: PalatinoLinotype-Regular
FullName: PalatinoLinotype Regular
FamilyName: PalatinoLinotype
Weight: Regular
Copyright: Copyright 1981-1983, 1989,1993, 1998 Heidelberger Druckmaschinen AG. All rights reserved. The digitally encoded machine readable outline data for producing the Typefaces licensed are the property of Heidelberger Druckmaschinen AG and/or its subsidiaries, represented by Linotype Library GmbH, Dupont Strasse 1, 61352 Bad Homburg Germany. Portions (c) 1996-1998 Microsoft Corporation. All Rights Reserved. 
Version: 1.15
ItalicAngle: 0
UnderlinePosition: -148
UnderlineWidth: 120
Ascent: 1638
Descent: 410
sfntRevision: 0x00010000
LayerCount: 2
Layer: 0 1 "Back"  1
Layer: 1 1 "Fore"  0
XUID: [1021 588 1133928653 14948842]
BaseHoriz: 3 'hang' 'ideo' 'romn'
BaseScript: 'cyrl' 2  1405 -288 0
BaseScript: 'grek' 2  1405 -288 0
BaseScript: 'latn' 2  1405 -288 0
FSType: 8
OS2Version: 2
OS2_WeightWidthSlopeOnly: 0
OS2_UseTypoMetrics: 1
CreationTime: 822910280
ModificationTime: 1359126657
PfmFamily: 17
TTFWeight: 400
TTFWidth: 5
LineGap: 682
VLineGap: 0
Panose: 2 4 5 2 5 5 5 3 3 4
OS2TypoAscent: -139
OS2TypoAOffset: 1
OS2TypoDescent: -172
OS2TypoDOffset: 1
OS2TypoLinegap: 682
OS2WinAscent: 0
OS2WinAOffset: 1
OS2WinDescent: 16
OS2WinDOffset: 1
HheadAscent: -651
HheadAOffset: 1
HheadDescent: 15
HheadDOffset: 1
OS2SubXSize: 1285
OS2SubYSize: 1230
OS2SubXOff: 0
OS2SubYOff: 0
OS2SupXSize: 1285
OS2SupYSize: 1230
OS2SupXOff: 0
OS2SupYOff: 560
OS2StrikeYSize: 120
OS2StrikeYPos: 530
OS2FamilyClass: 260
OS2Vendor: 'LINO'
OS2CodePages: 2000019f.00000000
OS2UnicodeRanges: e0000387.40000013.00000000.00000000
Lookup: 4 0 0 "'frac' Diagonal Fractions lookup 0"  {"'frac' Diagonal Fractions lookup 0 subtable"  } ['frac' ('cyrl' <'dflt' > 'grek' <'dflt' > 'latn' <'DEU ' 'ROM ' 'TRK ' 'VIT ' 'dflt' > ) ]

StartChar: missing
Encoding: 65536 -1 0
Width: 1097
Flags: W
LayerCount: 2
Fore
SplineSet
483 475 m 1,0,-1
 457 518 l 1,1,2
 520 540 520 540 520 585 c 0,3,4
 520 662 520 662 445 662 c 0,5,6
 390 662 390 662 358.5 620 c 128,-1,7
 327 578 327 578 327 512 c 0,8,9
 327 445 327 445 376 393.5 c 128,-1,10
 425 342 425 342 500 342 c 0,11,12
 594 342 594 342 654.5 406 c 128,-1,13
 715 470 715 470 715 563 c 0,14,15
 715 680 715 680 637 759 c 128,-1,16
 559 838 559 838 448 838 c 0,17,18
 326 838 326 838 239.5 748 c 128,-1,19
 153 658 153 658 153 532 c 0,20,21
 153 365 153 365 264 255 c 128,-1,22
 375 145 375 145 539 145 c 0,23,24
 712 145 712 145 824.5 272.5 c 128,-1,25
 937 400 937 400 937 586 c 0,26,27
 937 752 937 752 845.5 860.5 c 128,-1,28
 754 969 754 969 591 1006 c 1,29,-1
 630 1079 l 1,30,31
 813 1039 813 1039 924 907.5 c 128,-1,32
 1035 776 1035 776 1035 593 c 0,33,34
 1035 376 1035 376 891 221.5 c 128,-1,35
 747 67 747 67 537 67 c 0,36,37
 328 67 328 67 195.5 197 c 128,-1,38
 63 327 63 327 63 529 c 0,39,40
 63 688 63 688 176.5 804 c 128,-1,41
 290 920 290 920 447 920 c 0,42,43
 593 920 593 920 698.5 824.5 c 128,-1,44
 804 729 804 729 804 577 c 0,45,46
 804 446 804 446 714.5 357 c 128,-1,47
 625 268 625 268 499 268 c 0,48,49
 385 268 385 268 317.5 338 c 128,-1,50
 250 408 250 408 250 519 c 0,51,52
 250 604 250 604 304 666 c 128,-1,53
 358 728 358 728 446 728 c 0,54,55
 511 728 511 728 549.5 689 c 128,-1,56
 588 650 588 650 588 592 c 0,57,58
 588 496 588 496 483 475 c 1,0,-1
EndSplineSet
EndChar

StartChar: A
Encoding: 65 65 3
Width: 1593
GlyphClass: 2
Flags: W
AnchorPoint: "Anchor-4" 780 -60 basechar 0 53
AnchorPoint: "Anchor-3" 803 1487 basechar 0 52
LayerCount: 2
Fore
SplineSet
44 -8 m 1,0,-1
 35 0 l 1,1,-1
 35 52 l 1,2,-1
 44 60 l 1,3,4
 117 61 117 61 138 67.5 c 128,-1,5
 159 74 159 74 175.5 93.5 c 128,-1,6
 192 113 192 113 242 221 c 2,7,-1
 347 449 l 1,8,-1
 619 1065 l 1,9,10
 696 1246 696 1246 772 1427 c 1,11,-1
 837 1427 l 1,12,-1
 1264 423 l 1,13,-1
 1321 289 l 2,14,15
 1346 232 1346 232 1378.5 165 c 128,-1,16
 1411 98 1411 98 1423.5 86 c 128,-1,17
 1436 74 1436 74 1454.5 67.5 c 128,-1,18
 1473 61 1473 61 1537 60 c 1,19,-1
 1545 52 l 1,20,-1
 1545 0 l 1,21,-1
 1537 -8 l 1,22,23
 1431 1 1431 1 1346 1 c 1,24,25
 1180 -4 1180 -4 1014 -8 c 1,26,-1
 1006 0 l 1,27,-1
 1006 52 l 1,28,-1
 1014 60 l 1,29,30
 1126 62 1126 62 1154 69.5 c 128,-1,31
 1182 77 1182 77 1182 104 c 0,32,33
 1182 126 1182 126 1168 162 c 2,34,-1
 1045 467 l 1,35,-1
 466 467 l 1,36,-1
 357 211 l 2,37,38
 328 142 328 142 328 110 c 0,39,40
 328 85 328 85 355 73 c 128,-1,41
 382 61 382 61 491 60 c 1,42,-1
 500 52 l 1,43,-1
 500 0 l 1,44,-1
 492 -8 l 1,45,46
 363 0 363 0 266 0 c 0,47,48
 156 0 156 0 44 -8 c 1,0,-1
500 553 m 1,49,-1
 1006 553 l 1,50,-1
 755 1156 l 1,51,-1
 500 553 l 1,49,-1
803 1487 m 0,52,-1
780 -60 m 0,53,-1
EndSplineSet
Position2: "JSTF extension max at priority 3 #11 for dflt in latn subtable" dx=10 dy=0 dh=0 dv=0
Position2: "JSTF shrinkage max at priority 3 #10 for dflt in latn subtable" dx=-10 dy=0 dh=0 dv=0
Position2: "JSTF extension max at priority 3 #7 for dflt in grek subtable" dx=10 dy=0 dh=0 dv=0
Position2: "JSTF shrinkage max at priority 3 #6 for dflt in grek subtable" dx=-10 dy=0 dh=0 dv=0
Position2: "JSTF extension max at priority 3 #3 for dflt in cyrl subtable" dx=10 dy=0 dh=0 dv=0
Position2: "JSTF shrinkage max at priority 3 #2 for dflt in cyrl subtable" dx=-10 dy=0 dh=0 dv=0
EndChar

StartChar: B
Encoding: 66 66 4
Width: 1251
GlyphClass: 2
Flags: W
LayerCount: 2
Fore
SplineSet
36 1349 m 1,0,-1
 28 1356 l 1,1,-1
 28 1406 l 1,2,-1
 36 1413 l 1,3,4
 207 1405 207 1405 300 1405 c 0,5,6
 335 1405 335 1405 577 1413 c 0,7,8
 655 1415 655 1415 690 1415 c 0,9,10
 825 1415 825 1415 904 1388 c 128,-1,11
 983 1361 983 1361 1031 1292.5 c 128,-1,12
 1079 1224 1079 1224 1079 1137 c 0,13,14
 1079 1026 1079 1026 999 931 c 128,-1,15
 919 836 919 836 739 795 c 1,16,17
 847 785 847 785 917 766 c 128,-1,18
 987 747 987 747 1038 707.5 c 128,-1,19
 1089 668 1089 668 1118.5 605 c 128,-1,20
 1148 542 1148 542 1148 459 c 0,21,22
 1148 394 1148 394 1128 327 c 128,-1,23
 1108 260 1108 260 1054.5 194 c 128,-1,24
 1001 128 1001 128 925 81 c 128,-1,25
 849 34 849 34 769.5 13 c 128,-1,26
 690 -8 690 -8 572 -8 c 0,27,28
 548 -8 548 -8 428 -3 c 1,29,30
 295 0 295 0 284 0 c 0,31,32
 216 0 216 0 117 -8 c 1,33,-1
 109 0 l 1,34,-1
 109 33 l 1,35,-1
 117 43 l 1,36,37
 175 69 175 69 184 79 c 128,-1,38
 193 89 193 89 198.5 256 c 128,-1,39
 204 423 204 423 204 511 c 2,40,-1
 204 878 l 1,41,-1
 203 1105 l 2,42,43
 203 1179 203 1179 201 1225.5 c 128,-1,44
 199 1272 199 1272 195.5 1292 c 128,-1,45
 192 1312 192 1312 184 1320 c 128,-1,46
 176 1328 176 1328 161.5 1333.5 c 128,-1,47
 147 1339 147 1339 112 1343 c 1,48,-1
 36 1349 l 1,0,-1
395 824 m 1,49,50
 445 820 445 820 508 820 c 0,51,52
 715 820 715 820 796 894 c 128,-1,53
 877 968 877 968 877 1097 c 0,54,55
 877 1172 877 1172 846 1224.5 c 128,-1,56
 815 1277 815 1277 748.5 1305 c 128,-1,57
 682 1333 682 1333 568 1333 c 0,58,59
 475 1333 475 1333 404 1318 c 1,60,61
 395 1228 395 1228 395 1004 c 2,62,-1
 395 824 l 1,49,50
397 95 m 1,63,64
 474 77 474 77 555 77 c 0,65,66
 698 77 698 77 779 123 c 128,-1,67
 860 169 860 169 898.5 250.5 c 128,-1,68
 937 332 937 332 937 428 c 0,69,70
 937 572 937 572 855.5 658.5 c 128,-1,71
 774 745 774 745 503 745 c 0,72,73
 458 745 458 745 395 741 c 1,74,-1
 395 400 l 1,75,-1
 397 95 l 1,63,64
EndSplineSet
Position2: "JSTF extension max at priority 3 #11 for dflt in latn subtable" dx=10 dy=0 dh=0 dv=0
Position2: "JSTF shrinkage max at priority 3 #10 for dflt in latn subtable" dx=-10 dy=0 dh=0 dv=0
Position2: "JSTF extension max at priority 3 #7 for dflt in grek subtable" dx=10 dy=0 dh=0 dv=0
Position2: "JSTF shrinkage max at priority 3 #6 for dflt in grek subtable" dx=-10 dy=0 dh=0 dv=0
Position2: "JSTF extension max at priority 3 #3 for dflt in cyrl subtable" dx=10 dy=0 dh=0 dv=0
Position2: "JSTF shrinkage max at priority 3 #2 for dflt in cyrl subtable" dx=-10 dy=0 dh=0 dv=0
EndChar

StartChar: C
Encoding: 67 67 5
Width: 1452
GlyphClass: 2
Flags: W
LayerCount: 2
Fore
SplineSet
1395 169 m 1,0,-1
 1357 76 l 1,1,2
 1135 -37 1135 -37 883 -37 c 0,3,4
 522 -37 522 -37 296.5 168 c 128,-1,5
 71 373 71 373 71 704 c 0,6,7
 71 932 71 932 183.5 1102.5 c 128,-1,8
 296 1273 296 1273 480.5 1357.5 c 128,-1,9
 665 1442 665 1442 895 1442 c 0,10,11
 1028 1442 1028 1442 1158 1414 c 128,-1,12
 1288 1386 1288 1386 1375 1347 c 1,13,-1
 1382 1337 l 1,14,15
 1359 1281 1359 1281 1339 1060 c 1,16,-1
 1332 1052 l 1,17,-1
 1285 1052 l 1,18,-1
 1277 1060 l 1,19,-1
 1267 1230 l 1,20,21
 1194 1288 1194 1288 1090.5 1320.5 c 128,-1,22
 987 1353 987 1353 875 1353 c 0,23,24
 706 1353 706 1353 572 1280.5 c 128,-1,25
 438 1208 438 1208 364 1070.5 c 128,-1,26
 290 933 290 933 290 734 c 0,27,28
 290 534 290 534 377 383 c 128,-1,29
 464 232 464 232 614.5 151 c 128,-1,30
 765 70 765 70 966 70 c 0,31,32
 1055 70 1055 70 1137 87 c 128,-1,33
 1219 104 1219 104 1273.5 129 c 128,-1,34
 1328 154 1328 154 1378 190 c 1,35,-1
 1395 169 l 1,0,-1
EndSplineSet
Position2: "JSTF extension max at priority 3 #11 for dflt in latn subtable" dx=10 dy=0 dh=0 dv=0
Position2: "JSTF shrinkage max at priority 3 #10 for dflt in latn subtable" dx=-10 dy=0 dh=0 dv=0
Position2: "JSTF extension max at priority 3 #7 for dflt in grek subtable" dx=10 dy=0 dh=0 dv=0
Position2: "JSTF shrinkage max at priority 3 #6 for dflt in grek subtable" dx=-10 dy=0 dh=0 dv=0
Position2: "JSTF extension max at priority 3 #3 for dflt in cyrl subtable" dx=10 dy=0 dh=0 dv=0
Position2: "JSTF shrinkage max at priority 3 #2 for dflt in cyrl subtable" dx=-10 dy=0 dh=0 dv=0
EndChar

StartChar: D
Encoding: 68 68 6
Width: 1585
GlyphClass: 2
Flags: W
LayerCount: 2
Fore
SplineSet
30 1406 m 1,0,-1
 38 1413 l 1,1,2
 211 1405 211 1405 274 1405 c 1,3,-1
 742 1415 l 1,4,5
 942 1415 942 1415 1070 1377.5 c 128,-1,6
 1198 1340 1198 1340 1297.5 1247.5 c 128,-1,7
 1397 1155 1397 1155 1448.5 1032.5 c 128,-1,8
 1500 910 1500 910 1500 771 c 0,9,10
 1500 636 1500 636 1453 504 c 128,-1,11
 1406 372 1406 372 1319.5 267.5 c 128,-1,12
 1233 163 1233 163 1122.5 99 c 128,-1,13
 1012 35 1012 35 901 13.5 c 128,-1,14
 790 -8 790 -8 674 -8 c 0,15,16
 596 -8 596 -8 380 -2 c 0,17,18
 309 0 309 0 286 0 c 0,19,20
 217 0 217 0 119 -8 c 1,21,-1
 111 0 l 1,22,-1
 111 33 l 1,23,-1
 119 43 l 1,24,25
 178 73 178 73 186.5 80.5 c 128,-1,26
 195 88 195 88 200.5 255.5 c 128,-1,27
 206 423 206 423 206 511 c 2,28,-1
 206 878 l 1,29,-1
 205 1105 l 2,30,31
 205 1179 205 1179 203 1225.5 c 128,-1,32
 201 1272 201 1272 196 1292 c 128,-1,33
 191 1312 191 1312 184.5 1320 c 128,-1,34
 178 1328 178 1328 163.5 1333.5 c 128,-1,35
 149 1339 149 1339 114 1343 c 1,36,-1
 38 1349 l 1,37,-1
 30 1356 l 1,38,-1
 30 1406 l 1,0,-1
400 101 m 1,39,40
 502 81 502 81 635 81 c 0,41,42
 868 81 868 81 1007.5 159 c 128,-1,43
 1147 237 1147 237 1216 390 c 128,-1,44
 1285 543 1285 543 1285 735 c 0,45,46
 1285 1018 1285 1018 1134 1174 c 128,-1,47
 983 1330 983 1330 658 1330 c 0,48,49
 524 1330 524 1330 400 1310 c 1,50,51
 392 1146 392 1146 392 940 c 2,52,-1
 392 626 l 1,53,-1
 394 332 l 2,54,55
 394 246 394 246 400 101 c 1,39,40
EndSplineSet
Position2: "JSTF extension max at priority 3 #11 for dflt in latn subtable" dx=10 dy=0 dh=0 dv=0
Position2: "JSTF shrinkage max at priority 3 #10 for dflt in latn subtable" dx=-10 dy=0 dh=0 dv=0
Position2: "JSTF extension max at priority 3 #7 for dflt in grek subtable" dx=10 dy=0 dh=0 dv=0
Position2: "JSTF shrinkage max at priority 3 #6 for dflt in grek subtable" dx=-10 dy=0 dh=0 dv=0
Position2: "JSTF extension max at priority 3 #3 for dflt in cyrl subtable" dx=10 dy=0 dh=0 dv=0
Position2: "JSTF shrinkage max at priority 3 #2 for dflt in cyrl subtable" dx=-10 dy=0 dh=0 dv=0
EndChar

StartChar: E
Encoding: 69 69 7
Width: 1251
GlyphClass: 2
Flags: W
AnchorPoint: "Anchor-4" 640 -60 basechar 0 90
AnchorPoint: "Anchor-3" 644 1487 basechar 0 89
LayerCount: 2
Fore
SplineSet
73 1406 m 1,0,-1
 81 1413 l 1,1,2
 424 1407 424 1407 520 1407 c 0,3,4
 848 1407 848 1407 1104 1413 c 1,5,-1
 1109 1406 l 1,6,7
 1084 1310 1084 1310 1072 1105 c 1,8,-1
 1066 1097 l 1,9,-1
 1017 1097 l 1,10,-1
 1008 1105 l 1,11,12
 1009 1114 1009 1114 1009 1121 c 0,13,14
 1009 1206 1009 1206 996 1283 c 1,15,16
 933 1311 933 1311 821.5 1319.5 c 128,-1,17
 710 1328 710 1328 654 1328 c 0,18,19
 575 1328 575 1328 452 1317 c 1,20,-1
 448 1157 l 1,21,-1
 445 974 l 1,22,-1
 442 771 l 1,23,24
 550 765 550 765 641 765 c 0,25,26
 733 765 733 765 795 771 c 128,-1,27
 857 777 857 777 867.5 783.5 c 128,-1,28
 878 790 878 790 883.5 808.5 c 128,-1,29
 889 827 889 827 893 874 c 2,30,-1
 897 936 l 1,31,-1
 905 944 l 1,32,-1
 951 944 l 1,33,-1
 959 936 l 1,34,35
 957 827 957 827 954 717 c 1,36,-1
 959 492 l 1,37,-1
 951 484 l 1,38,-1
 905 484 l 1,39,-1
 897 492 l 1,40,-1
 890 552 l 2,41,42
 881 622 881 622 877 635.5 c 128,-1,43
 873 649 873 649 858.5 659 c 128,-1,44
 844 669 844 669 784 675 c 128,-1,45
 724 681 724 681 619 681 c 0,46,47
 561 681 561 681 442 676 c 1,48,49
 437 592 437 592 437 396 c 0,50,51
 437 186 437 186 442 87 c 1,52,-1
 626 87 l 2,53,54
 869 87 869 87 930 93 c 128,-1,55
 991 99 991 99 1046 122 c 1,56,57
 1055 145 1055 145 1075.5 228.5 c 128,-1,58
 1096 312 1096 312 1099 333 c 1,59,-1
 1109 340 l 1,60,-1
 1157 340 l 1,61,-1
 1165 333 l 1,62,63
 1156 290 1156 290 1147.5 183 c 128,-1,64
 1139 76 1139 76 1139 0 c 1,65,-1
 1132 -8 l 1,66,67
 941 -2 941 -2 632 -2 c 1,68,-1
 360 0 l 2,69,70
 265 0 265 0 162 -8 c 1,71,-1
 154 0 l 1,72,-1
 154 33 l 1,73,-1
 162 43 l 1,74,75
 221 73 221 73 229.5 80.5 c 128,-1,76
 238 88 238 88 243.5 255.5 c 128,-1,77
 249 423 249 423 249 511 c 2,78,-1
 249 878 l 1,79,-1
 248 1105 l 2,80,81
 248 1179 248 1179 246 1225.5 c 128,-1,82
 244 1272 244 1272 239 1292 c 128,-1,83
 234 1312 234 1312 227.5 1320 c 128,-1,84
 221 1328 221 1328 206.5 1333.5 c 128,-1,85
 192 1339 192 1339 157 1343 c 1,86,-1
 81 1349 l 1,87,-1
 73 1356 l 1,88,-1
 73 1406 l 1,0,-1
644 1487 m 0,89,-1
640 -60 m 0,90,-1
EndSplineSet
Position2: "JSTF extension max at priority 3 #11 for dflt in latn subtable" dx=10 dy=0 dh=0 dv=0
Position2: "JSTF shrinkage max at priority 3 #10 for dflt in latn subtable" dx=-10 dy=0 dh=0 dv=0
Position2: "JSTF extension max at priority 3 #7 for dflt in grek subtable" dx=10 dy=0 dh=0 dv=0
Position2: "JSTF shrinkage max at priority 3 #6 for dflt in grek subtable" dx=-10 dy=0 dh=0 dv=0
Position2: "JSTF extension max at priority 3 #3 for dflt in cyrl subtable" dx=10 dy=0 dh=0 dv=0
Position2: "JSTF shrinkage max at priority 3 #2 for dflt in cyrl subtable" dx=-10 dy=0 dh=0 dv=0
EndChar

StartChar: F
Encoding: 70 70 8
Width: 1139
GlyphClass: 2
Flags: W
LayerCount: 2
Fore
SplineSet
436 674 m 1,0,-1
 436 471 l 1,1,-1
 437 276 l 2,2,3
 438 167 438 167 443 131.5 c 128,-1,4
 448 96 448 96 457.5 85.5 c 128,-1,5
 467 75 467 75 494 67.5 c 128,-1,6
 521 60 521 60 627 56 c 1,7,-1
 635 50 l 1,8,-1
 635 0 l 1,9,-1
 627 -8 l 1,10,11
 373 0 373 0 340 0 c 0,12,13
 308 0 308 0 54 -8 c 1,14,-1
 46 0 l 1,15,-1
 46 50 l 1,16,-1
 54 56 l 1,17,18
 148 60 148 60 178.5 66 c 128,-1,19
 209 72 209 72 219.5 82 c 128,-1,20
 230 92 230 92 236.5 122 c 128,-1,21
 243 152 243 152 244 258 c 2,22,-1
 245 471 l 1,23,-1
 245 934 l 1,24,-1
 243 1129 l 2,25,26
 242 1243 242 1243 237.5 1276 c 128,-1,27
 233 1309 233 1309 223.5 1320 c 128,-1,28
 214 1331 214 1331 187 1338 c 128,-1,29
 160 1345 160 1345 54 1349 c 1,30,-1
 46 1356 l 1,31,-1
 46 1406 l 1,32,-1
 54 1413 l 1,33,34
 478 1407 478 1407 549 1407 c 0,35,36
 787 1407 787 1407 1037 1413 c 1,37,-1
 1045 1406 l 1,38,39
 1029 1356 1029 1356 1024 1292.5 c 128,-1,40
 1019 1229 1019 1229 1013 1113 c 1,41,-1
 1005 1105 l 1,42,-1
 958 1105 l 1,43,-1
 951 1113 l 1,44,45
 949 1120 949 1120 942 1190 c 0,46,47
 937 1245 937 1245 926 1291 c 1,48,49
 822 1326 822 1326 639 1326 c 0,50,51
 557 1326 557 1326 447 1314 c 1,52,53
 436 1236 436 1236 436 934 c 2,54,-1
 436 761 l 1,55,56
 563 759 563 759 609 759 c 0,57,58
 694 759 694 759 755 765.5 c 128,-1,59
 816 772 816 772 828 778 c 128,-1,60
 840 784 840 784 846.5 800.5 c 128,-1,61
 853 817 853 817 859 873 c 2,62,-1
 865 927 l 1,63,-1
 872 935 l 1,64,-1
 923 935 l 1,65,-1
 931 926 l 1,66,-1
 924 707 l 1,67,68
 924 669 924 669 927 597 c 0,69,70
 931 515 931 515 931 470 c 1,71,-1
 922 462 l 1,72,-1
 872 462 l 1,73,-1
 865 470 l 1,74,-1
 861 555 l 2,75,76
 858 605 858 605 851 628 c 128,-1,77
 844 651 844 651 828 658 c 128,-1,78
 812 665 812 665 757 671 c 128,-1,79
 702 677 702 677 588 677 c 0,80,81
 487 677 487 677 436 674 c 1,0,-1
EndSplineSet
Position2: "JSTF extension max at priority 3 #11 for dflt in latn subtable" dx=10 dy=0 dh=0 dv=0
Position2: "JSTF shrinkage max at priority 3 #10 for dflt in latn subtable" dx=-10 dy=0 dh=0 dv=0
Position2: "JSTF extension max at priority 3 #7 for dflt in grek subtable" dx=10 dy=0 dh=0 dv=0
Position2: "JSTF shrinkage max at priority 3 #6 for dflt in grek subtable" dx=-10 dy=0 dh=0 dv=0
Position2: "JSTF extension max at priority 3 #3 for dflt in cyrl subtable" dx=10 dy=0 dh=0 dv=0
Position2: "JSTF shrinkage max at priority 3 #2 for dflt in cyrl subtable" dx=-10 dy=0 dh=0 dv=0
EndChar

StartChar: G
Encoding: 71 71 9
Width: 1563
GlyphClass: 2
Flags: W
LayerCount: 2
Fore
SplineSet
1498 545 m 1,0,-1
 1498 515 l 1,1,-1
 1494 503 l 1,2,-1
 1445 474 l 2,3,4
 1427 463 1427 463 1424 457 c 128,-1,5
 1421 451 1421 451 1416.5 397.5 c 128,-1,6
 1412 344 1412 344 1412 267 c 0,7,8
 1412 180 1412 180 1423 78 c 1,9,-1
 1417 68 l 1,10,11
 1143 -37 1143 -37 854 -37 c 0,12,13
 632 -37 632 -37 453 47 c 128,-1,14
 274 131 274 131 169 296 c 128,-1,15
 64 461 64 461 64 688 c 0,16,17
 64 1034 64 1034 300.5 1238 c 128,-1,18
 537 1442 537 1442 918 1442 c 0,19,20
 1198 1442 1198 1442 1421 1347 c 1,21,-1
 1428 1336 l 1,22,23
 1410 1269 1410 1269 1386 1055 c 1,24,-1
 1378 1048 l 1,25,-1
 1332 1048 l 1,26,-1
 1324 1056 l 1,27,-1
 1319 1162 l 2,28,29
 1316 1214 1316 1214 1312.5 1223 c 128,-1,30
 1309 1232 1309 1232 1291 1246.5 c 128,-1,31
 1273 1261 1273 1261 1198.5 1292.5 c 128,-1,32
 1124 1324 1124 1324 1049 1338.5 c 128,-1,33
 974 1353 974 1353 888 1353 c 0,34,35
 705 1353 705 1353 564 1277 c 128,-1,36
 423 1201 423 1201 351.5 1055.5 c 128,-1,37
 280 910 280 910 280 732 c 0,38,39
 280 548 280 548 357 389.5 c 128,-1,40
 434 231 434 231 578 142 c 128,-1,41
 722 53 722 53 913 53 c 0,42,43
 996 53 996 53 1082.5 69.5 c 128,-1,44
 1169 86 1169 86 1225 116 c 1,45,46
 1234 148 1234 148 1234 245 c 2,47,-1
 1234 356 l 2,48,49
 1234 435 1234 435 1224 454.5 c 128,-1,50
 1214 474 1214 474 1174.5 482 c 128,-1,51
 1135 490 1135 490 1004 492 c 1,52,-1
 995 501 l 1,53,-1
 995 545 l 1,54,-1
 1004 554 l 1,55,-1
 1065 552 l 2,56,57
 1222 547 1222 547 1321 547 c 0,58,59
 1378 547 1378 547 1488 553 c 1,60,-1
 1498 545 l 1,0,-1
EndSplineSet
Position2: "JSTF extension max at priority 3 #11 for dflt in latn subtable" dx=10 dy=0 dh=0 dv=0
Position2: "JSTF shrinkage max at priority 3 #10 for dflt in latn subtable" dx=-10 dy=0 dh=0 dv=0
Position2: "JSTF extension max at priority 3 #7 for dflt in grek subtable" dx=10 dy=0 dh=0 dv=0
Position2: "JSTF shrinkage max at priority 3 #6 for dflt in grek subtable" dx=-10 dy=0 dh=0 dv=0
Position2: "JSTF extension max at priority 3 #3 for dflt in cyrl subtable" dx=10 dy=0 dh=0 dv=0
Position2: "JSTF shrinkage max at priority 3 #2 for dflt in cyrl subtable" dx=-10 dy=0 dh=0 dv=0
EndChar

StartChar: H
Encoding: 72 72 10
Width: 1704
GlyphClass: 2
Flags: W
LayerCount: 2
Fore
SplineSet
59 1413 m 1,0,1
 314 1405 314 1405 345 1405 c 0,2,3
 378 1405 378 1405 632 1413 c 1,4,-1
 640 1406 l 1,5,-1
 640 1356 l 1,6,-1
 632 1349 l 1,7,8
 563 1347 563 1347 525.5 1343 c 128,-1,9
 488 1339 488 1339 471 1328 c 128,-1,10
 454 1317 454 1317 448.5 1276.5 c 128,-1,11
 443 1236 443 1236 443 1164 c 2,12,-1
 441 934 l 1,13,-1
 441 794 l 1,14,15
 660 788 660 788 856 788 c 0,16,17
 1124 788 1124 788 1264 794 c 1,18,-1
 1264 934 l 1,19,-1
 1262 1129 l 2,20,21
 1261 1243 1261 1243 1256 1276 c 128,-1,22
 1251 1309 1251 1309 1242 1320 c 128,-1,23
 1233 1331 1233 1331 1206 1338 c 128,-1,24
 1179 1345 1179 1345 1072 1349 c 1,25,-1
 1065 1356 l 1,26,-1
 1065 1406 l 1,27,-1
 1072 1413 l 1,28,29
 1328 1405 1328 1405 1359 1405 c 0,30,31
 1393 1405 1393 1405 1646 1413 c 1,32,-1
 1654 1406 l 1,33,-1
 1654 1356 l 1,34,-1
 1646 1349 l 1,35,36
 1576 1347 1576 1347 1538.5 1343 c 128,-1,37
 1501 1339 1501 1339 1484 1328 c 128,-1,38
 1467 1317 1467 1317 1462 1276.5 c 128,-1,39
 1457 1236 1457 1236 1456 1164 c 2,40,-1
 1454 934 l 1,41,-1
 1454 471 l 1,42,-1
 1456 276 l 2,43,44
 1457 163 1457 163 1462 130 c 128,-1,45
 1467 97 1467 97 1476.5 86 c 128,-1,46
 1486 75 1486 75 1512.5 67.5 c 128,-1,47
 1539 60 1539 60 1646 56 c 1,48,-1
 1654 50 l 1,49,-1
 1654 0 l 1,50,-1
 1646 -8 l 1,51,52
 1390 0 1390 0 1359 0 c 0,53,54
 1327 0 1327 0 1072 -8 c 1,55,-1
 1065 0 l 1,56,-1
 1065 50 l 1,57,-1
 1072 56 l 1,58,59
 1166 60 1166 60 1197 66 c 128,-1,60
 1228 72 1228 72 1238 81.5 c 128,-1,61
 1248 91 1248 91 1255 122 c 128,-1,62
 1262 153 1262 153 1262 260 c 1,63,-1
 1264 471 l 1,64,-1
 1264 699 l 1,65,66
 968 705 968 705 849 705 c 0,67,68
 727 705 727 705 441 699 c 1,69,-1
 441 471 l 1,70,-1
 442 276 l 2,71,72
 443 163 443 163 448 130 c 128,-1,73
 453 97 453 97 462.5 86 c 128,-1,74
 472 75 472 75 499 67.5 c 128,-1,75
 526 60 526 60 632 56 c 1,76,-1
 640 50 l 1,77,-1
 640 0 l 1,78,-1
 632 -8 l 1,79,80
 377 0 377 0 345 0 c 0,81,82
 314 0 314 0 59 -8 c 1,83,-1
 51 0 l 1,84,-1
 51 50 l 1,85,-1
 59 56 l 1,86,87
 152 60 152 60 183 66 c 128,-1,88
 214 72 214 72 224.5 81.5 c 128,-1,89
 235 91 235 91 241.5 122 c 128,-1,90
 248 153 248 153 249 260 c 2,91,-1
 250 471 l 1,92,-1
 250 934 l 1,93,-1
 248 1129 l 2,94,95
 247 1243 247 1243 242.5 1276 c 128,-1,96
 238 1309 238 1309 228.5 1320 c 128,-1,97
 219 1331 219 1331 192 1338 c 128,-1,98
 165 1345 165 1345 59 1349 c 1,99,-1
 51 1356 l 1,100,-1
 51 1406 l 1,101,-1
 59 1413 l 1,0,1
EndSplineSet
Position2: "JSTF extension max at priority 3 #11 for dflt in latn subtable" dx=10 dy=0 dh=0 dv=0
Position2: "JSTF shrinkage max at priority 3 #10 for dflt in latn subtable" dx=-10 dy=0 dh=0 dv=0
Position2: "JSTF extension max at priority 3 #7 for dflt in grek subtable" dx=10 dy=0 dh=0 dv=0
Position2: "JSTF shrinkage max at priority 3 #6 for dflt in grek subtable" dx=-10 dy=0 dh=0 dv=0
Position2: "JSTF extension max at priority 3 #3 for dflt in cyrl subtable" dx=10 dy=0 dh=0 dv=0
Position2: "JSTF shrinkage max at priority 3 #2 for dflt in cyrl subtable" dx=-10 dy=0 dh=0 dv=0
EndChar

StartChar: I
Encoding: 73 73 11
Width: 690
GlyphClass: 2
Flags: W
AnchorPoint: "Anchor-4" 345 -60 basechar 0 50
AnchorPoint: "Anchor-3" 359 1487 basechar 0 49
LayerCount: 2
Fore
SplineSet
59 1413 m 1,0,-1
 184 1409 l 2,1,2
 307 1405 307 1405 345 1405 c 0,3,4
 379 1405 379 1405 632 1413 c 1,5,-1
 640 1406 l 1,6,-1
 640 1356 l 1,7,-1
 632 1349 l 1,8,9
 563 1347 563 1347 525.5 1343 c 128,-1,10
 488 1339 488 1339 471 1328 c 128,-1,11
 454 1317 454 1317 448.5 1276.5 c 128,-1,12
 443 1236 443 1236 443 1164 c 2,13,-1
 441 934 l 1,14,-1
 441 471 l 1,15,-1
 442 276 l 2,16,17
 443 163 443 163 448 130 c 128,-1,18
 453 97 453 97 462.5 86 c 128,-1,19
 472 75 472 75 499 67.5 c 128,-1,20
 526 60 526 60 632 56 c 1,21,-1
 640 50 l 1,22,-1
 640 0 l 1,23,-1
 632 -8 l 1,24,25
 627 -8 627 -8 456 -2 c 0,26,27
 385 0 385 0 345 0 c 0,28,29
 314 0 314 0 59 -8 c 1,30,-1
 51 0 l 1,31,-1
 51 50 l 1,32,-1
 59 56 l 1,33,34
 152 60 152 60 183 66 c 128,-1,35
 214 72 214 72 224.5 81.5 c 128,-1,36
 235 91 235 91 241.5 122 c 128,-1,37
 248 153 248 153 249 260 c 2,38,-1
 250 471 l 1,39,-1
 250 934 l 1,40,-1
 248 1129 l 2,41,42
 247 1243 247 1243 242.5 1276 c 128,-1,43
 238 1309 238 1309 228.5 1320 c 128,-1,44
 219 1331 219 1331 192 1338 c 128,-1,45
 165 1345 165 1345 59 1349 c 1,46,-1
 51 1356 l 1,47,-1
 51 1406 l 1,48,-1
 59 1413 l 1,0,-1
359 1487 m 0,49,-1
345 -60 m 0,50,-1
EndSplineSet
Position2: "JSTF extension max at priority 3 #11 for dflt in latn subtable" dx=10 dy=0 dh=0 dv=0
Position2: "JSTF shrinkage max at priority 3 #10 for dflt in latn subtable" dx=-10 dy=0 dh=0 dv=0
Position2: "JSTF extension max at priority 3 #7 for dflt in grek subtable" dx=10 dy=0 dh=0 dv=0
Position2: "JSTF shrinkage max at priority 3 #6 for dflt in grek subtable" dx=-10 dy=0 dh=0 dv=0
Position2: "JSTF extension max at priority 3 #3 for dflt in cyrl subtable" dx=10 dy=0 dh=0 dv=0
Position2: "JSTF shrinkage max at priority 3 #2 for dflt in cyrl subtable" dx=-10 dy=0 dh=0 dv=0
EndChar

StartChar: J
Encoding: 74 74 12
Width: 682
GlyphClass: 2
Flags: W
LayerCount: 2
Fore
SplineSet
635 1406 m 1,0,-1
 635 1356 l 1,1,-1
 628 1349 l 1,2,3
 558 1347 558 1347 520.5 1343 c 128,-1,4
 483 1339 483 1339 466 1328 c 128,-1,5
 449 1317 449 1317 443.5 1276.5 c 128,-1,6
 438 1236 438 1236 438 1164 c 2,7,-1
 436 934 l 1,8,-1
 436 216 l 2,9,10
 436 58 436 58 408 -42.5 c 128,-1,11
 380 -143 380 -143 310 -228.5 c 128,-1,12
 240 -314 240 -314 165.5 -355.5 c 128,-1,13
 91 -397 91 -397 18 -397 c 0,14,15
 -3 -397 -3 -397 -24 -392 c 1,16,17
 -22 -352 -22 -352 -21 -312 c 0,18,19
 -21 -287 -21 -287 -24 -238 c 1,20,-1
 -5 -225 l 1,21,22
 46 -263 46 -263 102 -263 c 0,23,24
 151 -263 151 -263 182.5 -244.5 c 128,-1,25
 214 -226 214 -226 227 -194.5 c 128,-1,26
 240 -163 240 -163 243 -79 c 128,-1,27
 246 5 246 5 246 65 c 2,28,-1
 246 934 l 1,29,-1
 244 1129 l 2,30,31
 243 1243 243 1243 238 1276 c 128,-1,32
 233 1309 233 1309 223.5 1320 c 128,-1,33
 214 1331 214 1331 187.5 1338 c 128,-1,34
 161 1345 161 1345 54 1349 c 1,35,-1
 47 1356 l 1,36,-1
 47 1406 l 1,37,-1
 54 1413 l 1,38,39
 307 1405 307 1405 341 1405 c 0,40,41
 376 1405 376 1405 628 1413 c 1,42,-1
 635 1406 l 1,0,-1
EndSplineSet
Position2: "JSTF extension max at priority 3 #11 for dflt in latn subtable" dx=10 dy=0 dh=0 dv=0
Position2: "JSTF shrinkage max at priority 3 #10 for dflt in latn subtable" dx=-10 dy=0 dh=0 dv=0
Position2: "JSTF extension max at priority 3 #7 for dflt in grek subtable" dx=10 dy=0 dh=0 dv=0
Position2: "JSTF shrinkage max at priority 3 #6 for dflt in grek subtable" dx=-10 dy=0 dh=0 dv=0
Position2: "JSTF extension max at priority 3 #3 for dflt in cyrl subtable" dx=10 dy=0 dh=0 dv=0
Position2: "JSTF shrinkage max at priority 3 #2 for dflt in cyrl subtable" dx=-10 dy=0 dh=0 dv=0
EndChar

StartChar: K
Encoding: 75 75 13
Width: 1487
GlyphClass: 2
Flags: W
LayerCount: 2
Fore
SplineSet
441 724 m 1,0,1
 692 951 692 951 803.5 1062.5 c 128,-1,2
 915 1174 915 1174 987.5 1246.5 c 128,-1,3
 1060 1319 1060 1319 1074 1340 c 1,4,-1
 1074 1405 l 1,5,-1
 1084 1413 l 1,6,7
 1160 1409 1160 1409 1250 1409 c 0,8,9
 1270 1409 1270 1409 1408 1412 c 1,10,-1
 1418 1403 l 1,11,-1
 1418 1356 l 1,12,-1
 1410 1348 l 1,13,14
 1317 1348 1317 1348 1283 1337.5 c 128,-1,15
 1249 1327 1249 1327 1183.5 1273.5 c 128,-1,16
 1118 1220 1118 1220 1033 1142 c 2,17,-1
 628 772 l 1,18,-1
 1230 215 l 2,19,20
 1375 80 1375 80 1392.5 68 c 128,-1,21
 1410 56 1410 56 1465 54 c 1,22,-1
 1472 46 l 1,23,-1
 1472 4 l 1,24,-1
 1465 -4 l 1,25,26
 1407 0 1407 0 1345 0 c 0,27,28
 1308 0 1308 0 1183 -4 c 1,29,30
 1092 82 1092 82 1023.5 148 c 128,-1,31
 955 214 955 214 441 684 c 1,32,-1
 441 471 l 1,33,-1
 442 276 l 2,34,35
 443 163 443 163 448 130 c 128,-1,36
 453 97 453 97 462.5 86 c 128,-1,37
 472 75 472 75 499 67.5 c 128,-1,38
 526 60 526 60 632 56 c 1,39,-1
 640 50 l 1,40,-1
 640 0 l 1,41,-1
 632 -8 l 1,42,43
 627 -8 627 -8 456 -2 c 0,44,45
 385 0 385 0 345 0 c 0,46,47
 314 0 314 0 59 -8 c 1,48,-1
 51 0 l 1,49,-1
 51 50 l 1,50,-1
 59 56 l 1,51,52
 152 60 152 60 183 66 c 128,-1,53
 214 72 214 72 224.5 81.5 c 128,-1,54
 235 91 235 91 241.5 122 c 128,-1,55
 248 153 248 153 249 260 c 2,56,-1
 250 471 l 1,57,-1
 250 934 l 1,58,-1
 248 1129 l 2,59,60
 247 1243 247 1243 242.5 1276 c 128,-1,61
 238 1309 238 1309 228.5 1320 c 128,-1,62
 219 1331 219 1331 192 1338 c 128,-1,63
 165 1345 165 1345 59 1349 c 1,64,-1
 51 1356 l 1,65,-1
 51 1406 l 1,66,-1
 59 1413 l 1,67,-1
 184 1409 l 2,68,69
 307 1405 307 1405 345 1405 c 0,70,71
 379 1405 379 1405 632 1413 c 1,72,-1
 640 1406 l 1,73,-1
 640 1356 l 1,74,-1
 632 1349 l 1,75,76
 563 1347 563 1347 525.5 1343 c 128,-1,77
 488 1339 488 1339 471 1328 c 128,-1,78
 454 1317 454 1317 448.5 1276.5 c 128,-1,79
 443 1236 443 1236 443 1164 c 2,80,-1
 441 934 l 1,81,-1
 441 724 l 1,0,1
EndSplineSet
Position2: "JSTF extension max at priority 3 #11 for dflt in latn subtable" dx=10 dy=0 dh=0 dv=0
Position2: "JSTF shrinkage max at priority 3 #10 for dflt in latn subtable" dx=-10 dy=0 dh=0 dv=0
Position2: "JSTF extension max at priority 3 #7 for dflt in grek subtable" dx=10 dy=0 dh=0 dv=0
Position2: "JSTF shrinkage max at priority 3 #6 for dflt in grek subtable" dx=-10 dy=0 dh=0 dv=0
Position2: "JSTF extension max at priority 3 #3 for dflt in cyrl subtable" dx=10 dy=0 dh=0 dv=0
Position2: "JSTF shrinkage max at priority 3 #2 for dflt in cyrl subtable" dx=-10 dy=0 dh=0 dv=0
EndChar

StartChar: L
Encoding: 76 76 14
Width: 1251
GlyphClass: 2
Flags: W
LayerCount: 2
Fore
SplineSet
37 1406 m 1,0,-1
 45 1413 l 1,1,2
 293 1405 293 1405 331 1405 c 0,3,4
 365 1405 365 1405 618 1413 c 1,5,-1
 626 1406 l 1,6,-1
 626 1356 l 1,7,-1
 618 1349 l 1,8,9
 549 1347 549 1347 511.5 1343 c 128,-1,10
 474 1339 474 1339 457 1328 c 128,-1,11
 440 1317 440 1317 434.5 1276.5 c 128,-1,12
 429 1236 429 1236 429 1164 c 2,13,-1
 427 934 l 1,14,-1
 427 492 l 2,15,16
 427 326 427 326 429 260 c 2,17,-1
 434 87 l 1,18,-1
 638 87 l 2,19,20
 882 87 882 87 942.5 93 c 128,-1,21
 1003 99 1003 99 1059 122 c 1,22,23
 1070 147 1070 147 1090.5 237 c 128,-1,24
 1111 327 1111 327 1112 341 c 1,25,-1
 1121 349 l 1,26,-1
 1170 349 l 1,27,-1
 1177 341 l 1,28,29
 1169 301 1169 301 1160.5 186 c 128,-1,30
 1152 71 1152 71 1152 0 c 1,31,-1
 1144 -8 l 1,32,33
 954 -2 954 -2 645 -2 c 1,34,-1
 353 0 l 2,35,36
 253 0 253 0 149 -8 c 1,37,-1
 141 0 l 1,38,-1
 141 33 l 1,39,-1
 149 43 l 1,40,41
 211 75 211 75 217 82 c 128,-1,42
 223 89 223 89 229.5 211 c 128,-1,43
 236 333 236 333 236 505 c 2,44,-1
 236 934 l 1,45,-1
 234 1129 l 2,46,47
 233 1243 233 1243 228.5 1276 c 128,-1,48
 224 1309 224 1309 214.5 1320 c 128,-1,49
 205 1331 205 1331 178 1338 c 128,-1,50
 151 1345 151 1345 45 1349 c 1,51,-1
 37 1356 l 1,52,-1
 37 1406 l 1,0,-1
EndSplineSet
Position2: "JSTF extension max at priority 3 #11 for dflt in latn subtable" dx=10 dy=0 dh=0 dv=0
Position2: "JSTF shrinkage max at priority 3 #10 for dflt in latn subtable" dx=-10 dy=0 dh=0 dv=0
Position2: "JSTF extension max at priority 3 #7 for dflt in grek subtable" dx=10 dy=0 dh=0 dv=0
Position2: "JSTF shrinkage max at priority 3 #6 for dflt in grek subtable" dx=-10 dy=0 dh=0 dv=0
Position2: "JSTF extension max at priority 3 #3 for dflt in cyrl subtable" dx=10 dy=0 dh=0 dv=0
Position2: "JSTF shrinkage max at priority 3 #2 for dflt in cyrl subtable" dx=-10 dy=0 dh=0 dv=0
EndChar

StartChar: M
Encoding: 77 77 15
Width: 1937
GlyphClass: 2
Flags: W
LayerCount: 2
Fore
SplineSet
1881 1410 m 1,0,-1
 1890 1402 l 1,1,-1
 1890 1353 l 1,2,-1
 1882 1346 l 1,3,4
 1772 1343 1772 1343 1745.5 1335 c 128,-1,5
 1719 1327 1719 1327 1708 1308.5 c 128,-1,6
 1697 1290 1697 1290 1695.5 1236 c 128,-1,7
 1694 1182 1694 1182 1690 931 c 1,8,-1
 1690 470 l 2,9,10
 1690 370 1690 370 1693 244 c 128,-1,11
 1696 118 1696 118 1705.5 97.5 c 128,-1,12
 1715 77 1715 77 1740 67.5 c 128,-1,13
 1765 58 1765 58 1882 55 c 1,14,-1
 1890 48 l 1,15,-1
 1890 -1 l 1,16,-1
 1881 -9 l 1,17,18
 1718 0 1718 0 1597 0 c 0,19,20
 1515 0 1515 0 1318 -9 c 1,21,-1
 1309 -1 l 1,22,-1
 1309 47 l 1,23,-1
 1317 55 l 1,24,25
 1427 58 1427 58 1453.5 66 c 128,-1,26
 1480 74 1480 74 1491 92.5 c 128,-1,27
 1502 111 1502 111 1504 166 c 128,-1,28
 1506 221 1506 221 1509 470 c 1,29,-1
 1509 1204 l 1,30,-1
 1164 482 l 2,31,32
 1034 211 1034 211 937 -28 c 1,33,-1
 898 -28 l 1,34,35
 842 101 842 101 806 178 c 2,36,-1
 328 1171 l 1,37,-1
 328 472 l 2,38,39
 328 374 328 374 330.5 246.5 c 128,-1,40
 333 119 333 119 343 99 c 128,-1,41
 353 79 353 79 378 69 c 128,-1,42
 403 59 403 59 520 57 c 1,43,-1
 528 49 l 1,44,-1
 528 1 l 1,45,-1
 519 -8 l 1,46,-1
 455 -5 l 2,47,48
 356 0 356 0 285 0 c 0,49,50
 253 0 253 0 46 -8 c 1,51,-1
 38 0 l 1,52,-1
 38 48 l 1,53,-1
 46 57 l 1,54,55
 156 59 156 59 182 67 c 128,-1,56
 208 75 208 75 219.5 94 c 128,-1,57
 231 113 231 113 232.5 165 c 128,-1,58
 234 217 234 217 237 472 c 1,59,-1
 237 930 l 2,60,61
 237 1021 237 1021 234.5 1151.5 c 128,-1,62
 232 1282 232 1282 222.5 1302.5 c 128,-1,63
 213 1323 213 1323 188 1333 c 128,-1,64
 163 1343 163 1343 46 1345 c 1,65,-1
 38 1353 l 1,66,-1
 38 1401 l 1,67,-1
 47 1410 l 1,68,69
 116 1405 116 1405 233 1405 c 0,70,71
 343 1405 343 1405 425 1410 c 1,72,73
 509 1216 509 1216 586 1059 c 2,74,-1
 965 281 l 1,75,-1
 1307 994 l 2,76,77
 1446 1283 1446 1283 1494 1410 c 1,78,79
 1590 1405 1590 1405 1683 1405 c 0,80,81
 1767 1405 1767 1405 1881 1410 c 1,0,-1
EndSplineSet
Position2: "JSTF extension max at priority 3 #11 for dflt in latn subtable" dx=10 dy=0 dh=0 dv=0
Position2: "JSTF shrinkage max at priority 3 #10 for dflt in latn subtable" dx=-10 dy=0 dh=0 dv=0
Position2: "JSTF extension max at priority 3 #7 for dflt in grek subtable" dx=10 dy=0 dh=0 dv=0
Position2: "JSTF shrinkage max at priority 3 #6 for dflt in grek subtable" dx=-10 dy=0 dh=0 dv=0
Position2: "JSTF extension max at priority 3 #3 for dflt in cyrl subtable" dx=10 dy=0 dh=0 dv=0
Position2: "JSTF shrinkage max at priority 3 #2 for dflt in cyrl subtable" dx=-10 dy=0 dh=0 dv=0
EndChar

StartChar: N
Encoding: 78 78 16
Width: 1702
GlyphClass: 2
Flags: W
LayerCount: 2
Fore
SplineSet
66 -7 m 1,0,-1
 57 2 l 1,1,-1
 57 48 l 1,2,-1
 66 56 l 1,3,4
 127 57 127 57 163.5 63 c 128,-1,5
 200 69 200 69 210.5 83 c 128,-1,6
 221 97 221 97 224.5 128 c 128,-1,7
 228 159 228 159 231.5 268 c 128,-1,8
 235 377 235 377 235 424 c 2,9,-1
 235 1232 l 2,10,11
 235 1283 235 1283 216.5 1307.5 c 128,-1,12
 198 1332 198 1332 166 1338.5 c 128,-1,13
 134 1345 134 1345 57 1346 c 1,14,-1
 49 1354 l 1,15,-1
 49 1401 l 1,16,-1
 57 1410 l 1,17,18
 195 1405 195 1405 238 1405 c 0,19,20
 339 1405 339 1405 404 1410 c 1,21,-1
 723 996 l 1,22,-1
 1192 408 l 2,23,24
 1277 301 1277 301 1365 205 c 1,25,-1
 1365 979 l 2,26,27
 1365 1015 1365 1015 1361.5 1132.5 c 128,-1,28
 1358 1250 1358 1250 1353 1281.5 c 128,-1,29
 1348 1313 1348 1313 1335.5 1324 c 128,-1,30
 1323 1335 1323 1335 1288.5 1340.5 c 128,-1,31
 1254 1346 1254 1346 1195 1347 c 1,32,-1
 1187 1355 l 1,33,-1
 1187 1401 l 1,34,-1
 1195 1410 l 1,35,36
 1276 1405 1276 1405 1426 1405 c 0,37,38
 1563 1405 1563 1405 1625 1410 c 1,39,-1
 1634 1401 l 1,40,-1
 1634 1355 l 1,41,-1
 1626 1347 l 1,42,43
 1560 1346 1560 1346 1524 1339.5 c 128,-1,44
 1488 1333 1488 1333 1479 1318 c 128,-1,45
 1470 1303 1470 1303 1466.5 1274 c 128,-1,46
 1463 1245 1463 1245 1459.5 1136 c 128,-1,47
 1456 1027 1456 1027 1456 979 c 2,48,-1
 1456 504 l 1,49,-1
 1457 229 l 1,50,51
 1459 94 1459 94 1461 -42 c 1,52,53
 1411 -25 1411 -25 1288 0 c 1,54,-1
 1217 84 l 1,55,-1
 1004 344 l 1,56,-1
 326 1191 l 1,57,-1
 326 424 l 2,58,59
 326 378 326 378 329.5 260 c 128,-1,60
 333 142 333 142 338 117 c 128,-1,61
 343 92 343 92 351 82.5 c 128,-1,62
 359 73 359 73 385.5 65 c 128,-1,63
 412 57 412 57 495 56 c 1,64,-1
 503 48 l 1,65,-1
 503 1 l 1,66,-1
 495 -7 l 1,67,68
 443 0 443 0 327 0 c 0,69,70
 178 0 178 0 66 -7 c 1,0,-1
EndSplineSet
Position2: "JSTF extension max at priority 3 #11 for dflt in latn subtable" dx=10 dy=0 dh=0 dv=0
Position2: "JSTF shrinkage max at priority 3 #10 for dflt in latn subtable" dx=-10 dy=0 dh=0 dv=0
Position2: "JSTF extension max at priority 3 #7 for dflt in grek subtable" dx=10 dy=0 dh=0 dv=0
Position2: "JSTF shrinkage max at priority 3 #6 for dflt in grek subtable" dx=-10 dy=0 dh=0 dv=0
Position2: "JSTF extension max at priority 3 #3 for dflt in cyrl subtable" dx=10 dy=0 dh=0 dv=0
Position2: "JSTF shrinkage max at priority 3 #2 for dflt in cyrl subtable" dx=-10 dy=0 dh=0 dv=0
EndChar

StartChar: O
Encoding: 79 79 17
Width: 1610
GlyphClass: 2
Flags: W
AnchorPoint: "Anchor-4" 795 -60 basechar 0 34
AnchorPoint: "Anchor-3" 790 1487 basechar 0 33
LayerCount: 2
Fore
SplineSet
48 689 m 0,0,1
 48 839 48 839 91 969 c 128,-1,2
 134 1099 134 1099 237.5 1209.5 c 128,-1,3
 341 1320 341 1320 487 1380.5 c 128,-1,4
 633 1441 633 1441 817 1441 c 0,5,6
 1158 1441 1158 1441 1360 1255.5 c 128,-1,7
 1562 1070 1562 1070 1562 749 c 0,8,9
 1562 523 1562 523 1463 343 c 128,-1,10
 1364 163 1364 163 1179.5 63 c 128,-1,11
 995 -37 995 -37 765 -37 c 0,12,13
 602 -37 602 -37 465 17.5 c 128,-1,14
 328 72 328 72 231.5 180 c 128,-1,15
 135 288 135 288 91.5 430 c 128,-1,16
 48 572 48 572 48 689 c 0,0,1
256 755 m 0,17,18
 256 633 256 633 295.5 492.5 c 128,-1,19
 335 352 335 352 413.5 251.5 c 128,-1,20
 492 151 492 151 594.5 102 c 128,-1,21
 697 53 697 53 828 53 c 0,22,23
 983 53 983 53 1104 124 c 128,-1,24
 1225 195 1225 195 1288 344.5 c 128,-1,25
 1351 494 1351 494 1351 680 c 0,26,27
 1351 882 1351 882 1279 1045 c 128,-1,28
 1207 1208 1207 1208 1074 1282 c 128,-1,29
 941 1356 941 1356 779 1356 c 0,30,31
 536 1356 536 1356 396 1204 c 128,-1,32
 256 1052 256 1052 256 755 c 0,17,18
790 1487 m 0,33,-1
795 -60 m 0,34,-1
EndSplineSet
Position2: "JSTF extension max at priority 3 #11 for dflt in latn subtable" dx=10 dy=0 dh=0 dv=0
Position2: "JSTF shrinkage max at priority 3 #10 for dflt in latn subtable" dx=-10 dy=0 dh=0 dv=0
Position2: "JSTF extension max at priority 3 #7 for dflt in grek subtable" dx=10 dy=0 dh=0 dv=0
Position2: "JSTF shrinkage max at priority 3 #6 for dflt in grek subtable" dx=-10 dy=0 dh=0 dv=0
Position2: "JSTF extension max at priority 3 #3 for dflt in cyrl subtable" dx=10 dy=0 dh=0 dv=0
Position2: "JSTF shrinkage max at priority 3 #2 for dflt in cyrl subtable" dx=-10 dy=0 dh=0 dv=0
EndChar

StartChar: P
Encoding: 80 80 18
Width: 1237
GlyphClass: 2
Flags: W
LayerCount: 2
Fore
SplineSet
59 1413 m 1,0,1
 311 1405 311 1405 380 1405 c 0,2,3
 474 1405 474 1405 591 1410 c 1,4,5
 715 1414 715 1414 744 1414 c 0,6,7
 884 1414 884 1414 975.5 1385 c 128,-1,8
 1067 1356 1067 1356 1127 1279 c 128,-1,9
 1187 1202 1187 1202 1187 1093 c 0,10,11
 1187 1003 1187 1003 1145 919 c 128,-1,12
 1103 835 1103 835 1028 776 c 128,-1,13
 953 717 953 717 876 691.5 c 128,-1,14
 799 666 799 666 716 666 c 0,15,16
 654 666 654 666 578 680 c 1,17,-1
 561 741 l 1,18,-1
 570 751 l 1,19,20
 645 734 645 734 692 734 c 0,21,22
 823 734 823 734 902.5 820.5 c 128,-1,23
 982 907 982 907 982 1042 c 0,24,25
 982 1178 982 1178 899.5 1259 c 128,-1,26
 817 1340 817 1340 650 1340 c 0,27,28
 559 1340 559 1340 450 1306 c 1,29,30
 441 1229 441 1229 441 934 c 2,31,-1
 441 471 l 1,32,-1
 442 276 l 2,33,34
 443 163 443 163 448 130 c 128,-1,35
 453 97 453 97 462.5 86 c 128,-1,36
 472 75 472 75 499 67.5 c 128,-1,37
 526 60 526 60 632 56 c 1,38,-1
 640 50 l 1,39,-1
 640 0 l 1,40,-1
 632 -8 l 1,41,42
 377 0 377 0 345 0 c 0,43,44
 311 0 311 0 59 -8 c 1,45,-1
 51 0 l 1,46,-1
 51 50 l 1,47,-1
 59 56 l 1,48,49
 152 60 152 60 183 66 c 128,-1,50
 214 72 214 72 224.5 81.5 c 128,-1,51
 235 91 235 91 241.5 122 c 128,-1,52
 248 153 248 153 249 260 c 2,53,-1
 250 471 l 1,54,-1
 250 934 l 1,55,-1
 248 1129 l 2,56,57
 247 1243 247 1243 242.5 1276 c 128,-1,58
 238 1309 238 1309 228.5 1320 c 128,-1,59
 219 1331 219 1331 192 1338 c 128,-1,60
 165 1345 165 1345 59 1349 c 1,61,-1
 51 1356 l 1,62,-1
 51 1406 l 1,63,-1
 59 1413 l 1,0,1
EndSplineSet
Position2: "JSTF extension max at priority 3 #11 for dflt in latn subtable" dx=10 dy=0 dh=0 dv=0
Position2: "JSTF shrinkage max at priority 3 #10 for dflt in latn subtable" dx=-10 dy=0 dh=0 dv=0
Position2: "JSTF extension max at priority 3 #7 for dflt in grek subtable" dx=10 dy=0 dh=0 dv=0
Position2: "JSTF shrinkage max at priority 3 #6 for dflt in grek subtable" dx=-10 dy=0 dh=0 dv=0
Position2: "JSTF extension max at priority 3 #3 for dflt in cyrl subtable" dx=10 dy=0 dh=0 dv=0
Position2: "JSTF shrinkage max at priority 3 #2 for dflt in cyrl subtable" dx=-10 dy=0 dh=0 dv=0
EndChar

StartChar: Q
Encoding: 81 81 19
Width: 1610
GlyphClass: 2
Flags: W
LayerCount: 2
Fore
SplineSet
541 -252 m 1,0,-1
 541 -206 l 1,1,-1
 547 -194 l 1,2,3
 706 -71 706 -71 801 -37 c 1,4,5
 538 -37 538 -37 382.5 51.5 c 128,-1,6
 227 140 227 140 137.5 316 c 128,-1,7
 48 492 48 492 48 704 c 0,8,9
 48 1028 48 1028 262.5 1234.5 c 128,-1,10
 477 1441 477 1441 817 1441 c 0,11,12
 1038 1441 1038 1441 1207 1360 c 128,-1,13
 1376 1279 1376 1279 1469 1122 c 128,-1,14
 1562 965 1562 965 1562 750 c 0,15,16
 1562 658 1562 658 1541.5 556 c 128,-1,17
 1521 454 1521 454 1463 347 c 128,-1,18
 1405 240 1405 240 1312.5 159 c 128,-1,19
 1220 78 1220 78 1092.5 25 c 128,-1,20
 965 -28 965 -28 823 -37 c 1,21,22
 907 -49 907 -49 1044 -104 c 0,23,24
 1217 -173 1217 -173 1302.5 -196.5 c 128,-1,25
 1388 -220 1388 -220 1450 -220 c 0,26,27
 1491 -220 1491 -220 1549 -202 c 1,28,-1
 1559 -209 l 1,29,-1
 1559 -243 l 1,30,-1
 1555 -253 l 1,31,32
 1541 -264 1541 -264 1511 -280 c 0,33,34
 1425 -329 1425 -329 1397 -358 c 1,35,36
 1380 -358 1380 -358 1325 -350 c 128,-1,37
 1270 -342 1270 -342 1214 -325.5 c 128,-1,38
 1158 -309 1158 -309 1039 -268 c 0,39,40
 785 -181 785 -181 726 -181 c 0,41,42
 700 -181 700 -181 673.5 -191.5 c 128,-1,43
 647 -202 647 -202 600 -230 c 2,44,-1
 551 -258 l 1,45,-1
 541 -252 l 1,0,-1
256 755 m 0,46,47
 256 633 256 633 295.5 492.5 c 128,-1,48
 335 352 335 352 413.5 251.5 c 128,-1,49
 492 151 492 151 594.5 102 c 128,-1,50
 697 53 697 53 828 53 c 0,51,52
 983 53 983 53 1104 124 c 128,-1,53
 1225 195 1225 195 1288 344.5 c 128,-1,54
 1351 494 1351 494 1351 680 c 0,55,56
 1351 882 1351 882 1279 1045 c 128,-1,57
 1207 1208 1207 1208 1074 1282 c 128,-1,58
 941 1356 941 1356 779 1356 c 0,59,60
 536 1356 536 1356 396 1204 c 128,-1,61
 256 1052 256 1052 256 755 c 0,46,47
EndSplineSet
Position2: "JSTF extension max at priority 3 #11 for dflt in latn subtable" dx=10 dy=0 dh=0 dv=0
Position2: "JSTF shrinkage max at priority 3 #10 for dflt in latn subtable" dx=-10 dy=0 dh=0 dv=0
Position2: "JSTF extension max at priority 3 #7 for dflt in grek subtable" dx=10 dy=0 dh=0 dv=0
Position2: "JSTF shrinkage max at priority 3 #6 for dflt in grek subtable" dx=-10 dy=0 dh=0 dv=0
Position2: "JSTF extension max at priority 3 #3 for dflt in cyrl subtable" dx=10 dy=0 dh=0 dv=0
Position2: "JSTF shrinkage max at priority 3 #2 for dflt in cyrl subtable" dx=-10 dy=0 dh=0 dv=0
EndChar

StartChar: R
Encoding: 82 82 20
Width: 1368
GlyphClass: 2
Flags: W
LayerCount: 2
Fore
SplineSet
42 1406 m 1,0,-1
 50 1413 l 1,1,2
 233 1405 233 1405 335 1405 c 0,3,4
 448 1405 448 1405 640 1412 c 0,5,6
 711 1414 711 1414 743 1414 c 0,7,8
 996 1414 996 1414 1086 1322 c 128,-1,9
 1176 1230 1176 1230 1176 1104 c 0,10,11
 1176 1020 1176 1020 1132 939 c 128,-1,12
 1088 858 1088 858 1002 800.5 c 128,-1,13
 916 743 916 743 765 714 c 1,14,15
 793 675 793 675 866 579 c 2,16,-1
 1008 391 l 2,17,18
 1077 298 1077 298 1156 194.5 c 128,-1,19
 1235 91 1235 91 1258 77.5 c 128,-1,20
 1281 64 1281 64 1297.5 61 c 128,-1,21
 1314 58 1314 58 1350 58 c 1,22,-1
 1358 50 l 1,23,-1
 1358 3 l 1,24,-1
 1349 -6 l 1,25,26
 1301 0 1301 0 1235 0 c 0,27,28
 1164 0 1164 0 1080 -6 c 1,29,30
 1011 78 1011 78 863 285 c 0,31,32
 691 525 691 525 511 730 c 1,33,-1
 521 761 l 1,34,35
 573 758 573 758 602 758 c 0,36,37
 775 758 775 758 873 841 c 128,-1,38
 971 924 971 924 971 1071 c 0,39,40
 971 1203 971 1203 883 1270.5 c 128,-1,41
 795 1338 795 1338 645 1338 c 0,42,43
 540 1338 540 1338 447 1309 c 1,44,45
 432 1287 432 1287 432 934 c 2,46,-1
 432 471 l 1,47,-1
 433 276 l 2,48,49
 434 163 434 163 439 130 c 128,-1,50
 444 97 444 97 453.5 86 c 128,-1,51
 463 75 463 75 490 67.5 c 128,-1,52
 517 60 517 60 623 56 c 1,53,-1
 631 50 l 1,54,-1
 631 0 l 1,55,-1
 623 -8 l 1,56,57
 618 -8 618 -8 447 -2 c 0,58,59
 376 0 376 0 336 0 c 0,60,61
 305 0 305 0 50 -8 c 1,62,-1
 42 0 l 1,63,-1
 42 50 l 1,64,-1
 50 56 l 1,65,66
 143 60 143 60 174 66 c 128,-1,67
 205 72 205 72 215.5 81.5 c 128,-1,68
 226 91 226 91 232.5 122 c 128,-1,69
 239 153 239 153 240 260 c 2,70,-1
 241 471 l 1,71,-1
 241 934 l 1,72,-1
 239 1129 l 2,73,74
 238 1243 238 1243 233.5 1276 c 128,-1,75
 229 1309 229 1309 219.5 1320 c 128,-1,76
 210 1331 210 1331 183 1338 c 128,-1,77
 156 1345 156 1345 50 1349 c 1,78,-1
 42 1356 l 1,79,-1
 42 1406 l 1,0,-1
EndSplineSet
Position2: "JSTF extension max at priority 3 #11 for dflt in latn subtable" dx=10 dy=0 dh=0 dv=0
Position2: "JSTF shrinkage max at priority 3 #10 for dflt in latn subtable" dx=-10 dy=0 dh=0 dv=0
Position2: "JSTF extension max at priority 3 #7 for dflt in grek subtable" dx=10 dy=0 dh=0 dv=0
Position2: "JSTF shrinkage max at priority 3 #6 for dflt in grek subtable" dx=-10 dy=0 dh=0 dv=0
Position2: "JSTF extension max at priority 3 #3 for dflt in cyrl subtable" dx=10 dy=0 dh=0 dv=0
Position2: "JSTF shrinkage max at priority 3 #2 for dflt in cyrl subtable" dx=-10 dy=0 dh=0 dv=0
EndChar

StartChar: S
Encoding: 83 83 21
Width: 1075
GlyphClass: 2
Flags: W
LayerCount: 2
Fore
SplineSet
79 344 m 1,0,-1
 87 352 l 1,1,-1
 136 352 l 1,2,-1
 144 344 l 1,3,4
 149 216 149 216 157.5 187.5 c 128,-1,5
 166 159 166 159 211.5 127.5 c 128,-1,6
 257 96 257 96 332.5 76 c 128,-1,7
 408 56 408 56 485 56 c 0,8,9
 591 56 591 56 675.5 95 c 128,-1,10
 760 134 760 134 807 209.5 c 128,-1,11
 854 285 854 285 854 379 c 0,12,13
 854 445 854 445 831.5 494 c 128,-1,14
 809 543 809 543 768.5 572.5 c 128,-1,15
 728 602 728 602 676 616.5 c 128,-1,16
 624 631 624 631 521 648 c 0,17,18
 421 664 421 664 364.5 677 c 128,-1,19
 308 690 308 690 252 717 c 128,-1,20
 196 744 196 744 158.5 785.5 c 128,-1,21
 121 827 121 827 98.5 887.5 c 128,-1,22
 76 948 76 948 76 1017 c 0,23,24
 76 1204 76 1204 206 1323.5 c 128,-1,25
 336 1443 336 1443 555 1443 c 0,26,27
 642 1443 642 1443 744.5 1421.5 c 128,-1,28
 847 1400 847 1400 931 1358 c 1,29,-1
 938 1346 l 1,30,31
 916 1254 916 1254 911 1084 c 1,32,-1
 902 1076 l 1,33,-1
 850 1076 l 1,34,-1
 842 1083 l 1,35,36
 840 1203 840 1203 836 1234 c 128,-1,37
 832 1265 832 1265 745 1311 c 128,-1,38
 658 1357 658 1357 556 1357 c 0,39,40
 471 1357 471 1357 397 1323 c 128,-1,41
 323 1289 323 1289 285 1216 c 128,-1,42
 247 1143 247 1143 247 1067 c 0,43,44
 247 1008 247 1008 270 962.5 c 128,-1,45
 293 917 293 917 329.5 890.5 c 128,-1,46
 366 864 366 864 414.5 851 c 128,-1,47
 463 838 463 838 592 819 c 0,48,49
 769 794 769 794 849.5 758.5 c 128,-1,50
 930 723 930 723 978.5 646 c 128,-1,51
 1027 569 1027 569 1027 460 c 0,52,53
 1027 247 1027 247 853.5 105 c 128,-1,54
 680 -37 680 -37 433 -37 c 0,55,56
 226 -37 226 -37 70 37 c 1,57,-1
 64 50 l 1,58,59
 74 113 74 113 79 344 c 1,0,-1
EndSplineSet
Position2: "JSTF extension max at priority 3 #11 for dflt in latn subtable" dx=10 dy=0 dh=0 dv=0
Position2: "JSTF shrinkage max at priority 3 #10 for dflt in latn subtable" dx=-10 dy=0 dh=0 dv=0
Position2: "JSTF extension max at priority 3 #7 for dflt in grek subtable" dx=10 dy=0 dh=0 dv=0
Position2: "JSTF shrinkage max at priority 3 #6 for dflt in grek subtable" dx=-10 dy=0 dh=0 dv=0
Position2: "JSTF extension max at priority 3 #3 for dflt in cyrl subtable" dx=10 dy=0 dh=0 dv=0
Position2: "JSTF shrinkage max at priority 3 #2 for dflt in cyrl subtable" dx=-10 dy=0 dh=0 dv=0
EndChar

StartChar: T
Encoding: 84 84 22
Width: 1255
GlyphClass: 2
Flags: W
LayerCount: 2
Fore
SplineSet
1207 1413 m 1,0,-1
 1216 1404 l 1,1,2
 1207 1314 1207 1314 1207 1090 c 1,3,-1
 1199 1082 l 1,4,-1
 1152 1082 l 1,5,-1
 1144 1091 l 1,6,-1
 1133 1183 l 2,7,8
 1125 1257 1125 1257 1120.5 1273.5 c 128,-1,9
 1116 1290 1116 1290 1106 1297.5 c 128,-1,10
 1096 1305 1096 1305 1041 1310 c 128,-1,11
 986 1315 986 1315 918 1315 c 2,12,-1
 729 1315 l 1,13,14
 721 1089 721 1089 721 1054 c 2,15,-1
 721 471 l 1,16,-1
 723 276 l 2,17,18
 724 163 724 163 728.5 129.5 c 128,-1,19
 733 96 733 96 742.5 85.5 c 128,-1,20
 752 75 752 75 779 67.5 c 128,-1,21
 806 60 806 60 913 56 c 1,22,-1
 920 50 l 1,23,-1
 920 0 l 1,24,-1
 913 -8 l 1,25,26
 657 0 657 0 627 0 c 0,27,28
 595 0 595 0 342 -8 c 1,29,-1
 334 0 l 1,30,-1
 334 50 l 1,31,-1
 342 56 l 1,32,33
 436 60 436 60 466.5 66 c 128,-1,34
 497 72 497 72 507.5 81.5 c 128,-1,35
 518 91 518 91 525 122 c 128,-1,36
 532 153 532 153 532 260 c 1,37,-1
 534 471 l 1,38,-1
 534 1054 l 2,39,40
 534 1070 534 1070 526 1315 c 1,41,-1
 377 1315 l 2,42,43
 285 1315 285 1315 218 1311 c 128,-1,44
 151 1307 151 1307 140.5 1290.5 c 128,-1,45
 130 1274 130 1274 121 1183 c 2,46,-1
 111 1091 l 1,47,-1
 102 1082 l 1,48,-1
 56 1082 l 1,49,-1
 48 1090 l 1,50,51
 46 1331 46 1331 39 1404 c 1,52,-1
 48 1413 l 1,53,54
 222 1405 222 1405 627 1405 c 0,55,56
 1040 1405 1040 1405 1207 1413 c 1,0,-1
EndSplineSet
Position2: "JSTF extension max at priority 3 #11 for dflt in latn subtable" dx=10 dy=0 dh=0 dv=0
Position2: "JSTF shrinkage max at priority 3 #10 for dflt in latn subtable" dx=-10 dy=0 dh=0 dv=0
Position2: "JSTF extension max at priority 3 #7 for dflt in grek subtable" dx=10 dy=0 dh=0 dv=0
Position2: "JSTF shrinkage max at priority 3 #6 for dflt in grek subtable" dx=-10 dy=0 dh=0 dv=0
Position2: "JSTF extension max at priority 3 #3 for dflt in cyrl subtable" dx=10 dy=0 dh=0 dv=0
Position2: "JSTF shrinkage max at priority 3 #2 for dflt in cyrl subtable" dx=-10 dy=0 dh=0 dv=0
EndChar

StartChar: U
Encoding: 85 85 23
Width: 1593
GlyphClass: 2
Flags: W
AnchorPoint: "Anchor-4" 805 -60 basechar 0 71
AnchorPoint: "Anchor-3" 811 1487 basechar 0 70
LayerCount: 2
Fore
SplineSet
30 1406 m 1,0,-1
 38 1413 l 1,1,2
 286 1405 286 1405 324 1405 c 0,3,4
 358 1405 358 1405 611 1413 c 1,5,-1
 619 1406 l 1,6,-1
 619 1356 l 1,7,-1
 611 1349 l 1,8,9
 542 1347 542 1347 504.5 1343 c 128,-1,10
 467 1339 467 1339 450 1328 c 128,-1,11
 433 1317 433 1317 427.5 1276.5 c 128,-1,12
 422 1236 422 1236 422 1164 c 2,13,-1
 420 934 l 1,14,-1
 420 616 l 2,15,16
 420 459 420 459 426.5 385.5 c 128,-1,17
 433 312 433 312 454.5 261.5 c 128,-1,18
 476 211 476 211 520 174.5 c 128,-1,19
 564 138 564 138 646 115 c 128,-1,20
 728 92 728 92 832 92 c 0,21,22
 942 92 942 92 1037.5 122.5 c 128,-1,23
 1133 153 1133 153 1183 211 c 128,-1,24
 1233 269 1233 269 1248.5 363.5 c 128,-1,25
 1264 458 1264 458 1264 626 c 2,26,-1
 1264 934 l 2,27,28
 1264 1012 1264 1012 1261.5 1148.5 c 128,-1,29
 1259 1285 1259 1285 1249.5 1305.5 c 128,-1,30
 1240 1326 1240 1326 1214.5 1336.5 c 128,-1,31
 1189 1347 1189 1347 1073 1349 c 1,32,-1
 1065 1357 l 1,33,-1
 1065 1404 l 1,34,-1
 1073 1413 l 1,35,36
 1221 1405 1221 1405 1310 1405 c 0,37,38
 1386 1405 1386 1405 1546 1413 c 1,39,-1
 1555 1405 l 1,40,-1
 1555 1357 l 1,41,-1
 1546 1349 l 1,42,43
 1452 1347 1452 1347 1423.5 1341.5 c 128,-1,44
 1395 1336 1395 1336 1383.5 1325 c 128,-1,45
 1372 1314 1372 1314 1366.5 1291 c 128,-1,46
 1361 1268 1361 1268 1359 1159 c 2,47,-1
 1356 934 l 1,48,-1
 1356 630 l 2,49,50
 1356 448 1356 448 1342 343 c 128,-1,51
 1328 238 1328 238 1279.5 170.5 c 128,-1,52
 1231 103 1231 103 1164.5 57.5 c 128,-1,53
 1098 12 1098 12 994 -12.5 c 128,-1,54
 890 -37 890 -37 778 -37 c 0,55,56
 638 -37 638 -37 530.5 -6 c 128,-1,57
 423 25 423 25 361 76 c 128,-1,58
 299 127 299 127 272 183.5 c 128,-1,59
 245 240 245 240 237 316.5 c 128,-1,60
 229 393 229 393 229 550 c 2,61,-1
 229 934 l 1,62,-1
 227 1129 l 2,63,64
 226 1243 226 1243 221.5 1276 c 128,-1,65
 217 1309 217 1309 207.5 1320 c 128,-1,66
 198 1331 198 1331 171 1338 c 128,-1,67
 144 1345 144 1345 38 1349 c 1,68,-1
 30 1356 l 1,69,-1
 30 1406 l 1,0,-1
811 1487 m 0,70,-1
805 -60 m 0,71,-1
EndSplineSet
Position2: "JSTF extension max at priority 3 #11 for dflt in latn subtable" dx=10 dy=0 dh=0 dv=0
Position2: "JSTF shrinkage max at priority 3 #10 for dflt in latn subtable" dx=-10 dy=0 dh=0 dv=0
Position2: "JSTF extension max at priority 3 #7 for dflt in grek subtable" dx=10 dy=0 dh=0 dv=0
Position2: "JSTF shrinkage max at priority 3 #6 for dflt in grek subtable" dx=-10 dy=0 dh=0 dv=0
Position2: "JSTF extension max at priority 3 #3 for dflt in cyrl subtable" dx=10 dy=0 dh=0 dv=0
Position2: "JSTF shrinkage max at priority 3 #2 for dflt in cyrl subtable" dx=-10 dy=0 dh=0 dv=0
EndChar

StartChar: V
Encoding: 86 86 24
Width: 1479
GlyphClass: 2
Flags: W
LayerCount: 2
Fore
SplineSet
688 -18 m 1,0,1
 673 26 673 26 563 318 c 1,2,-1
 223 1159 l 2,3,4
 165 1303 165 1303 150 1322.5 c 128,-1,5
 135 1342 135 1342 30 1349 c 1,6,-1
 21 1358 l 1,7,-1
 21 1404 l 1,8,-1
 30 1413 l 1,9,10
 183 1405 183 1405 290 1405 c 0,11,12
 390 1405 390 1405 555 1413 c 1,13,-1
 563 1405 l 1,14,-1
 563 1350 l 1,15,-1
 555 1342 l 1,16,17
 434 1342 434 1342 410.5 1334.5 c 128,-1,18
 387 1327 387 1327 387 1306 c 0,19,20
 387 1294 387 1294 419 1199.5 c 128,-1,21
 451 1105 451 1105 476 1040 c 2,22,-1
 789 249 l 1,23,-1
 1050 905 l 2,24,25
 1077 972 1077 972 1129 1121 c 128,-1,26
 1181 1270 1181 1270 1181 1300 c 0,27,28
 1181 1325 1181 1325 1156.5 1332 c 128,-1,29
 1132 1339 1132 1339 1010 1349 c 1,30,-1
 1001 1357 l 1,31,-1
 1001 1405 l 1,32,-1
 1010 1413 l 1,33,34
 1185 1405 1185 1405 1233 1405 c 0,35,36
 1272 1405 1272 1405 1435 1413 c 1,37,-1
 1443 1405 l 1,38,-1
 1443 1357 l 1,39,-1
 1435 1349 l 1,40,41
 1363 1346 1363 1346 1348 1338 c 128,-1,42
 1333 1330 1333 1330 1321.5 1307 c 128,-1,43
 1310 1284 1310 1284 1250 1149 c 1,44,-1
 938 381 l 2,45,46
 833 124 833 124 789 -18 c 1,47,-1
 688 -18 l 1,0,1
EndSplineSet
Position2: "JSTF extension max at priority 3 #11 for dflt in latn subtable" dx=10 dy=0 dh=0 dv=0
Position2: "JSTF shrinkage max at priority 3 #10 for dflt in latn subtable" dx=-10 dy=0 dh=0 dv=0
Position2: "JSTF extension max at priority 3 #7 for dflt in grek subtable" dx=10 dy=0 dh=0 dv=0
Position2: "JSTF shrinkage max at priority 3 #6 for dflt in grek subtable" dx=-10 dy=0 dh=0 dv=0
Position2: "JSTF extension max at priority 3 #3 for dflt in cyrl subtable" dx=10 dy=0 dh=0 dv=0
Position2: "JSTF shrinkage max at priority 3 #2 for dflt in cyrl subtable" dx=-10 dy=0 dh=0 dv=0
EndChar

StartChar: W
Encoding: 87 87 25
Width: 2048
GlyphClass: 2
Flags: W
LayerCount: 2
Fore
SplineSet
471 -19 m 1,0,-1
 380 398 l 1,1,-1
 187 1221 l 2,2,3
 164 1319 164 1319 139 1330.5 c 128,-1,4
 114 1342 114 1342 31 1352 c 1,5,-1
 23 1360 l 1,6,-1
 23 1404 l 1,7,-1
 31 1413 l 1,8,9
 175 1405 175 1405 286 1405 c 0,10,11
 369 1405 369 1405 528 1413 c 1,12,-1
 537 1404 l 1,13,-1
 537 1360 l 1,14,-1
 529 1352 l 1,15,16
 418 1348 418 1348 395.5 1341 c 128,-1,17
 373 1334 373 1334 373 1308 c 0,18,19
 373 1287 373 1287 393 1175.5 c 128,-1,20
 413 1064 413 1064 429 994 c 2,21,-1
 586 301 l 1,22,-1
 833 916 l 2,23,24
 930 1160 930 1160 1024 1427 c 1,25,-1
 1088 1427 l 1,26,27
 1168 1176 1168 1176 1253 940 c 2,28,-1
 1488 288 l 1,29,-1
 1658 885 l 2,30,31
 1684 979 1684 979 1722 1132 c 128,-1,32
 1760 1285 1760 1285 1760 1309 c 0,33,34
 1760 1336 1760 1336 1735 1342.5 c 128,-1,35
 1710 1349 1710 1349 1591 1352 c 1,36,-1
 1583 1361 l 1,37,-1
 1583 1405 l 1,38,-1
 1591 1413 l 1,39,40
 1761 1405 1761 1405 1796 1405 c 0,41,42
 1828 1405 1828 1405 2004 1413 c 1,43,-1
 2012 1405 l 1,44,-1
 2012 1360 l 1,45,-1
 2004 1353 l 1,46,47
 1947 1351 1947 1351 1928 1342.5 c 128,-1,48
 1909 1334 1909 1334 1895 1316.5 c 128,-1,49
 1881 1299 1881 1299 1855 1214 c 2,50,-1
 1797 1028 l 1,51,-1
 1694 691 l 2,52,53
 1672 618 1672 618 1613 395 c 2,54,-1
 1502 -19 l 1,55,-1
 1400 -19 l 1,56,57
 1296 291 1296 291 1228 477 c 2,58,-1
 1000 1094 l 1,59,-1
 801 600 l 1,60,-1
 694 320 l 2,61,62
 652 209 652 209 627 139 c 2,63,-1
 572 -19 l 1,64,-1
 471 -19 l 1,0,-1
EndSplineSet
Position2: "JSTF extension max at priority 3 #11 for dflt in latn subtable" dx=10 dy=0 dh=0 dv=0
Position2: "JSTF shrinkage max at priority 3 #10 for dflt in latn subtable" dx=-10 dy=0 dh=0 dv=0
Position2: "JSTF extension max at priority 3 #7 for dflt in grek subtable" dx=10 dy=0 dh=0 dv=0
Position2: "JSTF shrinkage max at priority 3 #6 for dflt in grek subtable" dx=-10 dy=0 dh=0 dv=0
Position2: "JSTF extension max at priority 3 #3 for dflt in cyrl subtable" dx=10 dy=0 dh=0 dv=0
Position2: "JSTF shrinkage max at priority 3 #2 for dflt in cyrl subtable" dx=-10 dy=0 dh=0 dv=0
EndChar

StartChar: X
Encoding: 88 88 26
Width: 1366
GlyphClass: 2
Flags: W
LayerCount: 2
Fore
SplineSet
31 5 m 1,0,-1
 31 53 l 1,1,-1
 39 61 l 1,2,3
 106 62 106 62 129 73.5 c 128,-1,4
 152 85 152 85 188 130.5 c 128,-1,5
 224 176 224 176 329 322 c 2,6,-1
 602 701 l 1,7,-1
 425 1002 l 2,8,9
 405 1036 405 1036 337.5 1133.5 c 128,-1,10
 270 1231 270 1231 231.5 1269 c 128,-1,11
 193 1307 193 1307 174 1313 c 128,-1,12
 155 1319 155 1319 69 1319 c 1,13,-1
 60 1328 l 1,14,-1
 60 1370 l 1,15,-1
 69 1379 l 1,16,-1
 352 1426 l 1,17,18
 389 1402 389 1402 431.5 1346.5 c 128,-1,19
 474 1291 474 1291 555 1151 c 2,20,-1
 723 859 l 1,21,-1
 1105 1417 l 1,22,23
 1190 1414 1190 1414 1208 1414 c 0,24,25
 1216 1414 1216 1414 1301 1417 c 1,26,-1
 1309 1408 l 1,27,-1
 1309 1363 l 1,28,-1
 1301 1355 l 1,29,30
 1238 1352 1238 1352 1217.5 1343.5 c 128,-1,31
 1197 1335 1197 1335 1164.5 1301 c 128,-1,32
 1132 1267 1132 1267 1032 1132 c 2,33,-1
 846 880 l 1,34,-1
 771 780 l 1,35,-1
 1110 232 l 2,36,37
 1158 154 1158 154 1187.5 115.5 c 128,-1,38
 1217 77 1217 77 1235 69.5 c 128,-1,39
 1253 62 1253 62 1317 61 c 1,40,-1
 1325 53 l 1,41,-1
 1325 4 l 1,42,-1
 1317 -4 l 1,43,44
 1222 0 1222 0 1183 0 c 0,45,46
 1132 0 1132 0 1029 -4 c 1,47,48
 969 85 969 85 918 173 c 2,49,-1
 655 622 l 1,50,-1
 582 521 l 2,51,52
 438 323 438 323 243 -4 c 1,53,54
 178 0 178 0 141 0 c 0,55,56
 103 0 103 0 40 -4 c 1,57,-1
 31 5 l 1,0,-1
EndSplineSet
Position2: "JSTF extension max at priority 3 #11 for dflt in latn subtable" dx=10 dy=0 dh=0 dv=0
Position2: "JSTF shrinkage max at priority 3 #10 for dflt in latn subtable" dx=-10 dy=0 dh=0 dv=0
Position2: "JSTF extension max at priority 3 #7 for dflt in grek subtable" dx=10 dy=0 dh=0 dv=0
Position2: "JSTF shrinkage max at priority 3 #6 for dflt in grek subtable" dx=-10 dy=0 dh=0 dv=0
Position2: "JSTF extension max at priority 3 #3 for dflt in cyrl subtable" dx=10 dy=0 dh=0 dv=0
Position2: "JSTF shrinkage max at priority 3 #2 for dflt in cyrl subtable" dx=-10 dy=0 dh=0 dv=0
EndChar

StartChar: Y
Encoding: 89 89 27
Width: 1366
GlyphClass: 2
Flags: W
AnchorPoint: "Anchor-4" 700 -60 basechar 0 59
AnchorPoint: "Anchor-3" 732 1487 basechar 0 58
LayerCount: 2
Fore
SplineSet
15 1319 m 1,0,-1
 6 1328 l 1,1,-1
 6 1370 l 1,2,-1
 15 1379 l 1,3,-1
 298 1426 l 1,4,5
 328 1405 328 1405 356.5 1373 c 128,-1,6
 385 1341 385 1341 439.5 1253.5 c 128,-1,7
 494 1166 494 1166 580 1009.5 c 128,-1,8
 666 853 666 853 745 696 c 1,9,-1
 847 858 l 1,10,-1
 962 1050 l 1,11,-1
 1174 1413 l 1,12,13
 1213 1409 1213 1409 1250 1409 c 0,14,15
 1273 1409 1273 1409 1320 1413 c 1,16,-1
 1328 1405 l 1,17,-1
 1328 1386 l 1,18,19
 1278 1331 1278 1331 1173 1186.5 c 128,-1,20
 1068 1042 1068 1042 1016.5 960.5 c 128,-1,21
 965 879 965 879 890 755.5 c 128,-1,22
 815 632 815 632 808 607 c 128,-1,23
 801 582 801 582 801 548 c 2,24,-1
 801 401 l 1,25,-1
 802 251 l 2,26,27
 803 164 803 164 808.5 129.5 c 128,-1,28
 814 95 814 95 823.5 84.5 c 128,-1,29
 833 74 833 74 859.5 67 c 128,-1,30
 886 60 886 60 992 56 c 1,31,-1
 1000 50 l 1,32,-1
 1000 0 l 1,33,-1
 992 -8 l 1,34,35
 987 -8 987 -8 816 -2 c 0,36,37
 745 0 745 0 705 0 c 0,38,39
 673 0 673 0 419 -8 c 1,40,-1
 411 0 l 1,41,-1
 411 50 l 1,42,-1
 419 56 l 1,43,44
 514 60 514 60 544 66 c 128,-1,45
 574 72 574 72 584.5 81.5 c 128,-1,46
 595 91 595 91 601 118.5 c 128,-1,47
 607 146 607 146 608 231 c 2,48,-1
 610 402 l 1,49,-1
 610 592 l 1,50,51
 588 646 588 646 463 851 c 2,52,-1
 375 994 l 2,53,54
 333 1062 333 1062 269.5 1152.5 c 128,-1,55
 206 1243 206 1243 171 1275.5 c 128,-1,56
 136 1308 136 1308 117 1313.5 c 128,-1,57
 98 1319 98 1319 15 1319 c 1,0,-1
732 1487 m 0,58,-1
700 -60 m 0,59,-1
EndSplineSet
Position2: "JSTF extension max at priority 3 #11 for dflt in latn subtable" dx=10 dy=0 dh=0 dv=0
Position2: "JSTF shrinkage max at priority 3 #10 for dflt in latn subtable" dx=-10 dy=0 dh=0 dv=0
Position2: "JSTF extension max at priority 3 #7 for dflt in grek subtable" dx=10 dy=0 dh=0 dv=0
Position2: "JSTF shrinkage max at priority 3 #6 for dflt in grek subtable" dx=-10 dy=0 dh=0 dv=0
Position2: "JSTF extension max at priority 3 #3 for dflt in cyrl subtable" dx=10 dy=0 dh=0 dv=0
Position2: "JSTF shrinkage max at priority 3 #2 for dflt in cyrl subtable" dx=-10 dy=0 dh=0 dv=0
EndChar

StartChar: Z
Encoding: 90 90 28
Width: 1366
GlyphClass: 2
Flags: W
LayerCount: 2
Fore
SplineSet
36 1 m 1,0,-1
 36 49 l 1,1,-1
 277 347 l 1,2,-1
 848 1082 l 2,3,4
 978 1248 978 1248 1023 1320 c 1,5,-1
 982 1320 l 1,6,-1
 821 1321 l 1,7,8
 609 1321 609 1321 479.5 1314.5 c 128,-1,9
 350 1308 350 1308 308.5 1301 c 128,-1,10
 267 1294 267 1294 257.5 1281.5 c 128,-1,11
 248 1269 248 1269 242 1222 c 1,12,-1
 228 1090 l 1,13,-1
 219 1081 l 1,14,-1
 172 1081 l 1,15,-1
 163 1090 l 1,16,17
 168 1166 168 1166 168 1211 c 0,18,19
 168 1333 168 1333 163 1404 c 1,20,-1
 172 1413 l 1,21,22
 529 1405 529 1405 671 1405 c 0,23,24
 907 1405 907 1405 1291 1413 c 1,25,-1
 1300 1404 l 1,26,-1
 1300 1353 l 1,27,28
 1190 1223 1190 1223 1146 1167 c 2,29,-1
 313 94 l 1,30,-1
 718 87 l 1,31,32
 839 87 839 87 962 93 c 128,-1,33
 1085 99 1085 99 1124 105 c 128,-1,34
 1163 111 1163 111 1177.5 122.5 c 128,-1,35
 1192 134 1192 134 1197 145.5 c 128,-1,36
 1202 157 1202 157 1213 214 c 1,37,-1
 1235 348 l 1,38,-1
 1244 356 l 1,39,-1
 1291 356 l 1,40,-1
 1299 348 l 1,41,42
 1292 284 1292 284 1285 0 c 1,43,-1
 1276 -8 l 1,44,45
 854 0 854 0 610 0 c 0,46,47
 439 0 439 0 45 -8 c 1,48,-1
 36 1 l 1,0,-1
EndSplineSet
Position2: "JSTF extension max at priority 3 #11 for dflt in latn subtable" dx=10 dy=0 dh=0 dv=0
Position2: "JSTF shrinkage max at priority 3 #10 for dflt in latn subtable" dx=-10 dy=0 dh=0 dv=0
Position2: "JSTF extension max at priority 3 #7 for dflt in grek subtable" dx=10 dy=0 dh=0 dv=0
Position2: "JSTF shrinkage max at priority 3 #6 for dflt in grek subtable" dx=-10 dy=0 dh=0 dv=0
Position2: "JSTF extension max at priority 3 #3 for dflt in cyrl subtable" dx=10 dy=0 dh=0 dv=0
Position2: "JSTF shrinkage max at priority 3 #2 for dflt in cyrl subtable" dx=-10 dy=0 dh=0 dv=0
EndChar

StartChar: Aringacute
Encoding: 506 506 36
Width: 1593
GlyphClass: 2
Flags: W
LayerCount: 2
Fore
SplineSet
1188 2115 m 1,0,1
 1051 2015 1051 2015 831 1846 c 1,2,-1
 818 1844 l 1,3,-1
 782 1874 l 1,4,-1
 783 1888 l 1,5,-1
 996 2123 l 1,6,-1
 1008 2128 l 1,7,-1
 1163 2150 l 1,8,-1
 1177 2143 l 1,9,-1
 1188 2115 l 1,0,1
809 1461 m 0,10,11
 731 1461 731 1461 675 1512 c 128,-1,12
 619 1563 619 1563 619 1640 c 0,13,14
 619 1716 619 1716 675.5 1765.5 c 128,-1,15
 732 1815 732 1815 809 1815 c 0,16,17
 889 1815 889 1815 944 1764 c 128,-1,18
 999 1713 999 1713 999 1640 c 0,19,20
 999 1565 999 1565 942.5 1513 c 128,-1,21
 886 1461 886 1461 809 1461 c 0,10,11
809 1772 m 0,22,23
 762 1772 762 1772 732.5 1733 c 128,-1,24
 703 1694 703 1694 703 1640 c 256,25,26
 703 1586 703 1586 733 1545 c 128,-1,27
 763 1504 763 1504 809 1504 c 0,28,29
 857 1504 857 1504 886.5 1544 c 128,-1,30
 916 1584 916 1584 916 1640 c 0,31,32
 916 1693 916 1693 886.5 1732.5 c 128,-1,33
 857 1772 857 1772 809 1772 c 0,22,23
1545 0 m 1,34,-1
 1537 -8 l 1,35,36
 1481 0 1481 0 1299 0 c 0,37,38
 1271 0 1271 0 1014 -8 c 1,39,-1
 1006 0 l 1,40,-1
 1006 52 l 1,41,-1
 1014 60 l 1,42,-1
 1094 62 l 1,43,44
 1135 62 1135 62 1158.5 73 c 128,-1,45
 1182 84 1182 84 1182 104 c 0,46,47
 1182 127 1182 127 1168 162 c 2,48,-1
 1045 467 l 1,49,-1
 466 467 l 1,50,-1
 357 211 l 2,51,52
 328 143 328 143 328 110 c 0,53,54
 328 92 328 92 345 80 c 128,-1,55
 362 68 362 68 386 64.5 c 128,-1,56
 410 61 410 61 491 60 c 1,57,-1
 500 52 l 1,58,-1
 500 0 l 1,59,-1
 492 -8 l 1,60,61
 363 0 363 0 266 0 c 0,62,63
 156 0 156 0 44 -8 c 1,64,-1
 35 0 l 1,65,-1
 35 52 l 1,66,-1
 44 60 l 1,67,68
 98 60 98 60 131.5 69.5 c 128,-1,69
 165 79 165 79 181 101 c 128,-1,70
 197 123 197 123 241 219 c 2,71,-1
 347 449 l 1,72,-1
 619 1065 l 2,73,74
 633 1096 633 1096 772 1427 c 1,75,-1
 837 1427 l 1,76,-1
 1321 289 l 2,77,78
 1396 112 1396 112 1423.5 86.5 c 128,-1,79
 1451 61 1451 61 1537 60 c 1,80,-1
 1545 52 l 1,81,-1
 1545 0 l 1,34,-1
1006 553 m 1,82,-1
 755 1156 l 1,83,-1
 500 553 l 1,84,-1
 1006 553 l 1,82,-1
EndSplineSet
Position2: "JSTF extension max at priority 3 #11 for dflt in latn subtable" dx=10 dy=0 dh=0 dv=0
Position2: "JSTF shrinkage max at priority 3 #10 for dflt in latn subtable" dx=-10 dy=0 dh=0 dv=0
Position2: "JSTF extension max at priority 3 #7 for dflt in grek subtable" dx=10 dy=0 dh=0 dv=0
Position2: "JSTF shrinkage max at priority 3 #6 for dflt in grek subtable" dx=-10 dy=0 dh=0 dv=0
Position2: "JSTF extension max at priority 3 #3 for dflt in cyrl subtable" dx=10 dy=0 dh=0 dv=0
Position2: "JSTF shrinkage max at priority 3 #2 for dflt in cyrl subtable" dx=-10 dy=0 dh=0 dv=0
EndChar

StartChar: Aogonek
Encoding: 260 260 38
Width: 1593
GlyphClass: 2
Flags: W
LayerCount: 2
Fore
SplineSet
1576 -265 m 1,0,1
 1430 -395 1430 -395 1301 -395 c 0,2,3
 1230 -395 1230 -395 1182 -350.5 c 128,-1,4
 1134 -306 1134 -306 1134 -228 c 0,5,6
 1134 -106 1134 -106 1306 0 c 1,7,-1
 1014 -8 l 1,8,-1
 1006 0 l 1,9,-1
 1006 52 l 1,10,-1
 1014 60 l 1,11,-1
 1094 62 l 1,12,13
 1135 62 1135 62 1158.5 73 c 128,-1,14
 1182 84 1182 84 1182 104 c 0,15,16
 1182 127 1182 127 1168 162 c 2,17,-1
 1045 467 l 1,18,-1
 466 467 l 1,19,-1
 357 211 l 2,20,21
 328 143 328 143 328 110 c 0,22,23
 328 92 328 92 345 80 c 128,-1,24
 362 68 362 68 386 64.5 c 128,-1,25
 410 61 410 61 491 60 c 1,26,-1
 500 52 l 1,27,-1
 500 0 l 1,28,-1
 492 -8 l 1,29,30
 363 0 363 0 266 0 c 0,31,32
 156 0 156 0 44 -8 c 1,33,-1
 35 0 l 1,34,-1
 35 52 l 1,35,-1
 44 60 l 1,36,37
 98 60 98 60 131.5 69.5 c 128,-1,38
 165 79 165 79 181 101 c 128,-1,39
 197 123 197 123 241 219 c 2,40,-1
 347 449 l 1,41,-1
 619 1065 l 2,42,43
 633 1096 633 1096 772 1427 c 1,44,-1
 837 1427 l 1,45,-1
 1321 289 l 2,46,47
 1396 112 1396 112 1423.5 86.5 c 128,-1,48
 1451 61 1451 61 1537 60 c 1,49,-1
 1545 52 l 1,50,-1
 1545 0 l 1,51,-1
 1537 -8 l 1,52,53
 1492 -3 1492 -3 1382 0 c 1,54,55
 1257 -115 1257 -115 1257 -193 c 0,56,57
 1257 -236 1257 -236 1285 -265.5 c 128,-1,58
 1313 -295 1313 -295 1360 -295 c 0,59,60
 1441 -295 1441 -295 1541 -221 c 1,61,-1
 1554 -222 l 1,62,-1
 1576 -251 l 1,63,-1
 1576 -265 l 1,0,1
1006 553 m 1,64,-1
 755 1156 l 1,65,-1
 500 553 l 1,66,-1
 1006 553 l 1,64,-1
EndSplineSet
Position2: "JSTF extension max at priority 3 #11 for dflt in latn subtable" dx=10 dy=0 dh=0 dv=0
Position2: "JSTF shrinkage max at priority 3 #10 for dflt in latn subtable" dx=-10 dy=0 dh=0 dv=0
Position2: "JSTF extension max at priority 3 #7 for dflt in grek subtable" dx=10 dy=0 dh=0 dv=0
Position2: "JSTF shrinkage max at priority 3 #6 for dflt in grek subtable" dx=-10 dy=0 dh=0 dv=0
Position2: "JSTF extension max at priority 3 #3 for dflt in cyrl subtable" dx=10 dy=0 dh=0 dv=0
Position2: "JSTF shrinkage max at priority 3 #2 for dflt in cyrl subtable" dx=-10 dy=0 dh=0 dv=0
EndChar

StartChar: AE
Encoding: 198 198 39
Width: 1933
GlyphClass: 3
LigCaretCntFixed: 1
Flags: W
LayerCount: 2
Fore
SplineSet
604 1406 m 1,0,-1
 612 1413 l 1,1,2
 1054 1404 1054 1404 1199 1404 c 0,3,4
 1391 1404 1391 1404 1778 1413 c 1,5,-1
 1787 1404 l 1,6,7
 1786 1395 1786 1395 1775 1332 c 0,8,9
 1764 1266 1764 1266 1761 1237.5 c 128,-1,10
 1758 1209 1758 1209 1751 1104 c 1,11,-1
 1742 1095 l 1,12,-1
 1696 1095 l 1,13,-1
 1687 1103 l 1,14,15
 1686 1214 1686 1214 1675 1283 c 1,16,17
 1546 1325 1546 1325 1343 1325 c 0,18,19
 1275 1325 1275 1325 1156 1317 c 1,20,21
 1145 1186 1145 1186 1145 1074 c 2,22,-1
 1145 770 l 1,23,24
 1231 764 1231 764 1293 764 c 0,25,26
 1413 764 1413 764 1472.5 770 c 128,-1,27
 1532 776 1532 776 1542 784 c 128,-1,28
 1552 792 1552 792 1556.5 816 c 128,-1,29
 1561 840 1561 840 1568 901 c 0,30,31
 1570 925 1570 925 1572 936 c 1,32,-1
 1581 944 l 1,33,-1
 1629 944 l 1,34,-1
 1638 937 l 1,35,36
 1631 821 1631 821 1631 724 c 0,37,38
 1631 644 1631 644 1638 491 c 1,39,-1
 1630 483 l 1,40,-1
 1581 483 l 1,41,-1
 1572 491 l 1,42,-1
 1565 586 l 2,43,44
 1561 629 1561 629 1554 641.5 c 128,-1,45
 1547 654 1547 654 1533 661.5 c 128,-1,46
 1519 669 1519 669 1445 675 c 128,-1,47
 1371 681 1371 681 1322 681 c 1,48,49
 1234 678 1234 678 1145 675 c 1,50,-1
 1145 317 l 2,51,52
 1145 203 1145 203 1149 88 c 1,53,-1
 1335 88 l 2,54,55
 1542 88 1542 88 1604 92 c 128,-1,56
 1666 96 1666 96 1730 122 c 1,57,58
 1745 162 1745 162 1780 330 c 1,59,-1
 1789 338 l 1,60,-1
 1838 338 l 1,61,-1
 1846 330 l 1,62,63
 1830 193 1830 193 1828 150.5 c 128,-1,64
 1826 108 1826 108 1819 1 c 1,65,-1
 1809 -8 l 1,66,67
 1389 0 1389 0 1254 0 c 0,68,69
 962 0 962 0 860 -8 c 1,70,-1
 852 0 l 1,71,-1
 852 32 l 1,72,-1
 858 41 l 1,73,74
 916 66 916 66 946 90 c 1,75,76
 955 132 955 132 958 230 c 2,77,-1
 964 417 l 1,78,-1
 964 494 l 1,79,80
 861 500 861 500 714 500 c 0,81,82
 559 500 559 500 468 494 c 1,83,84
 431 434 431 434 368 315.5 c 128,-1,85
 305 197 305 197 293 165 c 128,-1,86
 281 133 281 133 281 119 c 0,87,88
 281 89 281 89 316.5 76 c 128,-1,89
 352 63 352 63 451 60 c 1,90,-1
 460 52 l 1,91,-1
 460 -1 l 1,92,-1
 452 -8 l 1,93,94
 330 0 330 0 217 0 c 0,95,96
 128 0 128 0 8 -8 c 1,97,-1
 0 -1 l 1,98,-1
 0 53 l 1,99,-1
 9 60 l 1,100,101
 65 60 65 60 89 71 c 128,-1,102
 113 82 113 82 138.5 117 c 128,-1,103
 164 152 164 152 190 205 c 1,104,-1
 726 1149 l 2,105,106
 771 1228 771 1228 787.5 1262.5 c 128,-1,107
 804 1297 804 1297 804 1311 c 0,108,109
 804 1333 804 1333 782 1338 c 128,-1,110
 760 1343 760 1343 613 1353 c 1,111,-1
 604 1362 l 1,112,-1
 604 1406 l 1,0,-1
516 578 m 1,113,-1
 964 578 l 1,114,-1
 968 1032 l 1,115,116
 968 1149 968 1149 964 1332 c 1,117,-1
 939 1332 l 1,118,119
 920 1303 920 1303 894 1258 c 2,120,-1
 802 1094 l 1,121,-1
 658 836 l 1,122,-1
 516 578 l 1,113,-1
EndSplineSet
Position2: "JSTF extension max at priority 3 #11 for dflt in latn subtable" dx=10 dy=0 dh=0 dv=0
Position2: "JSTF shrinkage max at priority 3 #10 for dflt in latn subtable" dx=-10 dy=0 dh=0 dv=0
Position2: "JSTF extension max at priority 3 #7 for dflt in grek subtable" dx=10 dy=0 dh=0 dv=0
Position2: "JSTF shrinkage max at priority 3 #6 for dflt in grek subtable" dx=-10 dy=0 dh=0 dv=0
Position2: "JSTF extension max at priority 3 #3 for dflt in cyrl subtable" dx=10 dy=0 dh=0 dv=0
Position2: "JSTF shrinkage max at priority 3 #2 for dflt in cyrl subtable" dx=-10 dy=0 dh=0 dv=0
Ligature2: "'dpng' Dipthongs (Obsolete) in Latin lookup 19 subtable" A E
LCarets2: 1 1010 
EndChar

StartChar: Ccedilla
Encoding: 199 199 44
Width: 1452
GlyphClass: 2
Flags: W
LayerCount: 2
Fore
SplineSet
875 -37 m 1,0,-1
 829 -142 l 1,1,2
 862 -136 862 -136 890 -136 c 0,3,4
 974 -136 974 -136 1019.5 -176.5 c 128,-1,5
 1065 -217 1065 -217 1065 -277 c 0,6,7
 1065 -347 1065 -347 1003 -398 c 128,-1,8
 941 -449 941 -449 820 -449 c 0,9,10
 721 -449 721 -449 640 -420 c 1,11,-1
 635 -408 l 1,12,-1
 659 -357 l 1,13,-1
 670 -352 l 1,14,15
 732 -374 732 -374 795 -374 c 0,16,17
 850 -374 850 -374 876.5 -348 c 128,-1,18
 903 -322 903 -322 903 -290 c 0,19,20
 903 -255 903 -255 874.5 -233.5 c 128,-1,21
 846 -212 846 -212 801 -212 c 0,22,23
 772 -212 772 -212 740 -222 c 1,24,-1
 722 -208 l 1,25,-1
 800 -33 l 1,26,27
 469 -9 469 -9 270 194 c 128,-1,28
 71 397 71 397 71 704 c 0,29,30
 71 932 71 932 184 1102.5 c 128,-1,31
 297 1273 297 1273 481 1357.5 c 128,-1,32
 665 1442 665 1442 895 1442 c 0,33,34
 1028 1442 1028 1442 1158 1414 c 128,-1,35
 1288 1386 1288 1386 1375 1347 c 1,36,-1
 1382 1337 l 1,37,38
 1359 1281 1359 1281 1339 1060 c 1,39,-1
 1332 1052 l 1,40,-1
 1285 1052 l 1,41,-1
 1277 1060 l 1,42,-1
 1267 1230 l 1,43,44
 1194 1288 1194 1288 1090.5 1320.5 c 128,-1,45
 987 1353 987 1353 875 1353 c 0,46,47
 706 1353 706 1353 572 1280.5 c 128,-1,48
 438 1208 438 1208 364 1070.5 c 128,-1,49
 290 933 290 933 290 734 c 0,50,51
 290 534 290 534 377 383 c 128,-1,52
 464 232 464 232 614.5 151 c 128,-1,53
 765 70 765 70 966 70 c 0,54,55
 1055 70 1055 70 1137 87 c 128,-1,56
 1219 104 1219 104 1273.5 129 c 128,-1,57
 1328 154 1328 154 1378 190 c 1,58,-1
 1395 169 l 1,59,-1
 1357 76 l 1,60,61
 1132 -37 1132 -37 875 -37 c 1,0,-1
EndSplineSet
Position2: "JSTF extension max at priority 3 #11 for dflt in latn subtable" dx=10 dy=0 dh=0 dv=0
Position2: "JSTF shrinkage max at priority 3 #10 for dflt in latn subtable" dx=-10 dy=0 dh=0 dv=0
Position2: "JSTF extension max at priority 3 #7 for dflt in grek subtable" dx=10 dy=0 dh=0 dv=0
Position2: "JSTF shrinkage max at priority 3 #6 for dflt in grek subtable" dx=-10 dy=0 dh=0 dv=0
Position2: "JSTF extension max at priority 3 #3 for dflt in cyrl subtable" dx=10 dy=0 dh=0 dv=0
Position2: "JSTF shrinkage max at priority 3 #2 for dflt in cyrl subtable" dx=-10 dy=0 dh=0 dv=0
EndChar

StartChar: Dcroat
Encoding: 272 272 47
Width: 1585
GlyphClass: 2
Flags: W
LayerCount: 2
Fore
SplineSet
26 694 m 1,0,-1
 26 750 l 1,1,-1
 37 761 l 1,2,-1
 207 761 l 1,3,-1
 207 878 l 1,4,-1
 205 1105 l 2,5,6
 205 1179 205 1179 203 1225.5 c 128,-1,7
 201 1272 201 1272 196 1292 c 128,-1,8
 191 1312 191 1312 184.5 1320 c 128,-1,9
 178 1328 178 1328 163.5 1333.5 c 128,-1,10
 149 1339 149 1339 115 1343 c 1,11,-1
 38 1349 l 1,12,-1
 30 1356 l 1,13,-1
 30 1406 l 1,14,-1
 38 1413 l 1,15,16
 211 1405 211 1405 274 1405 c 1,17,-1
 742 1415 l 1,18,19
 935 1415 935 1415 1063 1379.5 c 128,-1,20
 1191 1344 1191 1344 1289 1257 c 128,-1,21
 1387 1170 1387 1170 1443.5 1049 c 128,-1,22
 1500 928 1500 928 1500 773 c 0,23,24
 1500 637 1500 637 1453.5 505.5 c 128,-1,25
 1407 374 1407 374 1320.5 269 c 128,-1,26
 1234 164 1234 164 1123.5 99.5 c 128,-1,27
 1013 35 1013 35 901.5 13.5 c 128,-1,28
 790 -8 790 -8 675 -8 c 0,29,30
 596 -8 596 -8 381 -2 c 0,31,32
 309 0 309 0 286 0 c 0,33,34
 217 0 217 0 119 -8 c 1,35,-1
 112 0 l 1,36,-1
 112 33 l 1,37,-1
 120 43 l 1,38,39
 179 73 179 73 187 80.5 c 128,-1,40
 195 88 195 88 201 255.5 c 128,-1,41
 207 423 207 423 207 511 c 2,42,-1
 207 684 l 1,43,-1
 36 684 l 1,44,-1
 26 694 l 1,0,-1
723 761 m 1,45,-1
 733 751 l 1,46,-1
 733 694 l 1,47,-1
 723 684 l 1,48,-1
 392 684 l 1,49,-1
 392 626 l 1,50,-1
 394 332 l 2,51,52
 394 246 394 246 400 101 c 1,53,54
 503 81 503 81 635 81 c 0,55,56
 868 81 868 81 1007.5 159 c 128,-1,57
 1147 237 1147 237 1216 390 c 128,-1,58
 1285 543 1285 543 1285 735 c 0,59,60
 1285 1018 1285 1018 1134 1174 c 128,-1,61
 983 1330 983 1330 659 1330 c 0,62,63
 524 1330 524 1330 400 1310 c 1,64,65
 392 1146 392 1146 392 940 c 2,66,-1
 392 761 l 1,67,-1
 723 761 l 1,45,-1
EndSplineSet
Position2: "JSTF extension max at priority 3 #11 for dflt in latn subtable" dx=10 dy=0 dh=0 dv=0
Position2: "JSTF shrinkage max at priority 3 #10 for dflt in latn subtable" dx=-10 dy=0 dh=0 dv=0
Position2: "JSTF extension max at priority 3 #7 for dflt in grek subtable" dx=10 dy=0 dh=0 dv=0
Position2: "JSTF shrinkage max at priority 3 #6 for dflt in grek subtable" dx=-10 dy=0 dh=0 dv=0
Position2: "JSTF extension max at priority 3 #3 for dflt in cyrl subtable" dx=10 dy=0 dh=0 dv=0
Position2: "JSTF shrinkage max at priority 3 #2 for dflt in cyrl subtable" dx=-10 dy=0 dh=0 dv=0
EndChar

StartChar: Eogonek
Encoding: 280 280 57
Width: 1251
GlyphClass: 2
Flags: W
LayerCount: 2
Fore
SplineSet
1165 333 m 1,0,1
 1139 115 1139 115 1139 0 c 1,2,-1
 1130 -8 l 1,3,-1
 961 -5 l 1,4,5
 842 -115 842 -115 842 -193 c 0,6,7
 842 -295 842 -295 945 -295 c 0,8,9
 1026 -295 1026 -295 1126 -221 c 1,10,-1
 1139 -222 l 1,11,-1
 1161 -251 l 1,12,-1
 1161 -265 l 1,13,14
 1015 -395 1015 -395 886 -395 c 0,15,16
 837 -395 837 -395 798.5 -373.5 c 128,-1,17
 760 -352 760 -352 739.5 -315 c 128,-1,18
 719 -278 719 -278 719 -228 c 0,19,20
 719 -104 719 -104 887 -4 c 1,21,-1
 360 0 l 2,22,23
 265 0 265 0 162 -8 c 1,24,-1
 154 0 l 1,25,-1
 154 33 l 1,26,-1
 162 43 l 1,27,28
 234 80 234 80 243 120 c 1,29,-1
 249 511 l 1,30,-1
 249 878 l 2,31,32
 249 1234 249 1234 242 1285.5 c 128,-1,33
 235 1337 235 1337 157 1343 c 2,34,-1
 81 1349 l 1,35,-1
 73 1356 l 1,36,-1
 73 1406 l 1,37,-1
 81 1413 l 1,38,-1
 519 1407 l 1,39,40
 850 1407 850 1407 1104 1413 c 1,41,-1
 1109 1406 l 1,42,43
 1084 1310 1084 1310 1072 1105 c 1,44,-1
 1066 1097 l 1,45,-1
 1017 1097 l 1,46,-1
 1008 1105 l 1,47,48
 1009 1114 1009 1114 1009 1121 c 0,49,50
 1009 1206 1009 1206 996 1283 c 1,51,52
 895 1328 895 1328 654 1328 c 0,53,54
 575 1328 575 1328 452 1317 c 1,55,-1
 442 771 l 1,56,57
 550 765 550 765 641 765 c 0,58,59
 860 765 860 765 874.5 789.5 c 128,-1,60
 889 814 889 814 893 874 c 2,61,-1
 897 936 l 1,62,-1
 905 944 l 1,63,-1
 951 944 l 1,64,-1
 959 936 l 1,65,-1
 954 725 l 2,66,67
 954 696 954 696 959 492 c 1,68,-1
 951 484 l 1,69,-1
 905 484 l 1,70,-1
 897 492 l 1,71,-1
 888 574 l 2,72,73
 881 639 881 639 862.5 655 c 128,-1,74
 844 671 844 671 768.5 676 c 128,-1,75
 693 681 693 681 619 681 c 0,76,77
 561 681 561 681 442 676 c 1,78,79
 437 592 437 592 437 396 c 0,80,81
 437 186 437 186 442 87 c 1,82,-1
 626 87 l 2,83,84
 902 87 902 87 954.5 96 c 128,-1,85
 1007 105 1007 105 1046 122 c 1,86,87
 1073 215 1073 215 1099 333 c 1,88,-1
 1109 340 l 1,89,-1
 1157 340 l 1,90,-1
 1165 333 l 1,0,1
EndSplineSet
Position2: "JSTF extension max at priority 3 #11 for dflt in latn subtable" dx=10 dy=0 dh=0 dv=0
Position2: "JSTF shrinkage max at priority 3 #10 for dflt in latn subtable" dx=-10 dy=0 dh=0 dv=0
Position2: "JSTF extension max at priority 3 #7 for dflt in grek subtable" dx=10 dy=0 dh=0 dv=0
Position2: "JSTF shrinkage max at priority 3 #6 for dflt in grek subtable" dx=-10 dy=0 dh=0 dv=0
Position2: "JSTF extension max at priority 3 #3 for dflt in cyrl subtable" dx=10 dy=0 dh=0 dv=0
Position2: "JSTF shrinkage max at priority 3 #2 for dflt in cyrl subtable" dx=-10 dy=0 dh=0 dv=0
EndChar

StartChar: Hbar
Encoding: 294 294 64
Width: 1704
GlyphClass: 2
Flags: W
LayerCount: 2
Fore
SplineSet
51 0 m 1,0,-1
 51 50 l 1,1,-1
 59 56 l 1,2,3
 152 60 152 60 183 66 c 128,-1,4
 214 72 214 72 224.5 81.5 c 128,-1,5
 235 91 235 91 241.5 122 c 128,-1,6
 248 153 248 153 249 260 c 2,7,-1
 250 471 l 1,8,-1
 250 1004 l 1,9,10
 67 1002 67 1002 59 1002 c 1,11,-1
 51 1009 l 1,12,-1
 51 1090 l 1,13,-1
 59 1097 l 1,14,-1
 165 1096 l 2,15,16
 174 1096 174 1096 250 1095 c 1,17,18
 249 1212 249 1212 245 1257 c 128,-1,19
 241 1302 241 1302 230.5 1316.5 c 128,-1,20
 220 1331 220 1331 190.5 1338 c 128,-1,21
 161 1345 161 1345 59 1349 c 1,22,-1
 51 1356 l 1,23,-1
 51 1406 l 1,24,-1
 59 1413 l 1,25,26
 314 1405 314 1405 345 1405 c 0,27,28
 378 1405 378 1405 632 1413 c 1,29,-1
 640 1406 l 1,30,-1
 640 1356 l 1,31,-1
 632 1349 l 1,32,33
 530 1345 530 1345 500 1338 c 128,-1,34
 470 1331 470 1331 459.5 1317 c 128,-1,35
 449 1303 449 1303 445.5 1260 c 128,-1,36
 442 1217 442 1217 441 1093 c 1,37,-1
 856 1091 l 1,38,-1
 1264 1092 l 1,39,40
 1264 1208 1264 1208 1260.5 1254 c 128,-1,41
 1257 1300 1257 1300 1246.5 1315 c 128,-1,42
 1236 1330 1236 1330 1207 1337.5 c 128,-1,43
 1178 1345 1178 1345 1072 1349 c 1,44,-1
 1065 1356 l 1,45,-1
 1065 1406 l 1,46,-1
 1072 1413 l 1,47,48
 1328 1405 1328 1405 1359 1405 c 0,49,50
 1393 1405 1393 1405 1646 1413 c 1,51,-1
 1654 1406 l 1,52,-1
 1654 1356 l 1,53,-1
 1646 1349 l 1,54,55
 1545 1345 1545 1345 1515 1338 c 128,-1,56
 1485 1331 1485 1331 1474.5 1317 c 128,-1,57
 1464 1303 1464 1303 1460 1260.5 c 128,-1,58
 1456 1218 1456 1218 1456 1094 c 1,59,-1
 1646 1097 l 1,60,-1
 1654 1090 l 1,61,-1
 1654 1009 l 1,62,-1
 1646 1002 l 1,63,-1
 1455 1004 l 1,64,-1
 1454 919 l 1,65,-1
 1454 471 l 1,66,-1
 1456 276 l 2,67,68
 1457 163 1457 163 1462 130 c 128,-1,69
 1467 97 1467 97 1476.5 86 c 128,-1,70
 1486 75 1486 75 1512.5 67.5 c 128,-1,71
 1539 60 1539 60 1646 56 c 1,72,-1
 1654 50 l 1,73,-1
 1654 0 l 1,74,-1
 1646 -8 l 1,75,76
 1390 0 1390 0 1359 0 c 0,77,78
 1327 0 1327 0 1072 -8 c 1,79,-1
 1065 0 l 1,80,-1
 1065 50 l 1,81,-1
 1072 56 l 1,82,83
 1166 60 1166 60 1197 66 c 128,-1,84
 1228 72 1228 72 1238 81.5 c 128,-1,85
 1248 91 1248 91 1255 122 c 128,-1,86
 1262 153 1262 153 1262 260 c 1,87,-1
 1264 471 l 1,88,-1
 1264 699 l 1,89,90
 968 705 968 705 849 705 c 0,91,92
 727 705 727 705 441 699 c 1,93,-1
 441 471 l 1,94,-1
 442 276 l 2,95,96
 443 163 443 163 448 130 c 128,-1,97
 453 97 453 97 462.5 86 c 128,-1,98
 472 75 472 75 499 67.5 c 128,-1,99
 526 60 526 60 632 56 c 1,100,-1
 640 50 l 1,101,-1
 640 0 l 1,102,-1
 632 -8 l 1,103,104
 377 0 377 0 345 0 c 0,105,106
 314 0 314 0 59 -8 c 1,107,-1
 51 0 l 1,0,-1
441 794 m 1,108,109
 662 788 662 788 856 788 c 0,110,111
 1137 788 1137 788 1264 794 c 1,112,-1
 1264 919 l 1,113,-1
 1264 1005 l 1,114,-1
 849 1008 l 1,115,-1
 441 1006 l 1,116,-1
 441 794 l 1,108,109
EndSplineSet
Position2: "JSTF extension max at priority 3 #11 for dflt in latn subtable" dx=10 dy=0 dh=0 dv=0
Position2: "JSTF shrinkage max at priority 3 #10 for dflt in latn subtable" dx=-10 dy=0 dh=0 dv=0
Position2: "JSTF extension max at priority 3 #7 for dflt in grek subtable" dx=10 dy=0 dh=0 dv=0
Position2: "JSTF shrinkage max at priority 3 #6 for dflt in grek subtable" dx=-10 dy=0 dh=0 dv=0
Position2: "JSTF extension max at priority 3 #3 for dflt in cyrl subtable" dx=10 dy=0 dh=0 dv=0
Position2: "JSTF shrinkage max at priority 3 #2 for dflt in cyrl subtable" dx=-10 dy=0 dh=0 dv=0
EndChar

StartChar: Iogonek
Encoding: 302 302 73
Width: 690
GlyphClass: 2
Flags: W
LayerCount: 2
Fore
SplineSet
640 0 m 1,0,-1
 632 -8 l 1,1,-1
 423 -2 l 1,2,3
 299 -113 299 -113 299 -194 c 0,4,5
 299 -295 299 -295 403 -295 c 0,6,7
 484 -295 484 -295 584 -221 c 1,8,-1
 597 -222 l 1,9,-1
 619 -251 l 1,10,-1
 619 -265 l 1,11,12
 473 -395 473 -395 344 -395 c 0,13,14
 274 -395 274 -395 225 -349.5 c 128,-1,15
 176 -304 176 -304 176 -228 c 0,16,17
 176 -113 176 -113 348 0 c 1,18,19
 306 0 306 0 59 -8 c 1,20,-1
 51 0 l 1,21,-1
 51 50 l 1,22,-1
 59 56 l 1,23,24
 171 61 171 61 196.5 69.5 c 128,-1,25
 222 78 222 78 235.5 100.5 c 128,-1,26
 249 123 249 123 249 260 c 1,27,-1
 250 358 l 1,28,-1
 250 934 l 1,29,-1
 248 1129 l 1,30,31
 248 1253 248 1253 239.5 1289.5 c 128,-1,32
 231 1326 231 1326 203 1335 c 128,-1,33
 175 1344 175 1344 59 1349 c 1,34,-1
 51 1356 l 1,35,-1
 51 1406 l 1,36,-1
 59 1413 l 1,37,-1
 345 1405 l 2,38,39
 379 1405 379 1405 632 1413 c 1,40,-1
 640 1406 l 1,41,-1
 640 1356 l 1,42,-1
 632 1349 l 1,43,44
 501 1346 501 1346 472.5 1329.5 c 128,-1,45
 444 1313 444 1313 443 1164 c 2,46,-1
 441 934 l 1,47,-1
 441 276 l 2,48,49
 441 122 441 122 458 94.5 c 128,-1,50
 475 67 475 67 511 63 c 128,-1,51
 547 59 547 59 632 56 c 1,52,-1
 640 50 l 1,53,-1
 640 0 l 1,0,-1
EndSplineSet
Position2: "JSTF extension max at priority 3 #11 for dflt in latn subtable" dx=10 dy=0 dh=0 dv=0
Position2: "JSTF shrinkage max at priority 3 #10 for dflt in latn subtable" dx=-10 dy=0 dh=0 dv=0
Position2: "JSTF extension max at priority 3 #7 for dflt in grek subtable" dx=10 dy=0 dh=0 dv=0
Position2: "JSTF shrinkage max at priority 3 #6 for dflt in grek subtable" dx=-10 dy=0 dh=0 dv=0
Position2: "JSTF extension max at priority 3 #3 for dflt in cyrl subtable" dx=10 dy=0 dh=0 dv=0
Position2: "JSTF shrinkage max at priority 3 #2 for dflt in cyrl subtable" dx=-10 dy=0 dh=0 dv=0
EndChar

StartChar: Lslash
Encoding: 321 321 82
Width: 1251
GlyphClass: 2
Flags: W
LayerCount: 2
Fore
SplineSet
427 702 m 1,0,-1
 427 492 l 2,1,2
 427 278 427 278 434 87 c 1,3,-1
 639 87 l 2,4,5
 881 87 881 87 941.5 93 c 128,-1,6
 1002 99 1002 99 1058 122 c 1,7,8
 1069 147 1069 147 1089.5 237 c 128,-1,9
 1110 327 1110 327 1111 341 c 1,10,-1
 1120 349 l 1,11,-1
 1169 349 l 1,12,-1
 1177 341 l 1,13,14
 1168 301 1168 301 1159.5 186 c 128,-1,15
 1151 71 1151 71 1151 0 c 1,16,-1
 1144 -8 l 1,17,18
 953 -2 953 -2 645 -2 c 1,19,-1
 353 0 l 2,20,21
 254 0 254 0 149 -8 c 1,22,-1
 141 0 l 1,23,-1
 141 33 l 1,24,-1
 149 43 l 1,25,26
 211 75 211 75 217 82 c 128,-1,27
 223 89 223 89 229.5 211 c 128,-1,28
 236 333 236 333 236 505 c 2,29,-1
 236 592 l 1,30,-1
 54 487 l 1,31,-1
 43 490 l 1,32,-1
 7 551 l 1,33,-1
 9 563 l 1,34,-1
 236 693 l 1,35,-1
 236 934 l 1,36,-1
 235 1129 l 2,37,38
 234 1243 234 1243 229 1276 c 128,-1,39
 224 1309 224 1309 214.5 1320 c 128,-1,40
 205 1331 205 1331 178 1338 c 128,-1,41
 151 1345 151 1345 45 1349 c 1,42,-1
 37 1356 l 1,43,-1
 37 1406 l 1,44,-1
 45 1413 l 1,45,46
 294 1405 294 1405 332 1405 c 0,47,48
 365 1405 365 1405 619 1413 c 1,49,-1
 626 1406 l 1,50,-1
 626 1356 l 1,51,-1
 619 1349 l 1,52,53
 549 1347 549 1347 511.5 1343 c 128,-1,54
 474 1339 474 1339 457 1328 c 128,-1,55
 440 1317 440 1317 434.5 1276.5 c 128,-1,56
 429 1236 429 1236 429 1164 c 2,57,-1
 427 934 l 1,58,-1
 427 802 l 1,59,-1
 709 964 l 1,60,-1
 721 962 l 1,61,-1
 755 902 l 1,62,-1
 752 890 l 1,63,-1
 427 702 l 1,0,-1
EndSplineSet
Position2: "JSTF extension max at priority 3 #11 for dflt in latn subtable" dx=10 dy=0 dh=0 dv=0
Position2: "JSTF shrinkage max at priority 3 #10 for dflt in latn subtable" dx=-10 dy=0 dh=0 dv=0
Position2: "JSTF extension max at priority 3 #7 for dflt in grek subtable" dx=10 dy=0 dh=0 dv=0
Position2: "JSTF shrinkage max at priority 3 #6 for dflt in grek subtable" dx=-10 dy=0 dh=0 dv=0
Position2: "JSTF extension max at priority 3 #3 for dflt in cyrl subtable" dx=10 dy=0 dh=0 dv=0
Position2: "JSTF shrinkage max at priority 3 #2 for dflt in cyrl subtable" dx=-10 dy=0 dh=0 dv=0
EndChar

StartChar: Oslash
Encoding: 216 216 96
Width: 1706
GlyphClass: 2
Flags: W
LayerCount: 2
Fore
SplineSet
79 32 m 1,0,-1
 258 205 l 1,1,2
 98 419 98 419 98 702 c 0,3,4
 98 1035 98 1035 315 1238 c 128,-1,5
 532 1441 532 1441 880 1441 c 0,6,7
 1036 1441 1036 1441 1156 1399 c 128,-1,8
 1276 1357 1276 1357 1392 1270 c 1,9,-1
 1565 1430 l 1,10,-1
 1577 1430 l 1,11,-1
 1624 1384 l 1,12,-1
 1625 1372 l 1,13,-1
 1453 1209 l 1,14,15
 1542 1104 1542 1104 1575 988 c 128,-1,16
 1608 872 1608 872 1608 746 c 0,17,18
 1608 506 1608 506 1497 329.5 c 128,-1,19
 1386 153 1386 153 1207.5 57.5 c 128,-1,20
 1029 -38 1029 -38 816 -38 c 0,21,22
 729 -38 729 -38 640.5 -20.5 c 128,-1,23
 552 -3 552 -3 470 34.5 c 128,-1,24
 388 72 388 72 318 137 c 1,25,-1
 140 -31 l 1,26,-1
 128 -31 l 1,27,-1
 79 20 l 1,28,-1
 79 32 l 1,0,-1
1265 1152 m 1,29,30
 1224 1205 1224 1205 1192 1233.5 c 128,-1,31
 1160 1262 1160 1262 1105 1291 c 128,-1,32
 1050 1320 1050 1320 976.5 1338 c 128,-1,33
 903 1356 903 1356 826 1356 c 0,34,35
 669 1356 669 1356 547 1284.5 c 128,-1,36
 425 1213 425 1213 364.5 1078 c 128,-1,37
 304 943 304 943 304 773 c 0,38,39
 304 550 304 550 405 343 c 1,40,-1
 1265 1152 l 1,29,30
453 264 m 1,41,42
 517 187 517 187 569.5 147.5 c 128,-1,43
 622 108 622 108 702.5 80.5 c 128,-1,44
 783 53 783 53 880 53 c 0,45,46
 1047 53 1047 53 1168 136.5 c 128,-1,47
 1289 220 1289 220 1343 361.5 c 128,-1,48
 1397 503 1397 503 1397 677 c 0,49,50
 1397 930 1397 930 1313 1076 c 1,51,-1
 453 264 l 1,41,42
EndSplineSet
Position2: "JSTF extension max at priority 3 #11 for dflt in latn subtable" dx=10 dy=0 dh=0 dv=0
Position2: "JSTF shrinkage max at priority 3 #10 for dflt in latn subtable" dx=-10 dy=0 dh=0 dv=0
Position2: "JSTF extension max at priority 3 #7 for dflt in grek subtable" dx=10 dy=0 dh=0 dv=0
Position2: "JSTF shrinkage max at priority 3 #6 for dflt in grek subtable" dx=-10 dy=0 dh=0 dv=0
Position2: "JSTF extension max at priority 3 #3 for dflt in cyrl subtable" dx=10 dy=0 dh=0 dv=0
Position2: "JSTF shrinkage max at priority 3 #2 for dflt in cyrl subtable" dx=-10 dy=0 dh=0 dv=0
EndChar

StartChar: OE
Encoding: 338 338 98
Width: 2044
GlyphClass: 3
LigCaretCntFixed: 1
Flags: W
LayerCount: 2
Fore
SplineSet
1941 338 m 1,0,-1
 1990 338 l 1,1,-1
 1999 330 l 1,2,3
 1985 193 1985 193 1982 150.5 c 128,-1,4
 1979 108 1979 108 1973 1 c 1,5,-1
 1963 -8 l 1,6,7
 1555 0 1555 0 1373 0 c 0,8,9
 1256 0 1256 0 1200.5 -3 c 128,-1,10
 1145 -6 1145 -6 1015 -18 c 0,11,12
 859 -33 859 -33 788 -33 c 0,13,14
 592 -33 592 -33 432.5 46 c 128,-1,15
 273 125 273 125 172.5 295.5 c 128,-1,16
 72 466 72 466 72 692 c 0,17,18
 72 898 72 898 158 1066.5 c 128,-1,19
 244 1235 244 1235 424 1336.5 c 128,-1,20
 604 1438 604 1438 820 1438 c 0,21,22
 875 1438 875 1438 986 1425 c 0,23,24
 1180 1404 1180 1404 1311 1404 c 0,25,26
 1541 1404 1541 1404 1927 1413 c 1,27,-1
 1936 1404 l 1,28,29
 1935 1395 1935 1395 1924 1332 c 0,30,31
 1913 1266 1913 1266 1910 1237.5 c 128,-1,32
 1907 1209 1907 1209 1900 1104 c 1,33,-1
 1891 1094 l 1,34,-1
 1845 1094 l 1,35,-1
 1836 1103 l 1,36,37
 1835 1214 1835 1214 1824 1283 c 1,38,39
 1694 1325 1694 1325 1511 1325 c 0,40,41
 1427 1325 1427 1325 1308 1317 c 1,42,43
 1297 1186 1297 1186 1297 1074 c 2,44,-1
 1297 770 l 1,45,46
 1385 763 1385 763 1462 763 c 0,47,48
 1549 763 1549 763 1611.5 768.5 c 128,-1,49
 1674 774 1674 774 1685 781.5 c 128,-1,50
 1696 789 1696 789 1700.5 804 c 128,-1,51
 1705 819 1705 819 1715 901 c 0,52,53
 1718 925 1718 925 1719 936 c 1,54,-1
 1728 944 l 1,55,-1
 1776 944 l 1,56,-1
 1785 937 l 1,57,58
 1778 821 1778 821 1778 724 c 0,59,60
 1778 647 1778 647 1785 491 c 1,61,-1
 1777 483 l 1,62,-1
 1728 483 l 1,63,-1
 1719 491 l 1,64,-1
 1712 586 l 2,65,66
 1708 629 1708 629 1701 641.5 c 128,-1,67
 1694 654 1694 654 1680 661.5 c 128,-1,68
 1666 669 1666 669 1591.5 675 c 128,-1,69
 1517 681 1517 681 1472 681 c 1,70,71
 1384 678 1384 678 1297 675 c 1,72,-1
 1297 317 l 2,73,74
 1297 203 1297 203 1301 88 c 1,75,-1
 1487 88 l 2,76,77
 1694 88 1694 88 1756 92 c 128,-1,78
 1818 96 1818 96 1882 122 c 1,79,80
 1897 162 1897 162 1932 330 c 1,81,-1
 1941 338 l 1,0,-1
1109 1266 m 1,82,83
 969 1353 969 1353 799 1353 c 0,84,85
 647 1353 647 1353 521 1283 c 128,-1,86
 395 1213 395 1213 335.5 1075 c 128,-1,87
 276 937 276 937 276 759 c 0,88,89
 276 606 276 606 318.5 468.5 c 128,-1,90
 361 331 361 331 435 239.5 c 128,-1,91
 509 148 509 148 605 99 c 128,-1,92
 701 50 701 50 830 50 c 0,93,94
 977 50 977 50 1110 116 c 1,95,96
 1122 237 1122 237 1122 416 c 2,97,-1
 1122 837 l 2,98,99
 1122 1136 1122 1136 1109 1266 c 1,82,83
EndSplineSet
Position2: "JSTF extension max at priority 3 #11 for dflt in latn subtable" dx=10 dy=0 dh=0 dv=0
Position2: "JSTF shrinkage max at priority 3 #10 for dflt in latn subtable" dx=-10 dy=0 dh=0 dv=0
Position2: "JSTF extension max at priority 3 #7 for dflt in grek subtable" dx=10 dy=0 dh=0 dv=0
Position2: "JSTF shrinkage max at priority 3 #6 for dflt in grek subtable" dx=-10 dy=0 dh=0 dv=0
Position2: "JSTF extension max at priority 3 #3 for dflt in cyrl subtable" dx=10 dy=0 dh=0 dv=0
Position2: "JSTF shrinkage max at priority 3 #2 for dflt in cyrl subtable" dx=-10 dy=0 dh=0 dv=0
Ligature2: "'dpng' Dipthongs (Obsolete) in Latin lookup 19 subtable" O E
LCarets2: 1 1060 
EndChar

StartChar: Scedilla
Encoding: 350 350 107
Width: 1075
GlyphClass: 2
Flags: W
LayerCount: 2
Fore
SplineSet
425 -37 m 1,0,1
 213 -33 213 -33 70 37 c 1,2,-1
 64 50 l 1,3,4
 74 113 74 113 79 344 c 1,5,-1
 87 352 l 1,6,-1
 136 352 l 1,7,-1
 144 344 l 1,8,9
 149 216 149 216 157.5 187.5 c 128,-1,10
 166 159 166 159 211.5 127.5 c 128,-1,11
 257 96 257 96 332.5 76 c 128,-1,12
 408 56 408 56 485 56 c 0,13,14
 591 56 591 56 675.5 95 c 128,-1,15
 760 134 760 134 807 209.5 c 128,-1,16
 854 285 854 285 854 379 c 0,17,18
 854 445 854 445 831.5 494 c 128,-1,19
 809 543 809 543 768.5 572.5 c 128,-1,20
 728 602 728 602 676 616.5 c 128,-1,21
 624 631 624 631 521 648 c 0,22,23
 421 664 421 664 364.5 677 c 128,-1,24
 308 690 308 690 252 717 c 128,-1,25
 196 744 196 744 158.5 785.5 c 128,-1,26
 121 827 121 827 98.5 887.5 c 128,-1,27
 76 948 76 948 76 1017 c 0,28,29
 76 1204 76 1204 206 1323.5 c 128,-1,30
 336 1443 336 1443 555 1443 c 0,31,32
 642 1443 642 1443 744.5 1421.5 c 128,-1,33
 847 1400 847 1400 931 1358 c 1,34,-1
 938 1346 l 1,35,36
 916 1254 916 1254 911 1084 c 1,37,-1
 902 1076 l 1,38,-1
 850 1076 l 1,39,-1
 842 1083 l 1,40,41
 840 1203 840 1203 836 1234 c 128,-1,42
 832 1265 832 1265 745 1311 c 128,-1,43
 658 1357 658 1357 556 1357 c 0,44,45
 471 1357 471 1357 397 1323 c 128,-1,46
 323 1289 323 1289 285 1216 c 128,-1,47
 247 1143 247 1143 247 1067 c 0,48,49
 247 1004 247 1004 273.5 955 c 128,-1,50
 300 906 300 906 346.5 880 c 128,-1,51
 393 854 393 854 439 844.5 c 128,-1,52
 485 835 485 835 592 819 c 0,53,54
 769 794 769 794 849.5 758.5 c 128,-1,55
 930 723 930 723 978.5 646 c 128,-1,56
 1027 569 1027 569 1027 460 c 0,57,58
 1027 265 1027 265 878.5 127 c 128,-1,59
 730 -11 730 -11 504 -33 c 1,60,-1
 457 -142 l 1,61,62
 489 -136 489 -136 518 -136 c 0,63,64
 599 -136 599 -136 645.5 -175 c 128,-1,65
 692 -214 692 -214 692 -277 c 0,66,67
 692 -347 692 -347 630.5 -398 c 128,-1,68
 569 -449 569 -449 448 -449 c 0,69,70
 351 -449 351 -449 267 -420 c 1,71,-1
 263 -408 l 1,72,-1
 287 -357 l 1,73,-1
 298 -352 l 1,74,75
 360 -374 360 -374 422 -374 c 0,76,77
 478 -374 478 -374 504.5 -348 c 128,-1,78
 531 -322 531 -322 531 -290 c 0,79,80
 531 -255 531 -255 503.5 -233.5 c 128,-1,81
 476 -212 476 -212 429 -212 c 0,82,83
 400 -212 400 -212 368 -222 c 1,84,-1
 350 -208 l 1,85,-1
 425 -37 l 1,0,1
EndSplineSet
Position2: "JSTF extension max at priority 3 #11 for dflt in latn subtable" dx=10 dy=0 dh=0 dv=0
Position2: "JSTF shrinkage max at priority 3 #10 for dflt in latn subtable" dx=-10 dy=0 dh=0 dv=0
Position2: "JSTF extension max at priority 3 #7 for dflt in grek subtable" dx=10 dy=0 dh=0 dv=0
Position2: "JSTF shrinkage max at priority 3 #6 for dflt in grek subtable" dx=-10 dy=0 dh=0 dv=0
Position2: "JSTF extension max at priority 3 #3 for dflt in cyrl subtable" dx=10 dy=0 dh=0 dv=0
Position2: "JSTF shrinkage max at priority 3 #2 for dflt in cyrl subtable" dx=-10 dy=0 dh=0 dv=0
AlternateSubs2: "Required Feature in Latin lookup 12 subtable" Scommaaccent
AlternateSubs2: "Alternate Substitution lookup 10 subtable" Scommaaccent
EndChar

StartChar: Tbar
Encoding: 358 358 112
Width: 1255
GlyphClass: 2
Flags: W
LayerCount: 2
Fore
SplineSet
335 0 m 1,0,-1
 335 50 l 1,1,-1
 342 57 l 1,2,3
 435 60 435 60 466 66 c 128,-1,4
 497 72 497 72 507.5 81.5 c 128,-1,5
 518 91 518 91 525 121.5 c 128,-1,6
 532 152 532 152 532 260 c 1,7,-1
 534 471 l 1,8,-1
 534 859 l 1,9,-1
 116 854 l 1,10,-1
 108 861 l 1,11,-1
 108 942 l 1,12,-1
 116 949 l 1,13,14
 366 944 366 944 534 944 c 1,15,-1
 534 1054 l 2,16,17
 534 1083 534 1083 526 1315 c 1,18,-1
 335 1315 l 2,19,20
 296 1315 296 1315 238 1311.5 c 128,-1,21
 180 1308 180 1308 162.5 1304 c 128,-1,22
 145 1300 145 1300 137.5 1284 c 128,-1,23
 130 1268 130 1268 121 1183 c 2,24,-1
 111 1091 l 1,25,-1
 102 1082 l 1,26,-1
 56 1082 l 1,27,-1
 48 1090 l 1,28,29
 46 1337 46 1337 39 1404 c 1,30,-1
 48 1413 l 1,31,32
 195 1405 195 1405 627 1405 c 0,33,34
 1060 1405 1060 1405 1207 1413 c 1,35,-1
 1216 1404 l 1,36,37
 1207 1306 1207 1306 1207 1090 c 1,38,-1
 1199 1082 l 1,39,-1
 1152 1082 l 1,40,-1
 1144 1091 l 1,41,-1
 1133 1183 l 2,42,43
 1125 1258 1125 1258 1121 1274 c 128,-1,44
 1117 1290 1117 1290 1106 1297.5 c 128,-1,45
 1095 1305 1095 1305 1039 1310 c 128,-1,46
 983 1315 983 1315 919 1315 c 2,47,-1
 729 1315 l 1,48,49
 721 1095 721 1095 721 1054 c 2,50,-1
 721 944 l 1,51,-1
 936 946 l 1,52,-1
 1139 949 l 1,53,-1
 1146 942 l 1,54,-1
 1146 861 l 1,55,-1
 1139 854 l 1,56,57
 854 859 854 859 721 859 c 1,58,-1
 721 471 l 1,59,-1
 723 276 l 2,60,61
 724 163 724 163 728.5 130 c 128,-1,62
 733 97 733 97 742.5 86 c 128,-1,63
 752 75 752 75 779 67.5 c 128,-1,64
 806 60 806 60 913 57 c 1,65,-1
 920 50 l 1,66,-1
 920 0 l 1,67,-1
 913 -8 l 1,68,69
 665 0 665 0 627 0 c 0,70,71
 587 0 587 0 342 -8 c 1,72,-1
 335 0 l 1,0,-1
EndSplineSet
Position2: "JSTF extension max at priority 3 #11 for dflt in latn subtable" dx=10 dy=0 dh=0 dv=0
Position2: "JSTF shrinkage max at priority 3 #10 for dflt in latn subtable" dx=-10 dy=0 dh=0 dv=0
Position2: "JSTF extension max at priority 3 #7 for dflt in grek subtable" dx=10 dy=0 dh=0 dv=0
Position2: "JSTF shrinkage max at priority 3 #6 for dflt in grek subtable" dx=-10 dy=0 dh=0 dv=0
Position2: "JSTF extension max at priority 3 #3 for dflt in cyrl subtable" dx=10 dy=0 dh=0 dv=0
Position2: "JSTF shrinkage max at priority 3 #2 for dflt in cyrl subtable" dx=-10 dy=0 dh=0 dv=0
EndChar

StartChar: Uogonek
Encoding: 370 370 122
Width: 1593
GlyphClass: 2
Flags: W
LayerCount: 2
Fore
SplineSet
1555 1357 m 1,0,-1
 1546 1349 l 1,1,2
 1414 1349 1414 1349 1387.5 1329.5 c 128,-1,3
 1361 1310 1361 1310 1359 1159 c 2,4,-1
 1356 934 l 1,5,-1
 1356 630 l 2,6,7
 1356 451 1356 451 1341 349.5 c 128,-1,8
 1326 248 1326 248 1290.5 187 c 128,-1,9
 1255 126 1255 126 1200 84.5 c 128,-1,10
 1145 43 1145 43 1023 -10 c 0,11,12
 855 -83 855 -83 855 -193 c 0,13,14
 855 -236 855 -236 883 -265.5 c 128,-1,15
 911 -295 911 -295 958 -295 c 0,16,17
 1039 -295 1039 -295 1139 -221 c 1,18,-1
 1152 -222 l 1,19,-1
 1174 -251 l 1,20,-1
 1174 -265 l 1,21,22
 1028 -395 1028 -395 899 -395 c 0,23,24
 828 -395 828 -395 780 -350.5 c 128,-1,25
 732 -306 732 -306 732 -228 c 0,26,27
 732 -118 732 -118 861 -33 c 1,28,29
 817 -37 817 -37 776 -37 c 0,30,31
 603 -37 603 -37 492.5 6 c 128,-1,32
 382 49 382 49 323 113.5 c 128,-1,33
 264 178 264 178 246.5 260 c 128,-1,34
 229 342 229 342 229 550 c 2,35,-1
 229 934 l 2,36,37
 229 963 229 963 227.5 1101 c 128,-1,38
 226 1239 226 1239 223 1266.5 c 128,-1,39
 220 1294 220 1294 214 1308.5 c 128,-1,40
 208 1323 208 1323 190.5 1330 c 128,-1,41
 173 1337 173 1337 134.5 1342 c 128,-1,42
 96 1347 96 1347 38 1349 c 1,43,-1
 30 1356 l 1,44,-1
 30 1406 l 1,45,-1
 38 1413 l 1,46,-1
 324 1405 l 2,47,48
 358 1405 358 1405 611 1413 c 1,49,-1
 619 1406 l 1,50,-1
 619 1356 l 1,51,-1
 611 1349 l 1,52,53
 471 1346 471 1346 446 1326.5 c 128,-1,54
 421 1307 421 1307 421 1163 c 2,55,-1
 421 1052 l 1,56,-1
 420 934 l 1,57,-1
 420 616 l 2,58,59
 420 355 420 355 451 272 c 128,-1,60
 482 189 482 189 577 140.5 c 128,-1,61
 672 92 672 92 832 92 c 0,62,63
 975 92 975 92 1067.5 130.5 c 128,-1,64
 1160 169 1160 169 1200 234 c 128,-1,65
 1240 299 1240 299 1252 382.5 c 128,-1,66
 1264 466 1264 466 1264 626 c 2,67,-1
 1264 934 l 2,68,69
 1264 1072 1264 1072 1261.5 1159.5 c 128,-1,70
 1259 1247 1259 1247 1255 1278 c 128,-1,71
 1251 1309 1251 1309 1241.5 1319.5 c 128,-1,72
 1232 1330 1232 1330 1214.5 1336.5 c 128,-1,73
 1197 1343 1197 1343 1184 1345 c 128,-1,74
 1171 1347 1171 1347 1073 1349 c 1,75,-1
 1065 1357 l 1,76,-1
 1065 1404 l 1,77,-1
 1073 1413 l 1,78,79
 1221 1405 1221 1405 1310 1405 c 0,80,81
 1386 1405 1386 1405 1546 1413 c 1,82,-1
 1555 1405 l 1,83,-1
 1555 1357 l 1,0,-1
EndSplineSet
Position2: "JSTF extension max at priority 3 #11 for dflt in latn subtable" dx=10 dy=0 dh=0 dv=0
Position2: "JSTF shrinkage max at priority 3 #10 for dflt in latn subtable" dx=-10 dy=0 dh=0 dv=0
Position2: "JSTF extension max at priority 3 #7 for dflt in grek subtable" dx=10 dy=0 dh=0 dv=0
Position2: "JSTF shrinkage max at priority 3 #6 for dflt in grek subtable" dx=-10 dy=0 dh=0 dv=0
Position2: "JSTF extension max at priority 3 #3 for dflt in cyrl subtable" dx=10 dy=0 dh=0 dv=0
Position2: "JSTF shrinkage max at priority 3 #2 for dflt in cyrl subtable" dx=-10 dy=0 dh=0 dv=0
EndChar

StartChar: uni01B7
Encoding: 439 439 134
Width: 1175
GlyphClass: 2
Flags: W
LayerCount: 2
Fore
SplineSet
1060 1378 m 1,0,1
 864 1125 864 1125 593 797 c 1,2,3
 655 819 655 819 743 819 c 0,4,5
 872 819 872 819 961.5 736.5 c 128,-1,6
 1051 654 1051 654 1051 517 c 0,7,8
 1051 411 1051 411 974 275.5 c 128,-1,9
 897 140 897 140 757.5 51.5 c 128,-1,10
 618 -37 618 -37 442 -37 c 0,11,12
 379 -37 379 -37 296 -15 c 128,-1,13
 213 7 213 7 194 24 c 1,14,15
 169 173 169 173 129 316 c 1,16,-1
 133 329 l 1,17,-1
 170 345 l 1,18,-1
 184 338 l 1,19,20
 240 181 240 181 317 119.5 c 128,-1,21
 394 58 394 58 529 58 c 0,22,23
 675 58 675 58 757.5 157.5 c 128,-1,24
 840 257 840 257 840 417 c 0,25,26
 840 703 840 703 570 703 c 0,27,28
 540 703 540 703 483 695 c 1,29,-1
 466 742 l 1,30,-1
 666 981 l 2,31,32
 719 1044 719 1044 856 1219 c 1,33,-1
 851 1229 l 1,34,-1
 431 1229 l 2,35,36
 358 1229 358 1229 336 1217.5 c 128,-1,37
 314 1206 314 1206 297.5 1174.5 c 128,-1,38
 281 1143 281 1143 251 1058 c 1,39,-1
 241 1048 l 1,40,-1
 196 1048 l 1,41,-1
 188 1059 l 1,42,-1
 292 1425 l 1,43,44
 509 1405 509 1405 642 1405 c 0,45,46
 788 1405 788 1405 1049 1416 c 1,47,-1
 1060 1378 l 1,0,1
EndSplineSet
Position2: "JSTF extension max at priority 3 #11 for dflt in latn subtable" dx=10 dy=0 dh=0 dv=0
Position2: "JSTF shrinkage max at priority 3 #10 for dflt in latn subtable" dx=-10 dy=0 dh=0 dv=0
Position2: "JSTF extension max at priority 3 #7 for dflt in grek subtable" dx=10 dy=0 dh=0 dv=0
Position2: "JSTF shrinkage max at priority 3 #6 for dflt in grek subtable" dx=-10 dy=0 dh=0 dv=0
Position2: "JSTF extension max at priority 3 #3 for dflt in cyrl subtable" dx=10 dy=0 dh=0 dv=0
Position2: "JSTF shrinkage max at priority 3 #2 for dflt in cyrl subtable" dx=-10 dy=0 dh=0 dv=0
EndChar

StartChar: Eng
Encoding: 330 330 135
Width: 1702
GlyphClass: 2
Flags: W
LayerCount: 2
Fore
SplineSet
1634 1355 m 1,0,-1
 1626 1347 l 1,1,2
 1533 1346 1533 1346 1511.5 1337 c 128,-1,3
 1490 1328 1490 1328 1479.5 1311.5 c 128,-1,4
 1469 1295 1469 1295 1462.5 1229 c 128,-1,5
 1456 1163 1456 1163 1456 979 c 2,6,-1
 1456 0 l 2,7,8
 1456 -280 1456 -280 1395 -361.5 c 128,-1,9
 1334 -443 1334 -443 1225 -443 c 0,10,11
 1154 -443 1154 -443 1100 -401 c 1,12,-1
 1095 -390 l 1,13,-1
 1139 -290 l 1,14,-1
 1151 -285 l 1,15,16
 1194 -313 1194 -313 1238 -313 c 0,17,18
 1319 -313 1319 -313 1356 -264 c 128,-1,19
 1393 -215 1393 -215 1393 -62 c 2,20,-1
 1393 0 l 1,21,-1
 1295 0 l 1,22,23
 1275 20 1275 20 1217 85 c 1,24,-1
 1082 247 l 1,25,-1
 326 1191 l 1,26,-1
 326 424 l 2,27,28
 326 167 326 167 336 125.5 c 128,-1,29
 346 84 346 84 372 70.5 c 128,-1,30
 398 57 398 57 495 56 c 1,31,-1
 503 48 l 1,32,-1
 503 1 l 1,33,-1
 495 -7 l 1,34,35
 443 0 443 0 327 0 c 0,36,37
 178 0 178 0 66 -7 c 1,38,-1
 57 2 l 1,39,-1
 57 48 l 1,40,-1
 66 56 l 1,41,42
 197 58 197 58 212 84.5 c 128,-1,43
 227 111 227 111 232 268 c 1,44,-1
 233 318 l 2,45,46
 235 418 235 418 235 424 c 2,47,-1
 235 1232 l 2,48,49
 235 1276 235 1276 219 1302 c 128,-1,50
 203 1328 203 1328 174 1336.5 c 128,-1,51
 145 1345 145 1345 57 1346 c 1,52,-1
 49 1354 l 1,53,-1
 49 1401 l 1,54,-1
 57 1410 l 1,55,56
 195 1405 195 1405 238 1405 c 0,57,58
 339 1405 339 1405 404 1410 c 1,59,60
 414 1400 414 1400 458 1341 c 1,61,-1
 723 996 l 1,62,-1
 1192 408 l 2,63,64
 1278 300 1278 300 1365 205 c 1,65,-1
 1365 979 l 2,66,67
 1365 1015 1365 1015 1363 1079 c 2,68,-1
 1362 1133 l 2,69,70
 1359 1283 1359 1283 1344 1314.5 c 128,-1,71
 1329 1346 1329 1346 1195 1347 c 1,72,-1
 1187 1355 l 1,73,-1
 1187 1401 l 1,74,-1
 1195 1410 l 1,75,76
 1276 1405 1276 1405 1426 1405 c 0,77,78
 1563 1405 1563 1405 1625 1410 c 1,79,-1
 1634 1401 l 1,80,-1
 1634 1355 l 1,0,-1
EndSplineSet
Position2: "JSTF extension max at priority 3 #11 for dflt in latn subtable" dx=10 dy=0 dh=0 dv=0
Position2: "JSTF shrinkage max at priority 3 #10 for dflt in latn subtable" dx=-10 dy=0 dh=0 dv=0
Position2: "JSTF extension max at priority 3 #7 for dflt in grek subtable" dx=10 dy=0 dh=0 dv=0
Position2: "JSTF shrinkage max at priority 3 #6 for dflt in grek subtable" dx=-10 dy=0 dh=0 dv=0
Position2: "JSTF extension max at priority 3 #3 for dflt in cyrl subtable" dx=10 dy=0 dh=0 dv=0
Position2: "JSTF shrinkage max at priority 3 #2 for dflt in cyrl subtable" dx=-10 dy=0 dh=0 dv=0
AlternateSubs2: "Alternate Substitution lookup 10 subtable" Engalt
EndChar

StartChar: Engalt
Encoding: 65545 -1 136
Width: 1589
GlyphClass: 2
Flags: W
LayerCount: 2
Fore
SplineSet
79 1325 m 1,0,-1
 79 1368 l 1,1,-1
 88 1376 l 1,2,3
 293 1400 293 1400 422 1451 c 1,4,-1
 441 1438 l 1,5,6
 432 1334 432 1334 432 1167 c 1,7,8
 514 1257 514 1257 571 1308 c 128,-1,9
 628 1359 628 1359 668.5 1381.5 c 128,-1,10
 709 1404 709 1404 787 1423 c 128,-1,11
 865 1442 865 1442 958 1442 c 0,12,13
 1055 1442 1055 1442 1132.5 1414 c 128,-1,14
 1210 1386 1210 1386 1267.5 1334.5 c 128,-1,15
 1325 1283 1325 1283 1351 1228 c 128,-1,16
 1377 1173 1377 1173 1385.5 1108 c 128,-1,17
 1394 1043 1394 1043 1394 931 c 2,18,-1
 1394 216 l 2,19,20
 1394 109 1394 109 1384.5 43 c 128,-1,21
 1375 -23 1375 -23 1351 -80 c 128,-1,22
 1327 -137 1327 -137 1284.5 -197 c 128,-1,23
 1242 -257 1242 -257 1183 -311 c 128,-1,24
 1124 -365 1124 -365 1084 -382 c 128,-1,25
 1044 -399 1044 -399 998 -399 c 0,26,27
 940 -399 940 -399 879 -373 c 1,28,-1
 928 -218 l 1,29,-1
 947 -212 l 1,30,31
 1011 -266 1011 -266 1070 -266 c 0,32,33
 1127 -266 1127 -266 1160.5 -235 c 128,-1,34
 1194 -204 1194 -204 1203.5 -141.5 c 128,-1,35
 1213 -79 1213 -79 1213 65 c 2,36,-1
 1213 900 l 2,37,38
 1213 1056 1213 1056 1182.5 1135 c 128,-1,39
 1152 1214 1152 1214 1078 1252.5 c 128,-1,40
 1004 1291 1004 1291 895 1291 c 0,41,42
 809 1291 809 1291 733.5 1272 c 128,-1,43
 658 1253 658 1253 599 1217.5 c 128,-1,44
 540 1182 540 1182 506.5 1141.5 c 128,-1,45
 473 1101 473 1101 456.5 1055.5 c 128,-1,46
 440 1010 440 1010 436 976.5 c 128,-1,47
 432 943 432 943 432 854 c 2,48,-1
 432 471 l 2,49,50
 432 396 432 396 434 276 c 128,-1,51
 436 156 436 156 439.5 126 c 128,-1,52
 443 96 443 96 455 83.5 c 128,-1,53
 467 71 467 71 502.5 65 c 128,-1,54
 538 59 538 59 623 56 c 1,55,-1
 631 50 l 1,56,-1
 631 0 l 1,57,-1
 623 -8 l 1,58,59
 463 0 463 0 338 0 c 0,60,61
 204 0 204 0 59 -8 c 1,62,-1
 51 0 l 1,63,-1
 51 50 l 1,64,-1
 59 56 l 1,65,66
 147 59 147 59 181.5 65 c 128,-1,67
 216 71 216 71 227 84 c 128,-1,68
 238 97 238 97 242 126.5 c 128,-1,69
 246 156 246 156 248 275.5 c 128,-1,70
 250 395 250 395 250 471 c 2,71,-1
 250 901 l 1,72,-1
 247 1029 l 1,73,-1
 244 1174 l 1,74,75
 241 1254 241 1254 238 1274 c 128,-1,76
 235 1294 235 1294 230.5 1300 c 128,-1,77
 226 1306 226 1306 215.5 1310.5 c 128,-1,78
 205 1315 205 1315 170 1315 c 2,79,-1
 88 1317 l 1,80,-1
 79 1325 l 1,0,-1
EndSplineSet
Position2: "JSTF extension max at priority 3 #11 for dflt in latn subtable" dx=10 dy=0 dh=0 dv=0
Position2: "JSTF shrinkage max at priority 3 #10 for dflt in latn subtable" dx=-10 dy=0 dh=0 dv=0
Position2: "JSTF extension max at priority 3 #7 for dflt in grek subtable" dx=10 dy=0 dh=0 dv=0
Position2: "JSTF shrinkage max at priority 3 #6 for dflt in grek subtable" dx=-10 dy=0 dh=0 dv=0
Position2: "JSTF extension max at priority 3 #3 for dflt in cyrl subtable" dx=10 dy=0 dh=0 dv=0
Position2: "JSTF shrinkage max at priority 3 #2 for dflt in cyrl subtable" dx=-10 dy=0 dh=0 dv=0
EndChar

StartChar: Thorn
Encoding: 222 222 137
Width: 1237
GlyphClass: 2
Flags: W
LayerCount: 2
Fore
SplineSet
76 1406 m 1,0,-1
 84 1413 l 1,1,2
 332 1405 332 1405 370 1405 c 0,3,4
 404 1405 404 1405 657 1413 c 1,5,-1
 665 1406 l 1,6,-1
 665 1356 l 1,7,-1
 657 1349 l 1,8,9
 557 1345 557 1345 526.5 1338.5 c 128,-1,10
 496 1332 496 1332 485.5 1318.5 c 128,-1,11
 475 1305 475 1305 471 1264 c 128,-1,12
 467 1223 467 1223 466 1106 c 1,13,14
 519 1103 519 1103 564 1103 c 2,15,-1
 777 1105 l 1,16,17
 908 1105 908 1105 1005.5 1054.5 c 128,-1,18
 1103 1004 1103 1004 1140 935 c 128,-1,19
 1177 866 1177 866 1177 787 c 0,20,21
 1177 685 1177 685 1119.5 581 c 128,-1,22
 1062 477 1062 477 956 417 c 128,-1,23
 850 357 850 357 715 357 c 0,24,25
 663 357 663 357 609 370 c 1,26,-1
 591 436 l 1,27,-1
 602 442 l 1,28,29
 656 427 656 427 700 427 c 0,30,31
 778 427 778 427 841 467.5 c 128,-1,32
 904 508 904 508 938.5 575 c 128,-1,33
 973 642 973 642 973 728 c 0,34,35
 973 1020 973 1020 637 1020 c 0,36,37
 564 1020 564 1020 466 1005 c 1,38,-1
 466 471 l 1,39,-1
 467 276 l 2,40,41
 468 163 468 163 473 130 c 128,-1,42
 478 97 478 97 487.5 86 c 128,-1,43
 497 75 497 75 524 67.5 c 128,-1,44
 551 60 551 60 657 56 c 1,45,-1
 665 50 l 1,46,-1
 665 0 l 1,47,-1
 657 -8 l 1,48,49
 410 0 410 0 370 0 c 0,50,51
 339 0 339 0 84 -8 c 1,52,-1
 76 0 l 1,53,-1
 76 50 l 1,54,-1
 84 56 l 1,55,56
 177 60 177 60 208 66 c 128,-1,57
 239 72 239 72 249.5 81.5 c 128,-1,58
 260 91 260 91 266.5 122 c 128,-1,59
 273 153 273 153 274 260 c 2,60,-1
 275 471 l 1,61,-1
 275 934 l 1,62,-1
 273 1129 l 2,63,64
 272 1243 272 1243 267.5 1276 c 128,-1,65
 263 1309 263 1309 253.5 1320 c 128,-1,66
 244 1331 244 1331 217 1338 c 128,-1,67
 190 1345 190 1345 84 1349 c 1,68,-1
 76 1356 l 1,69,-1
 76 1406 l 1,0,-1
EndSplineSet
Position2: "JSTF extension max at priority 3 #11 for dflt in latn subtable" dx=10 dy=0 dh=0 dv=0
Position2: "JSTF shrinkage max at priority 3 #10 for dflt in latn subtable" dx=-10 dy=0 dh=0 dv=0
Position2: "JSTF extension max at priority 3 #7 for dflt in grek subtable" dx=10 dy=0 dh=0 dv=0
Position2: "JSTF shrinkage max at priority 3 #6 for dflt in grek subtable" dx=-10 dy=0 dh=0 dv=0
Position2: "JSTF extension max at priority 3 #3 for dflt in cyrl subtable" dx=10 dy=0 dh=0 dv=0
Position2: "JSTF shrinkage max at priority 3 #2 for dflt in cyrl subtable" dx=-10 dy=0 dh=0 dv=0
EndChar

StartChar: a
Encoding: 97 97 138
Width: 1024
GlyphClass: 2
Flags: W
AnchorPoint: "Anchor-4" 485 -60 basechar 0 52
AnchorPoint: "Anchor-3" 506 1016 basechar 0 51
LayerCount: 2
Fore
SplineSet
212 678 m 1,0,-1
 173 688 l 1,1,-1
 165 698 l 1,2,-1
 165 822 l 1,3,4
 343 954 343 954 511 954 c 0,5,6
 626 954 626 954 702 911 c 128,-1,7
 778 868 778 868 812 803.5 c 128,-1,8
 846 739 846 739 846 653 c 1,9,-1
 841 452 l 1,10,-1
 841 154 l 2,11,12
 841 93 841 93 849.5 80 c 128,-1,13
 858 67 858 67 869 62.5 c 128,-1,14
 880 58 880 58 910 55 c 2,15,-1
 967 50 l 1,16,-1
 975 41 l 1,17,-1
 975 1 l 1,18,-1
 967 -7 l 1,19,20
 894 -1 894 -1 831 -1 c 0,21,22
 771 -1 771 -1 687 -7 c 1,23,-1
 672 7 l 1,24,-1
 676 168 l 1,25,-1
 458 -2 l 1,26,27
 403 -25 403 -25 338 -25 c 0,28,29
 258 -25 258 -25 200.5 4 c 128,-1,30
 143 33 143 33 112.5 85 c 128,-1,31
 82 137 82 137 82 211 c 0,32,33
 82 358 82 358 174 440.5 c 128,-1,34
 266 523 266 523 676 581 c 1,35,36
 676 729 676 729 610 789.5 c 128,-1,37
 544 850 544 850 433 850 c 0,38,39
 375 850 375 850 327.5 833 c 128,-1,40
 280 816 280 816 273 805.5 c 128,-1,41
 266 795 266 795 219 683 c 1,42,-1
 212 678 l 1,0,-1
676 520 m 1,43,44
 396 473 396 473 327 419 c 128,-1,45
 258 365 258 365 258 252 c 0,46,47
 258 96 258 96 413 96 c 0,48,49
 546 96 546 96 676 250 c 1,50,-1
 676 520 l 1,43,44
506 1016 m 0,51,-1
485 -60 m 0,52,-1
EndSplineSet
Position2: "JSTF extension max at priority 3 #11 for dflt in latn subtable" dx=10 dy=0 dh=0 dv=0
Position2: "JSTF shrinkage max at priority 3 #10 for dflt in latn subtable" dx=-10 dy=0 dh=0 dv=0
Position2: "JSTF extension max at priority 3 #7 for dflt in grek subtable" dx=10 dy=0 dh=0 dv=0
Position2: "JSTF shrinkage max at priority 3 #6 for dflt in grek subtable" dx=-10 dy=0 dh=0 dv=0
Position2: "JSTF extension max at priority 3 #3 for dflt in cyrl subtable" dx=10 dy=0 dh=0 dv=0
Position2: "JSTF shrinkage max at priority 3 #2 for dflt in cyrl subtable" dx=-10 dy=0 dh=0 dv=0
Substitution2: "'smcp' Lowercase to Small Capitals in Latin lookup 14 subtable" Asmall
Substitution2: "'smcp' Lowercase to Small Capitals in Latin lookup 13 subtable" Asmall
Substitution2: "'subs' Subscript lookup 9 subtable" asuperior
Substitution2: "'sinf' Scientific Inferiors lookup 8 subtable" asuperior
EndChar

StartChar: b
Encoding: 98 98 139
Width: 1133
GlyphClass: 2
Flags: W
LayerCount: 2
Fore
SplineSet
-13 1347 m 1,0,-1
 -22 1356 l 1,1,-1
 -22 1398 l 1,2,-1
 -14 1407 l 1,3,4
 177 1429 177 1429 308 1481 c 1,5,-1
 327 1469 l 1,6,7
 316 1354 316 1354 316 1008 c 2,8,-1
 316 753 l 1,9,10
 335 778 335 778 387 829.5 c 128,-1,11
 439 881 439 881 471.5 902 c 128,-1,12
 504 923 504 923 560.5 939 c 128,-1,13
 617 955 617 955 679 955 c 0,14,15
 792 955 792 955 877.5 899 c 128,-1,16
 963 843 963 843 1004.5 749.5 c 128,-1,17
 1046 656 1046 656 1046 550 c 0,18,19
 1046 449 1046 449 1011.5 358 c 128,-1,20
 977 267 977 267 930 208 c 0,21,22
 902 174 902 174 831 122 c 0,23,24
 692 21 692 21 635.5 -4.5 c 128,-1,25
 579 -30 579 -30 489 -30 c 0,26,27
 419 -30 419 -30 362 -10.5 c 128,-1,28
 305 9 305 9 244 51 c 1,29,-1
 163 -25 l 1,30,-1
 130 -12 l 1,31,32
 149 170 149 170 149 402 c 2,33,-1
 149 932 l 1,34,-1
 145 1124 l 2,35,36
 142 1234 142 1234 138.5 1278.5 c 128,-1,37
 135 1323 135 1323 129 1331 c 128,-1,38
 123 1339 123 1339 108.5 1343 c 128,-1,39
 94 1347 94 1347 -13 1347 c 1,0,-1
316 633 m 1,40,-1
 316 258 l 2,41,42
 316 211 316 211 320.5 196.5 c 128,-1,43
 325 182 325 182 360.5 152.5 c 128,-1,44
 396 123 396 123 452 101.5 c 128,-1,45
 508 80 508 80 568 80 c 0,46,47
 710 80 710 80 790.5 190 c 128,-1,48
 871 300 871 300 871 469 c 0,49,50
 871 575 871 575 837.5 656.5 c 128,-1,51
 804 738 804 738 737 781 c 128,-1,52
 670 824 670 824 586 824 c 0,53,54
 487 824 487 824 411.5 765.5 c 128,-1,55
 336 707 336 707 316 633 c 1,40,-1
EndSplineSet
Position2: "JSTF extension max at priority 3 #11 for dflt in latn subtable" dx=10 dy=0 dh=0 dv=0
Position2: "JSTF shrinkage max at priority 3 #10 for dflt in latn subtable" dx=-10 dy=0 dh=0 dv=0
Position2: "JSTF extension max at priority 3 #7 for dflt in grek subtable" dx=10 dy=0 dh=0 dv=0
Position2: "JSTF shrinkage max at priority 3 #6 for dflt in grek subtable" dx=-10 dy=0 dh=0 dv=0
Position2: "JSTF extension max at priority 3 #3 for dflt in cyrl subtable" dx=10 dy=0 dh=0 dv=0
Position2: "JSTF shrinkage max at priority 3 #2 for dflt in cyrl subtable" dx=-10 dy=0 dh=0 dv=0
Substitution2: "'smcp' Lowercase to Small Capitals in Latin lookup 14 subtable" Bsmall
Substitution2: "'smcp' Lowercase to Small Capitals in Latin lookup 13 subtable" Bsmall
Substitution2: "'subs' Subscript lookup 9 subtable" bsuperior
Substitution2: "'sinf' Scientific Inferiors lookup 8 subtable" bsuperior
EndChar

StartChar: c
Encoding: 99 99 140
Width: 909
GlyphClass: 2
Flags: W
LayerCount: 2
Fore
SplineSet
868 107 m 1,0,-1
 828 40 l 1,1,2
 699 -31 699 -31 540 -31 c 0,3,4
 320 -31 320 -31 200 100 c 128,-1,5
 80 231 80 231 80 438 c 0,6,7
 80 532 80 532 100.5 605.5 c 128,-1,8
 121 679 121 679 152.5 727 c 128,-1,9
 184 775 184 775 222 803 c 128,-1,10
 260 831 260 831 350.5 881 c 128,-1,11
 441 931 441 931 487 946.5 c 128,-1,12
 533 962 533 962 614 962 c 0,13,14
 769 962 769 962 868 903 c 1,15,16
 849 790 849 790 839 651 c 1,17,-1
 830 643 l 1,18,-1
 789 643 l 1,19,-1
 780 652 l 1,20,21
 776 736 776 736 769 765 c 128,-1,22
 762 794 762 794 689.5 827 c 128,-1,23
 617 860 617 860 535 860 c 256,24,25
 453 860 453 860 389 825.5 c 128,-1,26
 325 791 325 791 292.5 712.5 c 128,-1,27
 260 634 260 634 260 525 c 0,28,29
 260 433 260 433 286 345.5 c 128,-1,30
 312 258 312 258 354.5 200.5 c 128,-1,31
 397 143 397 143 467 108 c 128,-1,32
 537 73 537 73 623 73 c 0,33,34
 677 73 677 73 728.5 87 c 128,-1,35
 780 101 780 101 847 133 c 1,36,-1
 868 107 l 1,0,-1
EndSplineSet
Position2: "JSTF extension max at priority 3 #11 for dflt in latn subtable" dx=10 dy=0 dh=0 dv=0
Position2: "JSTF shrinkage max at priority 3 #10 for dflt in latn subtable" dx=-10 dy=0 dh=0 dv=0
Position2: "JSTF extension max at priority 3 #7 for dflt in grek subtable" dx=10 dy=0 dh=0 dv=0
Position2: "JSTF shrinkage max at priority 3 #6 for dflt in grek subtable" dx=-10 dy=0 dh=0 dv=0
Position2: "JSTF extension max at priority 3 #3 for dflt in cyrl subtable" dx=10 dy=0 dh=0 dv=0
Position2: "JSTF shrinkage max at priority 3 #2 for dflt in cyrl subtable" dx=-10 dy=0 dh=0 dv=0
Substitution2: "'smcp' Lowercase to Small Capitals in Latin lookup 14 subtable" Csmall
Substitution2: "'smcp' Lowercase to Small Capitals in Latin lookup 13 subtable" Csmall
Substitution2: "'subs' Subscript lookup 9 subtable" csuperior
Substitution2: "'sinf' Scientific Inferiors lookup 8 subtable" csuperior
EndChar

StartChar: d
Encoding: 100 100 141
Width: 1251
GlyphClass: 2
Flags: W
LayerCount: 2
Fore
SplineSet
673 1356 m 1,0,-1
 673 1398 l 1,1,-1
 681 1407 l 1,2,3
 872 1429 872 1429 1003 1481 c 1,4,-1
 1022 1469 l 1,5,6
 1011 1354 1011 1354 1011 1008 c 2,7,-1
 1011 353 l 2,8,9
 1011 252 1011 252 1014.5 176.5 c 128,-1,10
 1018 101 1018 101 1027 87 c 128,-1,11
 1036 73 1036 73 1056.5 64 c 128,-1,12
 1077 55 1077 55 1173 47 c 1,13,-1
 1182 39 l 1,14,-1
 1182 1 l 1,15,-1
 1173 -8 l 1,16,17
 1065 -1 1065 -1 1005 -1 c 0,18,19
 951 -1 951 -1 851 -8 c 1,20,-1
 840 3 l 1,21,22
 843 101 843 101 843 140 c 0,23,24
 843 145 843 145 844 178 c 1,25,26
 789 138 789 138 734 89 c 0,27,28
 653 17 653 17 628 -1 c 1,29,30
 582 -24 582 -24 497 -24 c 0,31,32
 359 -24 359 -24 262.5 44 c 128,-1,33
 166 112 166 112 125 217.5 c 128,-1,34
 84 323 84 323 84 434 c 0,35,36
 84 547 84 547 126.5 651.5 c 128,-1,37
 169 756 169 756 247.5 804 c 128,-1,38
 326 852 326 852 418.5 903.5 c 128,-1,39
 511 955 511 955 602 955 c 0,40,41
 729 955 729 955 844 892 c 1,42,-1
 840 1115 l 2,43,44
 838 1231 838 1231 834 1276.5 c 128,-1,45
 830 1322 830 1322 824 1330.5 c 128,-1,46
 818 1339 818 1339 803.5 1343 c 128,-1,47
 789 1347 789 1347 682 1347 c 1,48,-1
 673 1356 l 1,0,-1
844 721 m 1,49,50
 782 791 782 791 706.5 828 c 128,-1,51
 631 865 631 865 555 865 c 0,52,53
 471 865 471 865 398.5 819.5 c 128,-1,54
 326 774 326 774 294 684.5 c 128,-1,55
 262 595 262 595 262 490 c 0,56,57
 262 315 262 315 350.5 209 c 128,-1,58
 439 103 439 103 573 103 c 0,59,60
 646 103 646 103 702.5 136.5 c 128,-1,61
 759 170 759 170 795.5 227 c 128,-1,62
 832 284 832 284 838 341 c 128,-1,63
 844 398 844 398 844 550 c 2,64,-1
 844 721 l 1,49,50
EndSplineSet
Position2: "JSTF extension max at priority 3 #11 for dflt in latn subtable" dx=10 dy=0 dh=0 dv=0
Position2: "JSTF shrinkage max at priority 3 #10 for dflt in latn subtable" dx=-10 dy=0 dh=0 dv=0
Position2: "JSTF extension max at priority 3 #7 for dflt in grek subtable" dx=10 dy=0 dh=0 dv=0
Position2: "JSTF shrinkage max at priority 3 #6 for dflt in grek subtable" dx=-10 dy=0 dh=0 dv=0
Position2: "JSTF extension max at priority 3 #3 for dflt in cyrl subtable" dx=10 dy=0 dh=0 dv=0
Position2: "JSTF shrinkage max at priority 3 #2 for dflt in cyrl subtable" dx=-10 dy=0 dh=0 dv=0
Substitution2: "'smcp' Lowercase to Small Capitals in Latin lookup 14 subtable" Dsmall
Substitution2: "'smcp' Lowercase to Small Capitals in Latin lookup 13 subtable" Dsmall
Substitution2: "'subs' Subscript lookup 9 subtable" dsuperior
Substitution2: "'sinf' Scientific Inferiors lookup 8 subtable" dsuperior
EndChar

StartChar: e
Encoding: 101 101 142
Width: 981
GlyphClass: 2
Flags: W
AnchorPoint: "Anchor-4" 510 -60 basechar 0 46
AnchorPoint: "Anchor-3" 522 1016 basechar 0 45
LayerCount: 2
Fore
SplineSet
884 147 m 1,0,-1
 852 75 l 1,1,2
 748 8 748 8 666.5 -12 c 128,-1,3
 585 -32 585 -32 521 -32 c 0,4,5
 401 -32 401 -32 293.5 15 c 128,-1,6
 186 62 186 62 118.5 174 c 128,-1,7
 51 286 51 286 51 444 c 0,8,9
 51 549 51 549 77 633.5 c 128,-1,10
 103 718 103 718 131.5 759 c 128,-1,11
 160 800 160 800 228 850 c 128,-1,12
 296 900 296 900 372 930 c 128,-1,13
 448 960 448 960 536 960 c 0,14,15
 656 960 656 960 747.5 903.5 c 128,-1,16
 839 847 839 847 876 759 c 128,-1,17
 913 671 913 671 913 572 c 0,18,19
 913 541 913 541 910 512 c 1,20,-1
 899 501 l 1,21,22
 831 486 831 486 716 481 c 128,-1,23
 601 476 601 476 564 476 c 2,24,-1
 243 476 l 1,25,26
 245 269 245 269 347 171 c 128,-1,27
 449 73 449 73 597 73 c 0,28,29
 667 73 667 73 731.5 97 c 128,-1,30
 796 121 796 121 868 164 c 1,31,-1
 884 147 l 1,0,-1
243 556 m 1,32,33
 261 553 261 553 381.5 549 c 128,-1,34
 502 545 502 545 560 545 c 0,35,36
 699 545 699 545 729 550 c 1,37,38
 730 574 730 574 730 587 c 0,39,40
 730 742 730 742 667 817.5 c 128,-1,41
 604 893 604 893 495 893 c 0,42,43
 376 893 376 893 309.5 808 c 128,-1,44
 243 723 243 723 243 556 c 1,32,33
522 1016 m 0,45,-1
510 -60 m 0,46,-1
EndSplineSet
Position2: "JSTF extension max at priority 3 #11 for dflt in latn subtable" dx=10 dy=0 dh=0 dv=0
Position2: "JSTF shrinkage max at priority 3 #10 for dflt in latn subtable" dx=-10 dy=0 dh=0 dv=0
Position2: "JSTF extension max at priority 3 #7 for dflt in grek subtable" dx=10 dy=0 dh=0 dv=0
Position2: "JSTF shrinkage max at priority 3 #6 for dflt in grek subtable" dx=-10 dy=0 dh=0 dv=0
Position2: "JSTF extension max at priority 3 #3 for dflt in cyrl subtable" dx=10 dy=0 dh=0 dv=0
Position2: "JSTF shrinkage max at priority 3 #2 for dflt in cyrl subtable" dx=-10 dy=0 dh=0 dv=0
Substitution2: "'smcp' Lowercase to Small Capitals in Latin lookup 14 subtable" Esmall
Substitution2: "'smcp' Lowercase to Small Capitals in Latin lookup 13 subtable" Esmall
Substitution2: "'subs' Subscript lookup 9 subtable" esuperior
Substitution2: "'sinf' Scientific Inferiors lookup 8 subtable" esuperior
EndChar

StartChar: f
Encoding: 102 102 143
Width: 682
GlyphClass: 2
Flags: W
LayerCount: 2
Fore
SplineSet
576 51 m 1,0,-1
 584 43 l 1,1,-1
 584 1 l 1,2,-1
 576 -8 l 1,3,4
 545 -8 545 -8 459 -4 c 0,5,6
 381 0 381 0 298 0 c 0,7,8
 190 0 190 0 57 -8 c 1,9,-1
 49 1 l 1,10,-1
 49 43 l 1,11,-1
 57 51 l 1,12,13
 154 57 154 57 167 60 c 128,-1,14
 180 63 180 63 189 72.5 c 128,-1,15
 198 82 198 82 201.5 101.5 c 128,-1,16
 205 121 205 121 209.5 230.5 c 128,-1,17
 214 340 214 340 214 396 c 2,18,-1
 214 782 l 1,19,-1
 85 775 l 1,20,-1
 76 783 l 1,21,-1
 76 808 l 1,22,-1
 83 818 l 1,23,-1
 214 885 l 1,24,-1
 214 945 l 2,25,26
 214 1045 214 1045 223 1096.5 c 128,-1,27
 232 1148 232 1148 256.5 1191.5 c 128,-1,28
 281 1235 281 1235 342 1301.5 c 128,-1,29
 403 1368 403 1368 449 1410.5 c 128,-1,30
 495 1453 495 1453 529 1467.5 c 128,-1,31
 563 1482 563 1482 609 1482 c 0,32,33
 647 1482 647 1482 691 1467 c 1,34,-1
 690 1303 l 1,35,-1
 667 1294 l 1,36,37
 611 1344 611 1344 537 1344 c 0,38,39
 485 1344 485 1344 447 1322.5 c 128,-1,40
 409 1301 409 1301 395 1252.5 c 128,-1,41
 381 1204 381 1204 381 1092 c 2,42,-1
 381 885 l 1,43,-1
 488 885 l 2,44,45
 571 885 571 885 645 891 c 1,46,-1
 654 880 l 1,47,-1
 636 792 l 1,48,-1
 627 782 l 1,49,50
 597 783 597 783 588 783 c 2,51,-1
 458 784 l 1,52,-1
 381 784 l 1,53,-1
 381 381 l 2,54,55
 381 349 381 349 385.5 234.5 c 128,-1,56
 390 120 390 120 394 100 c 128,-1,57
 398 80 398 80 407.5 71 c 128,-1,58
 417 62 417 62 438.5 58 c 128,-1,59
 460 54 460 54 576 51 c 1,0,-1
EndSplineSet
Position2: "JSTF extension max at priority 3 #11 for dflt in latn subtable" dx=10 dy=0 dh=0 dv=0
Position2: "JSTF shrinkage max at priority 3 #10 for dflt in latn subtable" dx=-10 dy=0 dh=0 dv=0
Position2: "JSTF extension max at priority 3 #7 for dflt in grek subtable" dx=10 dy=0 dh=0 dv=0
Position2: "JSTF shrinkage max at priority 3 #6 for dflt in grek subtable" dx=-10 dy=0 dh=0 dv=0
Position2: "JSTF extension max at priority 3 #3 for dflt in cyrl subtable" dx=10 dy=0 dh=0 dv=0
Position2: "JSTF shrinkage max at priority 3 #2 for dflt in cyrl subtable" dx=-10 dy=0 dh=0 dv=0
Substitution2: "'smcp' Lowercase to Small Capitals in Latin lookup 14 subtable" Fsmall
Substitution2: "'smcp' Lowercase to Small Capitals in Latin lookup 13 subtable" Fsmall
Substitution2: "'subs' Subscript lookup 9 subtable" fsuperior
Substitution2: "'sinf' Scientific Inferiors lookup 8 subtable" fsuperior
EndChar

StartChar: g
Encoding: 103 103 144
Width: 1139
GlyphClass: 2
Flags: W
LayerCount: 2
Fore
SplineSet
1103 884 m 1,0,-1
 1111 866 l 1,1,2
 1070 803 1070 803 1060 784 c 1,3,-1
 874 784 l 1,4,5
 902 729 902 729 902 669 c 0,6,7
 902 598 902 598 869.5 531 c 128,-1,8
 837 464 837 464 779 417 c 128,-1,9
 721 370 721 370 647.5 342 c 128,-1,10
 574 314 574 314 480 314 c 2,11,-1
 434 314 l 1,12,13
 375 267 375 267 358 244 c 128,-1,14
 341 221 341 221 341 197 c 0,15,16
 341 153 341 153 381.5 135 c 128,-1,17
 422 117 422 117 549 117 c 1,18,-1
 773 120 l 1,19,20
 879 120 879 120 935.5 95 c 128,-1,21
 992 70 992 70 1027 5.5 c 128,-1,22
 1062 -59 1062 -59 1062 -131 c 0,23,24
 1062 -241 1062 -241 990.5 -350.5 c 128,-1,25
 919 -460 919 -460 784 -517 c 128,-1,26
 649 -574 649 -574 496 -574 c 0,27,28
 409 -574 409 -574 332.5 -555 c 128,-1,29
 256 -536 256 -536 198.5 -497.5 c 128,-1,30
 141 -459 141 -459 106 -397 c 128,-1,31
 71 -335 71 -335 71 -268 c 0,32,33
 71 -231 71 -231 82 -190.5 c 128,-1,34
 93 -150 93 -150 124 -103 c 1,35,-1
 305 -2 l 1,36,37
 218 25 218 25 195.5 51.5 c 128,-1,38
 173 78 173 78 173 115 c 0,39,40
 173 153 173 153 198 205 c 1,41,-1
 359 321 l 1,42,43
 217 358 217 358 167.5 432 c 128,-1,44
 118 506 118 506 118 594 c 0,45,46
 118 675 118 675 153 748.5 c 128,-1,47
 188 822 188 822 258.5 866 c 128,-1,48
 329 910 329 910 416.5 935.5 c 128,-1,49
 504 961 504 961 576 961 c 0,50,51
 701 961 701 961 814 880 c 1,52,53
 995 880 995 880 1103 884 c 1,0,-1
290 652 m 0,54,55
 290 591 290 591 314 521 c 128,-1,56
 338 451 338 451 391.5 415 c 128,-1,57
 445 379 445 379 512 379 c 0,58,59
 601 379 601 379 665.5 437 c 128,-1,60
 730 495 730 495 730 618 c 0,61,62
 730 722 730 722 671 805 c 128,-1,63
 612 888 612 888 504 888 c 0,64,65
 413 888 413 888 351.5 828.5 c 128,-1,66
 290 769 290 769 290 652 c 0,54,55
583 -19 m 0,67,68
 422 -19 422 -19 397.5 -23 c 128,-1,69
 373 -27 373 -27 328 -57 c 128,-1,70
 283 -87 283 -87 254.5 -138.5 c 128,-1,71
 226 -190 226 -190 226 -254 c 0,72,73
 226 -367 226 -367 310 -438 c 128,-1,74
 394 -509 394 -509 534 -509 c 0,75,76
 639 -509 639 -509 728 -465 c 128,-1,77
 817 -421 817 -421 859.5 -347 c 128,-1,78
 902 -273 902 -273 902 -205 c 256,79,80
 902 -137 902 -137 866.5 -88.5 c 128,-1,81
 831 -40 831 -40 774.5 -29.5 c 128,-1,82
 718 -19 718 -19 583 -19 c 0,67,68
EndSplineSet
Position2: "JSTF extension max at priority 3 #11 for dflt in latn subtable" dx=10 dy=0 dh=0 dv=0
Position2: "JSTF shrinkage max at priority 3 #10 for dflt in latn subtable" dx=-10 dy=0 dh=0 dv=0
Position2: "JSTF extension max at priority 3 #7 for dflt in grek subtable" dx=10 dy=0 dh=0 dv=0
Position2: "JSTF shrinkage max at priority 3 #6 for dflt in grek subtable" dx=-10 dy=0 dh=0 dv=0
Position2: "JSTF extension max at priority 3 #3 for dflt in cyrl subtable" dx=10 dy=0 dh=0 dv=0
Position2: "JSTF shrinkage max at priority 3 #2 for dflt in cyrl subtable" dx=-10 dy=0 dh=0 dv=0
Substitution2: "'smcp' Lowercase to Small Capitals in Latin lookup 14 subtable" Gsmall
Substitution2: "'smcp' Lowercase to Small Capitals in Latin lookup 13 subtable" Gsmall
Substitution2: "'subs' Subscript lookup 9 subtable" gsuperior
Substitution2: "'sinf' Scientific Inferiors lookup 8 subtable" gsuperior
EndChar

StartChar: h
Encoding: 104 104 145
Width: 1192
GlyphClass: 2
Flags: W
LayerCount: 2
Fore
SplineSet
340 1481 m 1,0,-1
 359 1469 l 1,1,2
 348 1354 348 1354 348 1008 c 2,3,-1
 348 761 l 1,4,5
 432 830 432 830 504 898 c 0,6,7
 525 917 525 917 544 926 c 128,-1,8
 563 935 563 935 605.5 945 c 128,-1,9
 648 955 648 955 693 955 c 0,10,11
 769 955 769 955 840.5 924 c 128,-1,12
 912 893 912 893 948.5 850.5 c 128,-1,13
 985 808 985 808 999 750 c 128,-1,14
 1013 692 1013 692 1013 607 c 2,15,-1
 1013 431 l 2,16,17
 1013 414 1013 414 1018 182 c 0,18,19
 1021 87 1021 87 1039.5 69 c 128,-1,20
 1058 51 1058 51 1163 51 c 1,21,-1
 1171 43 l 1,22,-1
 1171 0 l 1,23,-1
 1163 -8 l 1,24,25
 1036 0 1036 0 991 0 c 0,26,27
 968 0 968 0 845 -8 c 1,28,-1
 833 3 l 1,29,30
 846 133 846 133 846 342 c 2,31,-1
 846 473 l 2,32,33
 846 591 846 591 840.5 643 c 128,-1,34
 835 695 835 695 807 737.5 c 128,-1,35
 779 780 779 780 732.5 803.5 c 128,-1,36
 686 827 686 827 620 827 c 0,37,38
 552 827 552 827 506.5 808.5 c 128,-1,39
 461 790 461 790 414 746 c 128,-1,40
 367 702 367 702 357.5 672.5 c 128,-1,41
 348 643 348 643 348 559 c 2,42,-1
 348 381 l 2,43,44
 348 359 348 359 352 239.5 c 128,-1,45
 356 120 356 120 360.5 100 c 128,-1,46
 365 80 365 80 374 71 c 128,-1,47
 383 62 383 62 396 59.5 c 128,-1,48
 409 57 409 57 504 51 c 1,49,-1
 513 43 l 1,50,-1
 513 1 l 1,51,-1
 505 -8 l 1,52,53
 380 0 380 0 264 0 c 0,54,55
 149 0 149 0 24 -8 c 1,56,-1
 15 1 l 1,57,-1
 15 43 l 1,58,-1
 24 51 l 1,59,60
 121 57 121 57 133.5 60 c 128,-1,61
 146 63 146 63 155.5 72.5 c 128,-1,62
 165 82 165 82 168.5 101.5 c 128,-1,63
 172 121 172 121 176.5 230.5 c 128,-1,64
 181 340 181 340 181 396 c 2,65,-1
 181 914 l 1,66,-1
 177 1126 l 2,67,68
 174 1237 174 1237 170.5 1280 c 128,-1,69
 167 1323 167 1323 161 1331 c 128,-1,70
 155 1339 155 1339 140 1343 c 128,-1,71
 125 1347 125 1347 19 1347 c 1,72,-1
 10 1356 l 1,73,-1
 10 1398 l 1,74,-1
 18 1407 l 1,75,76
 209 1429 209 1429 340 1481 c 1,0,-1
EndSplineSet
Position2: "JSTF extension max at priority 3 #11 for dflt in latn subtable" dx=10 dy=0 dh=0 dv=0
Position2: "JSTF shrinkage max at priority 3 #10 for dflt in latn subtable" dx=-10 dy=0 dh=0 dv=0
Position2: "JSTF extension max at priority 3 #7 for dflt in grek subtable" dx=10 dy=0 dh=0 dv=0
Position2: "JSTF shrinkage max at priority 3 #6 for dflt in grek subtable" dx=-10 dy=0 dh=0 dv=0
Position2: "JSTF extension max at priority 3 #3 for dflt in cyrl subtable" dx=10 dy=0 dh=0 dv=0
Position2: "JSTF shrinkage max at priority 3 #2 for dflt in cyrl subtable" dx=-10 dy=0 dh=0 dv=0
Substitution2: "'smcp' Lowercase to Small Capitals in Latin lookup 14 subtable" Hsmall
Substitution2: "'smcp' Lowercase to Small Capitals in Latin lookup 13 subtable" Hsmall
Substitution2: "'subs' Subscript lookup 9 subtable" hsuperior
Substitution2: "'sinf' Scientific Inferiors lookup 8 subtable" hsuperior
EndChar

StartChar: i
Encoding: 105 105 146
Width: 596
GlyphClass: 2
Flags: W
AnchorPoint: "Anchor-6" 295 -60 basechar 0 50
LayerCount: 2
Fore
SplineSet
288 1400 m 0,0,1
 335 1400 335 1400 368 1367 c 128,-1,2
 401 1334 401 1334 401 1287 c 0,3,4
 401 1241 401 1241 368 1208 c 128,-1,5
 335 1175 335 1175 288 1175 c 0,6,7
 242 1175 242 1175 208.5 1207.5 c 128,-1,8
 175 1240 175 1240 175 1287 c 256,9,10
 175 1334 175 1334 208.5 1367 c 128,-1,11
 242 1400 242 1400 288 1400 c 0,0,1
373 953 m 1,12,-1
 392 940 l 1,13,14
 381 809 381 809 381 607 c 2,15,-1
 381 381 l 2,16,17
 381 359 381 359 385 239.5 c 128,-1,18
 389 120 389 120 393.5 100 c 128,-1,19
 398 80 398 80 407 71 c 128,-1,20
 416 62 416 62 429 59.5 c 128,-1,21
 442 57 442 57 537 51 c 1,22,-1
 546 43 l 1,23,-1
 546 1 l 1,24,-1
 538 -8 l 1,25,26
 413 0 413 0 297 0 c 0,27,28
 182 0 182 0 57 -8 c 1,29,-1
 48 1 l 1,30,-1
 48 43 l 1,31,-1
 57 51 l 1,32,33
 154 57 154 57 166.5 60 c 128,-1,34
 179 63 179 63 188.5 72.5 c 128,-1,35
 198 82 198 82 201.5 101.5 c 128,-1,36
 205 121 205 121 209.5 230.5 c 128,-1,37
 214 340 214 340 214 396 c 2,38,-1
 214 593 l 2,39,40
 214 633 214 633 210 702 c 128,-1,41
 206 771 206 771 203.5 787 c 128,-1,42
 201 803 201 803 188 810.5 c 128,-1,43
 175 818 175 818 136 818 c 2,44,-1
 52 819 l 1,45,-1
 43 827 l 1,46,-1
 43 870 l 1,47,-1
 51 878 l 1,48,49
 242 901 242 901 373 953 c 1,12,-1
295 -60 m 0,50,-1
EndSplineSet
Position2: "JSTF extension max at priority 3 #11 for dflt in latn subtable" dx=10 dy=0 dh=0 dv=0
Position2: "JSTF shrinkage max at priority 3 #10 for dflt in latn subtable" dx=-10 dy=0 dh=0 dv=0
Position2: "JSTF extension max at priority 3 #7 for dflt in grek subtable" dx=10 dy=0 dh=0 dv=0
Position2: "JSTF shrinkage max at priority 3 #6 for dflt in grek subtable" dx=-10 dy=0 dh=0 dv=0
Position2: "JSTF extension max at priority 3 #3 for dflt in cyrl subtable" dx=10 dy=0 dh=0 dv=0
Position2: "JSTF shrinkage max at priority 3 #2 for dflt in cyrl subtable" dx=-10 dy=0 dh=0 dv=0
Substitution2: "'smcp' Lowercase to Small Capitals in Latin lookup 14 subtable" Idotaccentsmall
Substitution2: "'smcp' Lowercase to Small Capitals in Latin lookup 13 subtable" Ismall
Substitution2: "'subs' Subscript lookup 9 subtable" isuperior
Substitution2: "'sinf' Scientific Inferiors lookup 8 subtable" isuperior
EndChar

StartChar: j
Encoding: 106 106 147
Width: 479
GlyphClass: 2
Flags: W
LayerCount: 2
Fore
SplineSet
242 1400 m 0,0,1
 288 1400 288 1400 321 1367.5 c 128,-1,2
 354 1335 354 1335 354 1287 c 0,3,4
 354 1241 354 1241 321 1208 c 128,-1,5
 288 1175 288 1175 242 1175 c 0,6,7
 195 1175 195 1175 162 1208 c 128,-1,8
 129 1241 129 1241 129 1287 c 0,9,10
 129 1334 129 1334 162 1367 c 128,-1,11
 195 1400 195 1400 242 1400 c 0,0,1
-9 870 m 1,12,-1
 0 878 l 1,13,14
 190 901 190 901 322 953 c 1,15,-1
 340 940 l 1,16,17
 329 809 329 809 329 573 c 2,18,-1
 329 389 l 1,19,-1
 332 70 l 1,20,21
 332 -95 332 -95 305 -235 c 128,-1,22
 278 -375 278 -375 184 -474.5 c 128,-1,23
 90 -574 90 -574 -33 -574 c 0,24,25
 -40 -574 -40 -574 -54 -573 c 1,26,-1
 -64 -516 l 1,27,-1
 -55 -503 l 1,28,29
 -33 -505 -33 -505 -20 -505 c 0,30,31
 13 -505 13 -505 45 -486.5 c 128,-1,32
 77 -468 77 -468 103 -429 c 128,-1,33
 129 -390 129 -390 141 -332.5 c 128,-1,34
 153 -275 153 -275 157.5 -152.5 c 128,-1,35
 162 -30 162 -30 162 11 c 2,36,-1
 162 593 l 2,37,38
 162 633 162 633 158.5 701.5 c 128,-1,39
 155 770 155 770 152 787 c 128,-1,40
 149 804 149 804 135.5 811 c 128,-1,41
 122 818 122 818 85 818 c 2,42,-1
 0 819 l 1,43,-1
 -9 827 l 1,44,-1
 -9 870 l 1,12,-1
EndSplineSet
Position2: "JSTF extension max at priority 3 #11 for dflt in latn subtable" dx=10 dy=0 dh=0 dv=0
Position2: "JSTF shrinkage max at priority 3 #10 for dflt in latn subtable" dx=-10 dy=0 dh=0 dv=0
Position2: "JSTF extension max at priority 3 #7 for dflt in grek subtable" dx=10 dy=0 dh=0 dv=0
Position2: "JSTF shrinkage max at priority 3 #6 for dflt in grek subtable" dx=-10 dy=0 dh=0 dv=0
Position2: "JSTF extension max at priority 3 #3 for dflt in cyrl subtable" dx=10 dy=0 dh=0 dv=0
Position2: "JSTF shrinkage max at priority 3 #2 for dflt in cyrl subtable" dx=-10 dy=0 dh=0 dv=0
Substitution2: "'smcp' Lowercase to Small Capitals in Latin lookup 14 subtable" Jsmall
Substitution2: "'smcp' Lowercase to Small Capitals in Latin lookup 13 subtable" Jsmall
Substitution2: "'subs' Subscript lookup 9 subtable" jsuperior
Substitution2: "'sinf' Scientific Inferiors lookup 8 subtable" jsuperior
EndChar

StartChar: k
Encoding: 107 107 148
Width: 1139
GlyphClass: 2
Flags: W
LayerCount: 2
Fore
SplineSet
364 1481 m 1,0,-1
 383 1469 l 1,1,2
 372 1354 372 1354 372 1008 c 2,3,-1
 372 539 l 1,4,5
 406 559 406 559 506 639.5 c 128,-1,6
 606 720 606 720 717.5 823.5 c 128,-1,7
 829 927 829 927 832 936 c 1,8,9
 917 933 917 933 934 933 c 0,10,11
 957 933 957 933 1027 936 c 1,12,-1
 1036 927 l 1,13,-1
 1036 888 l 1,14,-1
 1028 879 l 1,15,16
 978 876 978 876 951.5 866 c 128,-1,17
 925 856 925 856 843.5 800 c 128,-1,18
 762 744 762 744 651 653 c 2,19,-1
 554 574 l 1,20,21
 607 512 607 512 739.5 379.5 c 128,-1,22
 872 247 872 247 954 174 c 128,-1,23
 1036 101 1036 101 1061 90.5 c 128,-1,24
 1086 80 1086 80 1114 80 c 1,25,-1
 1114 37 l 1,26,27
 1077 30 1077 30 923 -24 c 1,28,29
 819 66 819 66 791 95 c 2,30,-1
 717 171 l 1,31,-1
 629 260 l 2,32,33
 588 301 588 301 519 364 c 2,34,-1
 372 500 l 1,35,-1
 372 381 l 2,36,37
 372 359 372 359 376 239.5 c 128,-1,38
 380 120 380 120 384.5 100 c 128,-1,39
 389 80 389 80 398 71 c 128,-1,40
 407 62 407 62 420 59.5 c 128,-1,41
 433 57 433 57 528 51 c 1,42,-1
 537 43 l 1,43,-1
 537 1 l 1,44,-1
 529 -8 l 1,45,46
 404 0 404 0 288 0 c 0,47,48
 173 0 173 0 48 -8 c 1,49,-1
 39 1 l 1,50,-1
 39 43 l 1,51,-1
 48 51 l 1,52,53
 145 57 145 57 157.5 60 c 128,-1,54
 170 63 170 63 179.5 72.5 c 128,-1,55
 189 82 189 82 192.5 101.5 c 128,-1,56
 196 121 196 121 200.5 230.5 c 128,-1,57
 205 340 205 340 205 396 c 2,58,-1
 205 914 l 1,59,-1
 201 1126 l 2,60,61
 198 1237 198 1237 194.5 1280 c 128,-1,62
 191 1323 191 1323 185 1331 c 128,-1,63
 179 1339 179 1339 164 1343 c 128,-1,64
 149 1347 149 1347 43 1347 c 1,65,-1
 34 1356 l 1,66,-1
 34 1398 l 1,67,-1
 42 1407 l 1,68,69
 233 1429 233 1429 364 1481 c 1,0,-1
EndSplineSet
Position2: "JSTF extension max at priority 3 #11 for dflt in latn subtable" dx=10 dy=0 dh=0 dv=0
Position2: "JSTF shrinkage max at priority 3 #10 for dflt in latn subtable" dx=-10 dy=0 dh=0 dv=0
Position2: "JSTF extension max at priority 3 #7 for dflt in grek subtable" dx=10 dy=0 dh=0 dv=0
Position2: "JSTF shrinkage max at priority 3 #6 for dflt in grek subtable" dx=-10 dy=0 dh=0 dv=0
Position2: "JSTF extension max at priority 3 #3 for dflt in cyrl subtable" dx=10 dy=0 dh=0 dv=0
Position2: "JSTF shrinkage max at priority 3 #2 for dflt in cyrl subtable" dx=-10 dy=0 dh=0 dv=0
Substitution2: "'smcp' Lowercase to Small Capitals in Latin lookup 14 subtable" Ksmall
Substitution2: "'smcp' Lowercase to Small Capitals in Latin lookup 13 subtable" Ksmall
Substitution2: "'subs' Subscript lookup 9 subtable" ksuperior
Substitution2: "'sinf' Scientific Inferiors lookup 8 subtable" ksuperior
EndChar

StartChar: l
Encoding: 108 108 149
Width: 596
GlyphClass: 2
Flags: W
LayerCount: 2
Fore
SplineSet
374 1481 m 1,0,-1
 393 1469 l 1,1,2
 382 1354 382 1354 382 1008 c 2,3,-1
 382 381 l 2,4,5
 382 359 382 359 386 239.5 c 128,-1,6
 390 120 390 120 394.5 100 c 128,-1,7
 399 80 399 80 408 71 c 128,-1,8
 417 62 417 62 430 59.5 c 128,-1,9
 443 57 443 57 538 51 c 1,10,-1
 547 43 l 1,11,-1
 547 1 l 1,12,-1
 539 -8 l 1,13,14
 414 0 414 0 298 0 c 0,15,16
 183 0 183 0 58 -8 c 1,17,-1
 49 1 l 1,18,-1
 49 43 l 1,19,-1
 58 51 l 1,20,21
 155 57 155 57 167.5 60 c 128,-1,22
 180 63 180 63 189.5 72.5 c 128,-1,23
 199 82 199 82 202.5 101.5 c 128,-1,24
 206 121 206 121 210.5 230.5 c 128,-1,25
 215 340 215 340 215 396 c 2,26,-1
 215 914 l 1,27,-1
 211 1126 l 2,28,29
 208 1237 208 1237 204.5 1280 c 128,-1,30
 201 1323 201 1323 195 1331 c 128,-1,31
 189 1339 189 1339 174 1343 c 128,-1,32
 159 1347 159 1347 53 1347 c 1,33,-1
 44 1356 l 1,34,-1
 44 1398 l 1,35,-1
 52 1407 l 1,36,37
 243 1429 243 1429 374 1481 c 1,0,-1
EndSplineSet
Position2: "JSTF extension max at priority 3 #11 for dflt in latn subtable" dx=10 dy=0 dh=0 dv=0
Position2: "JSTF shrinkage max at priority 3 #10 for dflt in latn subtable" dx=-10 dy=0 dh=0 dv=0
Position2: "JSTF extension max at priority 3 #7 for dflt in grek subtable" dx=10 dy=0 dh=0 dv=0
Position2: "JSTF shrinkage max at priority 3 #6 for dflt in grek subtable" dx=-10 dy=0 dh=0 dv=0
Position2: "JSTF extension max at priority 3 #3 for dflt in cyrl subtable" dx=10 dy=0 dh=0 dv=0
Position2: "JSTF shrinkage max at priority 3 #2 for dflt in cyrl subtable" dx=-10 dy=0 dh=0 dv=0
Substitution2: "'smcp' Lowercase to Small Capitals in Latin lookup 14 subtable" Lsmall
Substitution2: "'smcp' Lowercase to Small Capitals in Latin lookup 13 subtable" Lsmall
Substitution2: "'subs' Subscript lookup 9 subtable" lsuperior
Substitution2: "'sinf' Scientific Inferiors lookup 8 subtable" lsuperior
EndChar

StartChar: m
Encoding: 109 109 150
Width: 1808
GlyphClass: 2
Flags: W
LayerCount: 2
Fore
SplineSet
368 953 m 1,0,-1
 387 940 l 1,1,2
 381 874 381 874 379 782 c 1,3,-1
 474 869 l 2,4,5
 514 906 514 906 527 916.5 c 128,-1,6
 540 927 540 927 588 941 c 128,-1,7
 636 955 636 955 689 955 c 0,8,9
 789 955 789 955 864 905.5 c 128,-1,10
 939 856 939 856 975 769 c 1,11,12
 1110 897 1110 897 1132.5 911 c 128,-1,13
 1155 925 1155 925 1204 939.5 c 128,-1,14
 1253 954 1253 954 1302 954 c 0,15,16
 1381 954 1381 954 1447 920 c 128,-1,17
 1513 886 1513 886 1552 831 c 128,-1,18
 1591 776 1591 776 1597.5 712 c 128,-1,19
 1604 648 1604 648 1604 536 c 2,20,-1
 1604 431 l 2,21,22
 1604 414 1604 414 1610 182 c 0,23,24
 1612 87 1612 87 1631 69 c 128,-1,25
 1650 51 1650 51 1754 51 c 1,26,-1
 1762 43 l 1,27,-1
 1762 0 l 1,28,-1
 1754 -8 l 1,29,30
 1627 0 1627 0 1582 0 c 0,31,32
 1557 0 1557 0 1437 -8 c 1,33,-1
 1424 3 l 1,34,35
 1437 133 1437 133 1437 342 c 2,36,-1
 1437 462 l 2,37,38
 1437 621 1437 621 1422 684.5 c 128,-1,39
 1407 748 1407 748 1352 788.5 c 128,-1,40
 1297 829 1297 829 1221 829 c 0,41,42
 1167 829 1167 829 1120 807.5 c 128,-1,43
 1073 786 1073 786 1035.5 743.5 c 128,-1,44
 998 701 998 701 994 664.5 c 128,-1,45
 990 628 990 628 990 530 c 2,46,-1
 990 405 l 2,47,48
 990 361 990 361 994 240 c 128,-1,49
 998 119 998 119 1002.5 99 c 128,-1,50
 1007 79 1007 79 1016.5 70.5 c 128,-1,51
 1026 62 1026 62 1038.5 59.5 c 128,-1,52
 1051 57 1051 57 1146 51 c 1,53,-1
 1155 43 l 1,54,-1
 1155 1 l 1,55,-1
 1147 -8 l 1,56,57
 1022 0 1022 0 906 0 c 0,58,59
 799 0 799 0 666 -8 c 1,60,-1
 657 1 l 1,61,-1
 657 43 l 1,62,-1
 666 51 l 1,63,64
 763 57 763 57 775.5 60 c 128,-1,65
 788 63 788 63 797.5 72.5 c 128,-1,66
 807 82 807 82 810.5 101.5 c 128,-1,67
 814 121 814 121 818.5 230.5 c 128,-1,68
 823 340 823 340 823 396 c 2,69,-1
 823 510 l 2,70,71
 823 623 823 623 807.5 684 c 128,-1,72
 792 745 792 745 741 787 c 128,-1,73
 690 829 690 829 613 829 c 0,74,75
 553 829 553 829 503.5 805.5 c 128,-1,76
 454 782 454 782 422.5 747.5 c 128,-1,77
 391 713 391 713 383.5 683 c 128,-1,78
 376 653 376 653 376 553 c 2,79,-1
 376 405 l 2,80,81
 376 361 376 361 380 240 c 128,-1,82
 384 119 384 119 388.5 99 c 128,-1,83
 393 79 393 79 402.5 70.5 c 128,-1,84
 412 62 412 62 424.5 59.5 c 128,-1,85
 437 57 437 57 532 51 c 1,86,-1
 541 43 l 1,87,-1
 541 1 l 1,88,-1
 533 -8 l 1,89,90
 408 0 408 0 292 0 c 0,91,92
 177 0 177 0 52 -8 c 1,93,-1
 43 1 l 1,94,-1
 43 43 l 1,95,-1
 52 51 l 1,96,97
 149 57 149 57 161.5 60 c 128,-1,98
 174 63 174 63 183.5 72.5 c 128,-1,99
 193 82 193 82 196.5 101.5 c 128,-1,100
 200 121 200 121 204.5 230.5 c 128,-1,101
 209 340 209 340 209 396 c 2,102,-1
 209 593 l 2,103,104
 209 633 209 633 205 702 c 128,-1,105
 201 771 201 771 198.5 787 c 128,-1,106
 196 803 196 803 183 810.5 c 128,-1,107
 170 818 170 818 131 818 c 2,108,-1
 47 819 l 1,109,-1
 38 827 l 1,110,-1
 38 870 l 1,111,-1
 46 878 l 1,112,113
 237 901 237 901 368 953 c 1,0,-1
EndSplineSet
Position2: "JSTF extension max at priority 3 #11 for dflt in latn subtable" dx=10 dy=0 dh=0 dv=0
Position2: "JSTF shrinkage max at priority 3 #10 for dflt in latn subtable" dx=-10 dy=0 dh=0 dv=0
Position2: "JSTF extension max at priority 3 #7 for dflt in grek subtable" dx=10 dy=0 dh=0 dv=0
Position2: "JSTF shrinkage max at priority 3 #6 for dflt in grek subtable" dx=-10 dy=0 dh=0 dv=0
Position2: "JSTF extension max at priority 3 #3 for dflt in cyrl subtable" dx=10 dy=0 dh=0 dv=0
Position2: "JSTF shrinkage max at priority 3 #2 for dflt in cyrl subtable" dx=-10 dy=0 dh=0 dv=0
Substitution2: "'smcp' Lowercase to Small Capitals in Latin lookup 14 subtable" Msmall
Substitution2: "'smcp' Lowercase to Small Capitals in Latin lookup 13 subtable" Msmall
Substitution2: "'subs' Subscript lookup 9 subtable" msuperior
Substitution2: "'sinf' Scientific Inferiors lookup 8 subtable" msuperior
EndChar

StartChar: n
Encoding: 110 110 151
Width: 1192
GlyphClass: 2
Flags: W
LayerCount: 2
Fore
SplineSet
342 953 m 1,0,-1
 361 940 l 1,1,2
 355 873 355 873 353 764 c 1,3,4
 433 830 433 830 505 898 c 0,5,6
 526 917 526 917 544.5 926 c 128,-1,7
 563 935 563 935 606 945 c 128,-1,8
 649 955 649 955 694 955 c 0,9,10
 770 955 770 955 841.5 924 c 128,-1,11
 913 893 913 893 949.5 850.5 c 128,-1,12
 986 808 986 808 1000 750 c 128,-1,13
 1014 692 1014 692 1014 607 c 2,14,-1
 1014 431 l 2,15,16
 1014 414 1014 414 1019 182 c 0,17,18
 1021 87 1021 87 1040 69 c 128,-1,19
 1059 51 1059 51 1164 51 c 1,20,-1
 1172 43 l 1,21,-1
 1172 0 l 1,22,-1
 1164 -8 l 1,23,24
 1037 0 1037 0 992 0 c 0,25,26
 966 0 966 0 846 -8 c 1,27,-1
 834 3 l 1,28,29
 847 133 847 133 847 342 c 2,30,-1
 847 473 l 2,31,32
 847 591 847 591 841.5 643 c 128,-1,33
 836 695 836 695 808 737.5 c 128,-1,34
 780 780 780 780 733 803.5 c 128,-1,35
 686 827 686 827 621 827 c 0,36,37
 569 827 569 827 532 816.5 c 128,-1,38
 495 806 495 806 449 773.5 c 128,-1,39
 403 741 403 741 381 712.5 c 128,-1,40
 359 684 359 684 354.5 659.5 c 128,-1,41
 350 635 350 635 350 555 c 2,42,-1
 350 381 l 2,43,44
 350 359 350 359 354 239.5 c 128,-1,45
 358 120 358 120 362.5 100 c 128,-1,46
 367 80 367 80 376 71 c 128,-1,47
 385 62 385 62 398 59.5 c 128,-1,48
 411 57 411 57 506 51 c 1,49,-1
 515 43 l 1,50,-1
 515 1 l 1,51,-1
 507 -8 l 1,52,53
 382 0 382 0 266 0 c 0,54,55
 151 0 151 0 26 -8 c 1,56,-1
 17 1 l 1,57,-1
 17 43 l 1,58,-1
 26 51 l 1,59,60
 123 57 123 57 135.5 60 c 128,-1,61
 148 63 148 63 157.5 72.5 c 128,-1,62
 167 82 167 82 170.5 101.5 c 128,-1,63
 174 121 174 121 178.5 230.5 c 128,-1,64
 183 340 183 340 183 396 c 2,65,-1
 183 593 l 2,66,67
 183 633 183 633 179 702 c 128,-1,68
 175 771 175 771 172.5 787 c 128,-1,69
 170 803 170 803 157 810.5 c 128,-1,70
 144 818 144 818 105 818 c 2,71,-1
 21 819 l 1,72,-1
 12 827 l 1,73,-1
 12 870 l 1,74,-1
 20 878 l 1,75,76
 211 901 211 901 342 953 c 1,0,-1
EndSplineSet
Position2: "JSTF extension max at priority 3 #11 for dflt in latn subtable" dx=10 dy=0 dh=0 dv=0
Position2: "JSTF shrinkage max at priority 3 #10 for dflt in latn subtable" dx=-10 dy=0 dh=0 dv=0
Position2: "JSTF extension max at priority 3 #7 for dflt in grek subtable" dx=10 dy=0 dh=0 dv=0
Position2: "JSTF shrinkage max at priority 3 #6 for dflt in grek subtable" dx=-10 dy=0 dh=0 dv=0
Position2: "JSTF extension max at priority 3 #3 for dflt in cyrl subtable" dx=10 dy=0 dh=0 dv=0
Position2: "JSTF shrinkage max at priority 3 #2 for dflt in cyrl subtable" dx=-10 dy=0 dh=0 dv=0
Substitution2: "'smcp' Lowercase to Small Capitals in Latin lookup 14 subtable" Nsmall
Substitution2: "'smcp' Lowercase to Small Capitals in Latin lookup 13 subtable" Nsmall
Substitution2: "'subs' Subscript lookup 9 subtable" nsuperior
Substitution2: "'sinf' Scientific Inferiors lookup 8 subtable" nsuperior
EndChar

StartChar: o
Encoding: 111 111 152
Width: 1118
GlyphClass: 2
Flags: W
AnchorPoint: "Anchor-4" 545 -60 basechar 0 28
AnchorPoint: "Anchor-3" 560 1016 basechar 0 27
LayerCount: 2
Fore
SplineSet
68 458 m 0,0,1
 68 577 68 577 117 687.5 c 128,-1,2
 166 798 166 798 287.5 878.5 c 128,-1,3
 409 959 409 959 576 959 c 0,4,5
 786 959 786 959 918 826.5 c 128,-1,6
 1050 694 1050 694 1050 486 c 0,7,8
 1050 257 1050 257 898.5 109 c 128,-1,9
 747 -39 747 -39 533 -39 c 0,10,11
 393 -39 393 -39 283 36.5 c 128,-1,12
 173 112 173 112 120.5 221 c 128,-1,13
 68 330 68 330 68 458 c 0,0,1
257 527 m 0,14,15
 257 387 257 387 293 276.5 c 128,-1,16
 329 166 329 166 407 99 c 128,-1,17
 485 32 485 32 585 32 c 0,18,19
 703 32 703 32 780 125.5 c 128,-1,20
 857 219 857 219 857 407 c 0,21,22
 857 620 857 620 773.5 756 c 128,-1,23
 690 892 690 892 533 892 c 0,24,25
 403 892 403 892 330 798 c 128,-1,26
 257 704 257 704 257 527 c 0,14,15
560 1016 m 0,27,-1
545 -60 m 0,28,-1
EndSplineSet
Position2: "JSTF extension max at priority 3 #11 for dflt in latn subtable" dx=10 dy=0 dh=0 dv=0
Position2: "JSTF shrinkage max at priority 3 #10 for dflt in latn subtable" dx=-10 dy=0 dh=0 dv=0
Position2: "JSTF extension max at priority 3 #7 for dflt in grek subtable" dx=10 dy=0 dh=0 dv=0
Position2: "JSTF shrinkage max at priority 3 #6 for dflt in grek subtable" dx=-10 dy=0 dh=0 dv=0
Position2: "JSTF extension max at priority 3 #3 for dflt in cyrl subtable" dx=10 dy=0 dh=0 dv=0
Position2: "JSTF shrinkage max at priority 3 #2 for dflt in cyrl subtable" dx=-10 dy=0 dh=0 dv=0
Substitution2: "'smcp' Lowercase to Small Capitals in Latin lookup 14 subtable" Osmall
Substitution2: "'smcp' Lowercase to Small Capitals in Latin lookup 13 subtable" Osmall
Substitution2: "'subs' Subscript lookup 9 subtable" osuperior
Substitution2: "'sinf' Scientific Inferiors lookup 8 subtable" osuperior
EndChar

StartChar: p
Encoding: 112 112 153
Width: 1231
GlyphClass: 2
Flags: W
LayerCount: 2
Fore
SplineSet
370 965 m 1,0,-1
 389 953 l 1,1,2
 379 839 379 839 378 751 c 1,3,4
 514 875 514 875 567.5 915 c 128,-1,5
 621 955 621 955 752 955 c 0,6,7
 834 955 834 955 901 932.5 c 128,-1,8
 968 910 968 910 1025 858.5 c 128,-1,9
 1082 807 1082 807 1115 729.5 c 128,-1,10
 1148 652 1148 652 1148 550 c 0,11,12
 1148 478 1148 478 1125 404 c 128,-1,13
 1102 330 1102 330 1064.5 267 c 128,-1,14
 1027 204 1027 204 1004.5 183.5 c 128,-1,15
 982 163 982 163 912 122 c 0,16,17
 849 84 849 84 787 40 c 0,18,19
 744 9 744 9 727 0 c 128,-1,20
 710 -9 710 -9 670 -18 c 128,-1,21
 630 -27 630 -27 585 -27 c 0,22,23
 481 -27 481 -27 378 26 c 1,24,-1
 378 -187 l 2,25,26
 378 -209 378 -209 382 -328.5 c 128,-1,27
 386 -448 386 -448 390.5 -468 c 128,-1,28
 395 -488 395 -488 404 -497 c 128,-1,29
 413 -506 413 -506 426 -508.5 c 128,-1,30
 439 -511 439 -511 534 -517 c 1,31,-1
 543 -525 l 1,32,-1
 543 -567 l 1,33,-1
 535 -576 l 1,34,35
 410 -568 410 -568 295 -568 c 256,36,37
 180 -568 180 -568 55 -576 c 1,38,-1
 46 -567 l 1,39,-1
 46 -525 l 1,40,-1
 55 -517 l 1,41,42
 151 -511 151 -511 164 -508 c 128,-1,43
 177 -505 177 -505 186.5 -495.5 c 128,-1,44
 196 -486 196 -486 199.5 -465 c 128,-1,45
 203 -444 203 -444 207.5 -331 c 128,-1,46
 212 -218 212 -218 212 -161 c 2,47,-1
 212 605 l 2,48,49
 212 657 212 657 207.5 725.5 c 128,-1,50
 203 794 203 794 200 805 c 128,-1,51
 197 816 197 816 185.5 823 c 128,-1,52
 174 830 174 830 134 830 c 2,53,-1
 50 831 l 1,54,-1
 41 839 l 1,55,-1
 41 882 l 1,56,-1
 49 890 l 1,57,58
 240 913 240 913 370 965 c 1,0,-1
378 198 m 1,59,60
 424 151 424 151 492 116.5 c 128,-1,61
 560 82 560 82 642 82 c 0,62,63
 739 82 739 82 813.5 131 c 128,-1,64
 888 180 888 180 929 274.5 c 128,-1,65
 970 369 970 369 970 484 c 0,66,67
 970 577 970 577 933.5 657 c 128,-1,68
 897 737 897 737 820.5 783 c 128,-1,69
 744 829 744 829 658 829 c 0,70,71
 605 829 605 829 555 810.5 c 128,-1,72
 505 792 505 792 461.5 756 c 128,-1,73
 418 720 418 720 399 687.5 c 128,-1,74
 380 655 380 655 379 633.5 c 128,-1,75
 378 612 378 612 378 586 c 2,76,-1
 378 198 l 1,59,60
EndSplineSet
Position2: "JSTF extension max at priority 3 #11 for dflt in latn subtable" dx=10 dy=0 dh=0 dv=0
Position2: "JSTF shrinkage max at priority 3 #10 for dflt in latn subtable" dx=-10 dy=0 dh=0 dv=0
Position2: "JSTF extension max at priority 3 #7 for dflt in grek subtable" dx=10 dy=0 dh=0 dv=0
Position2: "JSTF shrinkage max at priority 3 #6 for dflt in grek subtable" dx=-10 dy=0 dh=0 dv=0
Position2: "JSTF extension max at priority 3 #3 for dflt in cyrl subtable" dx=10 dy=0 dh=0 dv=0
Position2: "JSTF shrinkage max at priority 3 #2 for dflt in cyrl subtable" dx=-10 dy=0 dh=0 dv=0
Substitution2: "'smcp' Lowercase to Small Capitals in Latin lookup 14 subtable" Psmall
Substitution2: "'smcp' Lowercase to Small Capitals in Latin lookup 13 subtable" Psmall
Substitution2: "'subs' Subscript lookup 9 subtable" psuperior
Substitution2: "'sinf' Scientific Inferiors lookup 8 subtable" psuperior
EndChar

StartChar: q
Encoding: 113 113 154
Width: 1147
GlyphClass: 2
Flags: W
LayerCount: 2
Fore
SplineSet
992 950 m 1,0,-1
 1029 928 l 1,1,2
 1000 849 1000 849 992.5 805 c 128,-1,3
 985 761 985 761 981 665.5 c 128,-1,4
 977 570 977 570 977 445 c 2,5,-1
 977 -187 l 2,6,7
 977 -209 977 -209 981 -328.5 c 128,-1,8
 985 -448 985 -448 989.5 -468 c 128,-1,9
 994 -488 994 -488 1003.5 -497 c 128,-1,10
 1013 -506 1013 -506 1025.5 -508.5 c 128,-1,11
 1038 -511 1038 -511 1133 -517 c 1,12,-1
 1142 -525 l 1,13,-1
 1142 -567 l 1,14,-1
 1134 -576 l 1,15,16
 1009 -568 1009 -568 893 -568 c 0,17,18
 786 -568 786 -568 653 -576 c 1,19,-1
 645 -567 l 1,20,-1
 645 -525 l 1,21,-1
 653 -517 l 1,22,23
 750 -511 750 -511 762.5 -508 c 128,-1,24
 775 -505 775 -505 784.5 -495.5 c 128,-1,25
 794 -486 794 -486 797.5 -465 c 128,-1,26
 801 -444 801 -444 805.5 -331 c 128,-1,27
 810 -218 810 -218 810 -161 c 2,28,-1
 810 136 l 1,29,-1
 596 2 l 2,30,31
 572 -13 572 -13 567.5 -15 c 128,-1,32
 563 -17 563 -17 536 -20 c 128,-1,33
 509 -23 509 -23 475 -23 c 0,34,35
 292 -23 292 -23 185.5 111.5 c 128,-1,36
 79 246 79 246 79 429 c 0,37,38
 79 551 79 551 126 661 c 0,39,40
 162 743 162 743 242 801 c 0,41,42
 266 818 266 818 419 903 c 1,43,44
 515 955 515 955 626 955 c 0,45,46
 753 955 753 955 889 885 c 1,47,-1
 992 950 l 1,0,-1
810 769 m 1,48,49
 776 803 776 803 706 838 c 128,-1,50
 636 873 636 873 558 873 c 0,51,52
 425 873 425 873 342 769 c 128,-1,53
 259 665 259 665 259 497 c 0,54,55
 259 386 259 386 300.5 284.5 c 128,-1,56
 342 183 342 183 413.5 138 c 128,-1,57
 485 93 485 93 569 93 c 0,58,59
 703 93 703 93 810 225 c 1,60,61
 813 475 813 475 813 511 c 0,62,63
 813 677 813 677 810 769 c 1,48,49
EndSplineSet
Position2: "JSTF extension max at priority 3 #11 for dflt in latn subtable" dx=10 dy=0 dh=0 dv=0
Position2: "JSTF shrinkage max at priority 3 #10 for dflt in latn subtable" dx=-10 dy=0 dh=0 dv=0
Position2: "JSTF extension max at priority 3 #7 for dflt in grek subtable" dx=10 dy=0 dh=0 dv=0
Position2: "JSTF shrinkage max at priority 3 #6 for dflt in grek subtable" dx=-10 dy=0 dh=0 dv=0
Position2: "JSTF extension max at priority 3 #3 for dflt in cyrl subtable" dx=10 dy=0 dh=0 dv=0
Position2: "JSTF shrinkage max at priority 3 #2 for dflt in cyrl subtable" dx=-10 dy=0 dh=0 dv=0
Substitution2: "'smcp' Lowercase to Small Capitals in Latin lookup 14 subtable" Qsmall
Substitution2: "'smcp' Lowercase to Small Capitals in Latin lookup 13 subtable" Qsmall
Substitution2: "'subs' Subscript lookup 9 subtable" qsuperior
Substitution2: "'sinf' Scientific Inferiors lookup 8 subtable" qsuperior
EndChar

StartChar: r
Encoding: 114 114 155
Width: 809
GlyphClass: 2
Flags: W
LayerCount: 2
Fore
SplineSet
384 953 m 1,0,-1
 403 940 l 1,1,2
 397 882 397 882 394 734 c 1,3,-1
 469 829 l 2,4,5
 506 876 506 876 534.5 901.5 c 128,-1,6
 563 927 563 927 601 941 c 128,-1,7
 639 955 639 955 679 955 c 0,8,9
 723 955 723 955 762 937 c 1,10,-1
 769 923 l 1,11,12
 753 790 753 790 751 689 c 1,13,-1
 706 689 l 1,14,15
 666 781 666 781 577 781 c 0,16,17
 515 781 515 781 469 741.5 c 128,-1,18
 423 702 423 702 407.5 642.5 c 128,-1,19
 392 583 392 583 392 492 c 2,20,-1
 392 381 l 2,21,22
 392 351 392 351 396 234 c 128,-1,23
 400 117 400 117 404.5 99 c 128,-1,24
 409 81 409 81 418.5 72.5 c 128,-1,25
 428 64 428 64 443.5 61 c 128,-1,26
 459 58 459 58 586 51 c 1,27,-1
 595 43 l 1,28,-1
 595 1 l 1,29,-1
 586 -8 l 1,30,31
 453 0 453 0 308 0 c 0,32,33
 193 0 193 0 68 -8 c 1,34,-1
 59 1 l 1,35,-1
 59 43 l 1,36,-1
 68 51 l 1,37,38
 165 57 165 57 177.5 60 c 128,-1,39
 190 63 190 63 199.5 72.5 c 128,-1,40
 209 82 209 82 212.5 101.5 c 128,-1,41
 216 121 216 121 220.5 230.5 c 128,-1,42
 225 340 225 340 225 396 c 2,43,-1
 225 593 l 2,44,45
 225 633 225 633 221 702 c 128,-1,46
 217 771 217 771 214.5 787 c 128,-1,47
 212 803 212 803 199 810.5 c 128,-1,48
 186 818 186 818 147 818 c 2,49,-1
 63 819 l 1,50,-1
 54 827 l 1,51,-1
 54 870 l 1,52,-1
 62 878 l 1,53,54
 253 901 253 901 384 953 c 1,0,-1
EndSplineSet
Position2: "JSTF extension max at priority 3 #11 for dflt in latn subtable" dx=10 dy=0 dh=0 dv=0
Position2: "JSTF shrinkage max at priority 3 #10 for dflt in latn subtable" dx=-10 dy=0 dh=0 dv=0
Position2: "JSTF extension max at priority 3 #7 for dflt in grek subtable" dx=10 dy=0 dh=0 dv=0
Position2: "JSTF shrinkage max at priority 3 #6 for dflt in grek subtable" dx=-10 dy=0 dh=0 dv=0
Position2: "JSTF extension max at priority 3 #3 for dflt in cyrl subtable" dx=10 dy=0 dh=0 dv=0
Position2: "JSTF shrinkage max at priority 3 #2 for dflt in cyrl subtable" dx=-10 dy=0 dh=0 dv=0
Substitution2: "'smcp' Lowercase to Small Capitals in Latin lookup 14 subtable" Rsmall
Substitution2: "'smcp' Lowercase to Small Capitals in Latin lookup 13 subtable" Rsmall
Substitution2: "'subs' Subscript lookup 9 subtable" rsuperior
Substitution2: "'sinf' Scientific Inferiors lookup 8 subtable" rsuperior
EndChar

StartChar: s
Encoding: 115 115 156
Width: 868
GlyphClass: 2
Flags: W
LayerCount: 2
Fore
SplineSet
101 294 m 1,0,-1
 144 294 l 1,1,-1
 153 285 l 1,2,3
 155 201 155 201 163 141 c 1,4,5
 194 94 194 94 270 64.5 c 128,-1,6
 346 35 346 35 420 35 c 0,7,8
 526 35 526 35 589.5 92 c 128,-1,9
 653 149 653 149 653 228 c 0,10,11
 653 271 653 271 630 302.5 c 128,-1,12
 607 334 607 334 560.5 354.5 c 128,-1,13
 514 375 514 375 394 403 c 0,14,15
 291 427 291 427 250 440.5 c 128,-1,16
 209 454 209 454 171 486 c 128,-1,17
 133 518 133 518 113 564.5 c 128,-1,18
 93 611 93 611 93 667 c 0,19,20
 93 801 93 801 199.5 881.5 c 128,-1,21
 306 962 306 962 465 962 c 0,22,23
 532 962 532 962 611 943.5 c 128,-1,24
 690 925 690 925 731 908 c 1,25,-1
 740 894 l 1,26,27
 732 854 732 854 730 684 c 1,28,-1
 721 675 l 1,29,-1
 681 675 l 1,30,-1
 672 684 l 1,31,32
 668 745 668 745 661 769.5 c 128,-1,33
 654 794 654 794 625 822.5 c 128,-1,34
 596 851 596 851 543 870.5 c 128,-1,35
 490 890 490 890 431 890 c 0,36,37
 370 890 370 890 328.5 872 c 128,-1,38
 287 854 287 854 261.5 817.5 c 128,-1,39
 236 781 236 781 236 729 c 0,40,41
 236 691 236 691 251.5 661 c 128,-1,42
 267 631 267 631 299 612.5 c 128,-1,43
 331 594 331 594 366 586 c 2,44,-1
 475 558 l 1,45,46
 615 524 615 524 675.5 499 c 128,-1,47
 736 474 736 474 769 423.5 c 128,-1,48
 802 373 802 373 802 301 c 0,49,50
 802 163 802 163 688 64 c 128,-1,51
 574 -35 574 -35 395 -35 c 0,52,53
 332 -35 332 -35 238.5 -21 c 128,-1,54
 145 -7 145 -7 79 10 c 1,55,-1
 74 23 l 1,56,-1
 84 90 l 2,57,58
 89 121 89 121 90 152.5 c 128,-1,59
 91 184 91 184 92 285 c 1,60,-1
 101 294 l 1,0,-1
EndSplineSet
Position2: "JSTF extension max at priority 3 #11 for dflt in latn subtable" dx=10 dy=0 dh=0 dv=0
Position2: "JSTF shrinkage max at priority 3 #10 for dflt in latn subtable" dx=-10 dy=0 dh=0 dv=0
Position2: "JSTF extension max at priority 3 #7 for dflt in grek subtable" dx=10 dy=0 dh=0 dv=0
Position2: "JSTF shrinkage max at priority 3 #6 for dflt in grek subtable" dx=-10 dy=0 dh=0 dv=0
Position2: "JSTF extension max at priority 3 #3 for dflt in cyrl subtable" dx=10 dy=0 dh=0 dv=0
Position2: "JSTF shrinkage max at priority 3 #2 for dflt in cyrl subtable" dx=-10 dy=0 dh=0 dv=0
Substitution2: "'smcp' Lowercase to Small Capitals in Latin lookup 14 subtable" Ssmall
Substitution2: "'smcp' Lowercase to Small Capitals in Latin lookup 13 subtable" Ssmall
AlternateSubs2: "'hist' Historical Forms in Latin lookup 11 subtable" longs
Substitution2: "'subs' Subscript lookup 9 subtable" ssuperior
Substitution2: "'sinf' Scientific Inferiors lookup 8 subtable" ssuperior
EndChar

StartChar: t
Encoding: 116 116 157
Width: 668
GlyphClass: 2
Flags: W
LayerCount: 2
Fore
SplineSet
46 785 m 1,0,-1
 46 811 l 1,1,-1
 53 821 l 1,2,3
 147 856 147 856 205 886 c 1,4,5
 205 1147 205 1147 199 1190 c 1,6,7
 302 1226 302 1226 368 1267 c 1,8,-1
 392 1247 l 1,9,10
 382 1184 382 1184 368 881 c 1,11,12
 418 880 418 880 476 880 c 0,13,14
 594 880 594 880 645 886 c 1,15,-1
 652 879 l 1,16,-1
 633 795 l 1,17,-1
 625 786 l 1,18,19
 574 787 574 787 512 787 c 0,20,21
 456 787 456 787 368 786 c 1,22,-1
 362 379 l 1,23,24
 362 238 362 238 368.5 194.5 c 128,-1,25
 375 151 375 151 404.5 126.5 c 128,-1,26
 434 102 434 102 492 102 c 0,27,28
 559 102 559 102 616 137 c 1,29,-1
 640 101 l 1,30,31
 616 84 616 84 525 1 c 1,32,33
 473 -23 473 -23 419 -23 c 0,34,35
 194 -23 194 -23 194 195 c 0,36,37
 194 275 194 275 198 331 c 0,38,39
 199 348 199 348 199 366 c 2,40,-1
 199 781 l 1,41,-1
 158 781 l 2,42,43
 113 781 113 781 55 777 c 1,44,-1
 46 785 l 1,0,-1
EndSplineSet
Position2: "JSTF extension max at priority 3 #11 for dflt in latn subtable" dx=10 dy=0 dh=0 dv=0
Position2: "JSTF shrinkage max at priority 3 #10 for dflt in latn subtable" dx=-10 dy=0 dh=0 dv=0
Position2: "JSTF extension max at priority 3 #7 for dflt in grek subtable" dx=10 dy=0 dh=0 dv=0
Position2: "JSTF shrinkage max at priority 3 #6 for dflt in grek subtable" dx=-10 dy=0 dh=0 dv=0
Position2: "JSTF extension max at priority 3 #3 for dflt in cyrl subtable" dx=10 dy=0 dh=0 dv=0
Position2: "JSTF shrinkage max at priority 3 #2 for dflt in cyrl subtable" dx=-10 dy=0 dh=0 dv=0
Substitution2: "'smcp' Lowercase to Small Capitals in Latin lookup 14 subtable" Tsmall
Substitution2: "'smcp' Lowercase to Small Capitals in Latin lookup 13 subtable" Tsmall
Substitution2: "'subs' Subscript lookup 9 subtable" tsuperior
Substitution2: "'sinf' Scientific Inferiors lookup 8 subtable" tsuperior
EndChar

StartChar: u
Encoding: 117 117 158
Width: 1235
GlyphClass: 2
Flags: W
AnchorPoint: "Anchor-4" 595 -60 basechar 0 70
AnchorPoint: "Anchor-3" 585 1016 basechar 0 69
LayerCount: 2
Fore
SplineSet
346 953 m 1,0,-1
 365 940 l 1,1,2
 354 809 354 809 354 607 c 2,3,-1
 354 374 l 2,4,5
 354 246 354 246 373.5 196 c 128,-1,6
 393 146 393 146 441 119.5 c 128,-1,7
 489 93 489 93 555 93 c 0,8,9
 628 93 628 93 688 121.5 c 128,-1,10
 748 150 748 150 788.5 202 c 128,-1,11
 829 254 829 254 835 272 c 128,-1,12
 841 290 841 290 843 373 c 2,13,-1
 846 485 l 1,14,-1
 846 593 l 2,15,16
 846 633 846 633 842 702 c 128,-1,17
 838 771 838 771 835.5 787 c 128,-1,18
 833 803 833 803 820 810.5 c 128,-1,19
 807 818 807 818 768 818 c 2,20,-1
 684 819 l 1,21,-1
 675 827 l 1,22,-1
 675 870 l 1,23,-1
 683 878 l 1,24,25
 874 901 874 901 1005 953 c 1,26,-1
 1024 940 l 1,27,28
 1013 809 1013 809 1013 607 c 2,29,-1
 1013 431 l 2,30,31
 1013 416 1013 416 1018 186 c 0,32,33
 1020 101 1020 101 1028.5 82.5 c 128,-1,34
 1037 64 1037 64 1052 56.5 c 128,-1,35
 1067 49 1067 49 1141 49 c 2,36,-1
 1169 49 l 1,37,-1
 1178 41 l 1,38,-1
 1178 1 l 1,39,-1
 1170 -8 l 1,40,41
 1029 0 1029 0 981 0 c 0,42,43
 920 0 920 0 840 -7 c 1,44,-1
 831 1 l 1,45,46
 837 103 837 103 840 174 c 1,47,48
 777 125 777 125 696 43 c 0,49,50
 665 12 665 12 607 -9 c 128,-1,51
 549 -30 549 -30 475 -30 c 0,52,53
 363 -30 363 -30 300.5 5.5 c 128,-1,54
 238 41 238 41 212 103.5 c 128,-1,55
 186 166 186 166 186 319 c 1,56,-1
 187 398 l 1,57,-1
 187 593 l 2,58,59
 187 633 187 633 183 702 c 128,-1,60
 179 771 179 771 176.5 787 c 128,-1,61
 174 803 174 803 161 810.5 c 128,-1,62
 148 818 148 818 109 818 c 2,63,-1
 25 819 l 1,64,-1
 16 827 l 1,65,-1
 16 870 l 1,66,-1
 24 878 l 1,67,68
 215 901 215 901 346 953 c 1,0,-1
585 1016 m 0,69,-1
595 -60 m 0,70,-1
EndSplineSet
Position2: "JSTF extension max at priority 3 #11 for dflt in latn subtable" dx=10 dy=0 dh=0 dv=0
Position2: "JSTF shrinkage max at priority 3 #10 for dflt in latn subtable" dx=-10 dy=0 dh=0 dv=0
Position2: "JSTF extension max at priority 3 #7 for dflt in grek subtable" dx=10 dy=0 dh=0 dv=0
Position2: "JSTF shrinkage max at priority 3 #6 for dflt in grek subtable" dx=-10 dy=0 dh=0 dv=0
Position2: "JSTF extension max at priority 3 #3 for dflt in cyrl subtable" dx=10 dy=0 dh=0 dv=0
Position2: "JSTF shrinkage max at priority 3 #2 for dflt in cyrl subtable" dx=-10 dy=0 dh=0 dv=0
Substitution2: "'smcp' Lowercase to Small Capitals in Latin lookup 14 subtable" Usmall
Substitution2: "'smcp' Lowercase to Small Capitals in Latin lookup 13 subtable" Usmall
Substitution2: "'subs' Subscript lookup 9 subtable" usuperior
Substitution2: "'sinf' Scientific Inferiors lookup 8 subtable" usuperior
EndChar

StartChar: v
Encoding: 118 118 159
Width: 1157
GlyphClass: 2
Flags: W
LayerCount: 2
Fore
SplineSet
510 -18 m 1,0,-1
 448 139 l 1,1,-1
 374 310 l 1,2,-1
 169 787 l 2,3,4
 149 834 149 834 133.5 849 c 128,-1,5
 118 864 118 864 102 867 c 128,-1,6
 86 870 86 870 38 872 c 1,7,-1
 30 880 l 1,8,-1
 30 923 l 1,9,-1
 39 932 l 1,10,11
 179 925 179 925 261 925 c 0,12,13
 377 925 377 925 494 932 c 1,14,-1
 502 924 l 1,15,-1
 502 880 l 1,16,-1
 494 872 l 1,17,18
 390 869 390 869 373 857.5 c 128,-1,19
 356 846 356 846 356 828 c 0,20,21
 356 798 356 798 396 699 c 2,22,-1
 518 395 l 1,23,-1
 614 168 l 1,24,-1
 714 395 l 1,25,-1
 797 601 l 2,26,27
 845 718 845 718 859 767 c 128,-1,28
 873 816 873 816 873 832 c 0,29,30
 873 851 873 851 851 859.5 c 128,-1,31
 829 868 829 868 740 872 c 1,32,-1
 732 880 l 1,33,-1
 732 923 l 1,34,-1
 741 932 l 1,35,36
 865 925 865 925 927 925 c 0,37,38
 979 925 979 925 1105 932 c 1,39,-1
 1114 923 l 1,40,-1
 1114 880 l 1,41,-1
 1106 872 l 1,42,43
 1047 867 1047 867 1027.5 855 c 128,-1,44
 1008 843 1008 843 989.5 808.5 c 128,-1,45
 971 774 971 774 883 594 c 1,46,-1
 787 389 l 2,47,48
 763 337 763 337 614 -18 c 1,49,-1
 510 -18 l 1,0,-1
EndSplineSet
Position2: "JSTF extension max at priority 3 #11 for dflt in latn subtable" dx=10 dy=0 dh=0 dv=0
Position2: "JSTF shrinkage max at priority 3 #10 for dflt in latn subtable" dx=-10 dy=0 dh=0 dv=0
Position2: "JSTF extension max at priority 3 #7 for dflt in grek subtable" dx=10 dy=0 dh=0 dv=0
Position2: "JSTF shrinkage max at priority 3 #6 for dflt in grek subtable" dx=-10 dy=0 dh=0 dv=0
Position2: "JSTF extension max at priority 3 #3 for dflt in cyrl subtable" dx=10 dy=0 dh=0 dv=0
Position2: "JSTF shrinkage max at priority 3 #2 for dflt in cyrl subtable" dx=-10 dy=0 dh=0 dv=0
Substitution2: "'smcp' Lowercase to Small Capitals in Latin lookup 14 subtable" Vsmall
Substitution2: "'smcp' Lowercase to Small Capitals in Latin lookup 13 subtable" Vsmall
Substitution2: "'subs' Subscript lookup 9 subtable" vsuperior
Substitution2: "'sinf' Scientific Inferiors lookup 8 subtable" vsuperior
EndChar

StartChar: w
Encoding: 119 119 160
Width: 1708
GlyphClass: 2
Flags: W
LayerCount: 2
Fore
SplineSet
429 -19 m 1,0,-1
 294 429 l 2,1,2
 256 555 256 555 220.5 663 c 128,-1,3
 185 771 185 771 173.5 800.5 c 128,-1,4
 162 830 162 830 149 843 c 128,-1,5
 136 856 136 856 121 861 c 128,-1,6
 106 866 106 866 36 874 c 1,7,-1
 29 882 l 1,8,-1
 29 923 l 1,9,-1
 38 932 l 1,10,11
 110 925 110 925 261 925 c 0,12,13
 424 925 424 925 506 932 c 1,14,-1
 515 923 l 1,15,-1
 515 882 l 1,16,-1
 508 874 l 1,17,18
 399 873 399 873 378.5 862 c 128,-1,19
 358 851 358 851 358 828 c 256,20,21
 358 805 358 805 387 705 c 2,22,-1
 480 383 l 2,23,24
 502 308 502 308 536 208 c 1,25,26
 563 273 563 273 612 382 c 2,27,-1
 759 711 l 2,28,29
 812 828 812 828 857 947 c 1,30,-1
 906 947 l 1,31,-1
 996 705 l 1,32,-1
 1111 415 l 1,33,-1
 1200 195 l 1,34,-1
 1275 392 l 2,35,36
 1340 561 1340 561 1376 674 c 128,-1,37
 1412 787 1412 787 1412 819 c 256,38,39
 1412 851 1412 851 1390 861 c 128,-1,40
 1368 871 1368 871 1272 874 c 1,41,-1
 1263 882 l 1,42,-1
 1263 924 l 1,43,-1
 1272 932 l 1,44,45
 1388 925 1388 925 1467 925 c 0,46,47
 1567 925 1567 925 1655 932 c 1,48,-1
 1663 924 l 1,49,-1
 1663 883 l 1,50,-1
 1655 874 l 1,51,52
 1601 872 1601 872 1581.5 862 c 128,-1,53
 1562 852 1562 852 1537.5 813.5 c 128,-1,54
 1513 775 1513 775 1463 657 c 2,55,-1
 1364 422 l 1,56,-1
 1319 310 l 1,57,-1
 1248 124 l 2,58,59
 1215 37 1215 37 1200 -19 c 1,60,-1
 1106 -19 l 1,61,-1
 1058 106 l 1,62,-1
 830 679 l 1,63,-1
 734 472 l 1,64,-1
 623 224 l 1,65,-1
 525 -19 l 1,66,-1
 429 -19 l 1,0,-1
EndSplineSet
Position2: "JSTF extension max at priority 3 #11 for dflt in latn subtable" dx=10 dy=0 dh=0 dv=0
Position2: "JSTF shrinkage max at priority 3 #10 for dflt in latn subtable" dx=-10 dy=0 dh=0 dv=0
Position2: "JSTF extension max at priority 3 #7 for dflt in grek subtable" dx=10 dy=0 dh=0 dv=0
Position2: "JSTF shrinkage max at priority 3 #6 for dflt in grek subtable" dx=-10 dy=0 dh=0 dv=0
Position2: "JSTF extension max at priority 3 #3 for dflt in cyrl subtable" dx=10 dy=0 dh=0 dv=0
Position2: "JSTF shrinkage max at priority 3 #2 for dflt in cyrl subtable" dx=-10 dy=0 dh=0 dv=0
Substitution2: "'smcp' Lowercase to Small Capitals in Latin lookup 14 subtable" Wsmall
Substitution2: "'smcp' Lowercase to Small Capitals in Latin lookup 13 subtable" Wsmall
Substitution2: "'subs' Subscript lookup 9 subtable" wsuperior
Substitution2: "'sinf' Scientific Inferiors lookup 8 subtable" wsuperior
EndChar

StartChar: x
Encoding: 120 120 161
Width: 1057
GlyphClass: 2
Flags: W
LayerCount: 2
Fore
SplineSet
44 -7 m 1,0,-1
 36 2 l 1,1,-1
 36 42 l 1,2,-1
 45 50 l 1,3,4
 82 51 82 51 105.5 61.5 c 128,-1,5
 129 72 129 72 162.5 105.5 c 128,-1,6
 196 139 196 139 281 243 c 2,7,-1
 442 442 l 1,8,-1
 357 569 l 2,9,10
 338 597 338 597 278.5 679 c 128,-1,11
 219 761 219 761 179 802.5 c 128,-1,12
 139 844 139 844 119.5 854 c 128,-1,13
 100 864 100 864 80 864 c 0,14,15
 71 864 71 864 56 863 c 1,16,-1
 46 870 l 1,17,-1
 38 910 l 1,18,-1
 46 920 l 1,19,20
 148 932 148 932 271 958 c 1,21,22
 340 901 340 901 475 691 c 1,23,-1
 549 574 l 1,24,-1
 612 654 l 1,25,26
 685 749 685 749 817 939 c 1,27,28
 864 932 864 932 892 932 c 0,29,30
 918 932 918 932 962 939 c 1,31,-1
 970 931 l 1,32,-1
 970 891 l 1,33,-1
 962 883 l 1,34,35
 929 880 929 880 914 873 c 128,-1,36
 899 866 899 866 859 827 c 128,-1,37
 819 788 819 788 752 707 c 2,38,-1
 692 635 l 2,39,40
 674 614 674 614 657 592 c 2,41,-1
 595 512 l 1,42,-1
 632 455 l 1,43,44
 657 419 657 419 752.5 286.5 c 128,-1,45
 848 154 848 154 886.5 109.5 c 128,-1,46
 925 65 925 65 941.5 57.5 c 128,-1,47
 958 50 958 50 996 50 c 1,48,-1
 1004 42 l 1,49,-1
 1004 1 l 1,50,-1
 996 -7 l 1,51,52
 922 0 922 0 882 0 c 0,53,54
 870 0 870 0 754 -7 c 1,55,56
 672 96 672 96 589 224 c 1,57,-1
 487 378 l 1,58,59
 384 261 384 261 211 -7 c 1,60,61
 143 0 143 0 130 0 c 0,62,63
 110 0 110 0 44 -7 c 1,0,-1
EndSplineSet
Position2: "JSTF extension max at priority 3 #11 for dflt in latn subtable" dx=10 dy=0 dh=0 dv=0
Position2: "JSTF shrinkage max at priority 3 #10 for dflt in latn subtable" dx=-10 dy=0 dh=0 dv=0
Position2: "JSTF extension max at priority 3 #7 for dflt in grek subtable" dx=10 dy=0 dh=0 dv=0
Position2: "JSTF shrinkage max at priority 3 #6 for dflt in grek subtable" dx=-10 dy=0 dh=0 dv=0
Position2: "JSTF extension max at priority 3 #3 for dflt in cyrl subtable" dx=10 dy=0 dh=0 dv=0
Position2: "JSTF shrinkage max at priority 3 #2 for dflt in cyrl subtable" dx=-10 dy=0 dh=0 dv=0
Substitution2: "'smcp' Lowercase to Small Capitals in Latin lookup 14 subtable" Xsmall
Substitution2: "'smcp' Lowercase to Small Capitals in Latin lookup 13 subtable" Xsmall
Substitution2: "'subs' Subscript lookup 9 subtable" xsuperior
Substitution2: "'sinf' Scientific Inferiors lookup 8 subtable" xsuperior
EndChar

StartChar: y
Encoding: 121 121 162
Width: 1139
GlyphClass: 2
Flags: W
AnchorPoint: "Anchor-4" 815 -60 basechar 0 71
AnchorPoint: "Anchor-3" 580 1016 basechar 0 70
LayerCount: 2
Fore
SplineSet
45 -543 m 1,0,1
 79 -459 79 -459 96 -389 c 1,2,-1
 120 -389 l 1,3,4
 169 -442 169 -442 226 -442 c 0,5,6
 297 -442 297 -442 349.5 -371.5 c 128,-1,7
 402 -301 402 -301 498 -60 c 1,8,9
 460 47 460 47 421 142 c 2,10,-1
 262 536 l 2,11,12
 237 597 237 597 188 710.5 c 128,-1,13
 139 824 139 824 129.5 835.5 c 128,-1,14
 120 847 120 847 105 857 c 128,-1,15
 90 867 90 867 24 876 c 1,16,-1
 16 884 l 1,17,-1
 16 924 l 1,18,-1
 25 932 l 1,19,20
 140 925 140 925 261 925 c 0,21,22
 403 925 403 925 480 932 c 1,23,-1
 488 924 l 1,24,-1
 488 884 l 1,25,-1
 481 876 l 1,26,27
 470 875 470 875 419.5 871.5 c 128,-1,28
 369 868 369 868 356.5 855.5 c 128,-1,29
 344 843 344 843 344 827 c 0,30,31
 344 810 344 810 375 716.5 c 128,-1,32
 406 623 406 623 435 551 c 2,33,-1
 498 395 l 2,34,35
 560 241 560 241 594 168 c 1,36,-1
 647 285 l 2,37,38
 675 349 675 349 727 479 c 1,39,-1
 810 691 l 2,40,41
 842 773 842 773 846.5 793 c 128,-1,42
 851 813 851 813 851 822 c 0,43,44
 851 844 851 844 835 852 c 128,-1,45
 819 860 819 860 764 866 c 1,46,-1
 722 872 l 1,47,-1
 715 880 l 1,48,-1
 715 924 l 1,49,-1
 723 932 l 1,50,51
 807 925 807 925 922 925 c 0,52,53
 1027 925 1027 925 1090 932 c 1,54,-1
 1098 924 l 1,55,-1
 1098 880 l 1,56,-1
 1090 872 l 1,57,58
 1053 871 1053 871 1031 862 c 128,-1,59
 1009 853 1009 853 989 830 c 128,-1,60
 969 807 969 807 917 700.5 c 128,-1,61
 865 594 865 594 813 480 c 2,62,-1
 715 265 l 1,63,-1
 484 -275 l 2,64,65
 454 -345 454 -345 409.5 -425 c 128,-1,66
 365 -505 365 -505 300.5 -540.5 c 128,-1,67
 236 -576 236 -576 164 -576 c 0,68,69
 101 -576 101 -576 45 -543 c 1,0,1
580 1016 m 0,70,-1
815 -60 m 0,71,-1
EndSplineSet
Position2: "JSTF extension max at priority 3 #11 for dflt in latn subtable" dx=10 dy=0 dh=0 dv=0
Position2: "JSTF shrinkage max at priority 3 #10 for dflt in latn subtable" dx=-10 dy=0 dh=0 dv=0
Position2: "JSTF extension max at priority 3 #7 for dflt in grek subtable" dx=10 dy=0 dh=0 dv=0
Position2: "JSTF shrinkage max at priority 3 #6 for dflt in grek subtable" dx=-10 dy=0 dh=0 dv=0
Position2: "JSTF extension max at priority 3 #3 for dflt in cyrl subtable" dx=10 dy=0 dh=0 dv=0
Position2: "JSTF shrinkage max at priority 3 #2 for dflt in cyrl subtable" dx=-10 dy=0 dh=0 dv=0
Substitution2: "'smcp' Lowercase to Small Capitals in Latin lookup 14 subtable" Ysmall
Substitution2: "'smcp' Lowercase to Small Capitals in Latin lookup 13 subtable" Ysmall
Substitution2: "'subs' Subscript lookup 9 subtable" ysuperior
Substitution2: "'sinf' Scientific Inferiors lookup 8 subtable" ysuperior
EndChar

StartChar: z
Encoding: 122 122 163
Width: 1024
GlyphClass: 2
Flags: W
LayerCount: 2
Fore
SplineSet
54 -8 m 1,0,-1
 45 0 l 1,1,-1
 36 38 l 1,2,3
 165 175 165 175 283 323 c 1,4,-1
 504 597 l 1,5,6
 608 723 608 723 698 857 c 1,7,-1
 462 857 l 2,8,9
 434 857 434 857 333 852.5 c 128,-1,10
 232 848 232 848 221 836.5 c 128,-1,11
 210 825 210 825 191 706 c 1,12,-1
 185 674 l 1,13,-1
 177 666 l 1,14,-1
 137 666 l 1,15,-1
 128 675 l 1,16,17
 138 833 138 833 138 858 c 0,18,19
 138 882 138 882 136 926 c 1,20,-1
 144 933 l 1,21,22
 516 925 516 925 737 925 c 0,23,24
 855 925 855 925 923 933 c 1,25,-1
 931 925 l 1,26,-1
 931 877 l 1,27,28
 862 801 862 801 716 615 c 2,29,-1
 454 282 l 2,30,31
 338 135 338 135 291 69 c 1,32,-1
 361 69 l 1,33,-1
 561 72 l 2,34,35
 671 73 671 73 746 81 c 128,-1,36
 821 89 821 89 833.5 94.5 c 128,-1,37
 846 100 846 100 849 104.5 c 128,-1,38
 852 109 852 109 866.5 167 c 128,-1,39
 881 225 881 225 889 275 c 1,40,-1
 898 283 l 1,41,-1
 943 283 l 1,42,-1
 952 274 l 1,43,44
 928 96 928 96 925 0 c 1,45,-1
 917 -8 l 1,46,47
 617 1 617 1 462 1 c 0,48,49
 325 1 325 1 54 -8 c 1,0,-1
EndSplineSet
Position2: "JSTF extension max at priority 3 #11 for dflt in latn subtable" dx=10 dy=0 dh=0 dv=0
Position2: "JSTF shrinkage max at priority 3 #10 for dflt in latn subtable" dx=-10 dy=0 dh=0 dv=0
Position2: "JSTF extension max at priority 3 #7 for dflt in grek subtable" dx=10 dy=0 dh=0 dv=0
Position2: "JSTF shrinkage max at priority 3 #6 for dflt in grek subtable" dx=-10 dy=0 dh=0 dv=0
Position2: "JSTF extension max at priority 3 #3 for dflt in cyrl subtable" dx=10 dy=0 dh=0 dv=0
Position2: "JSTF shrinkage max at priority 3 #2 for dflt in cyrl subtable" dx=-10 dy=0 dh=0 dv=0
Substitution2: "'smcp' Lowercase to Small Capitals in Latin lookup 14 subtable" Zsmall
Substitution2: "'smcp' Lowercase to Small Capitals in Latin lookup 13 subtable" Zsmall
Substitution2: "'subs' Subscript lookup 9 subtable" zsuperior
Substitution2: "'sinf' Scientific Inferiors lookup 8 subtable" zsuperior
EndChar

StartChar: aogonek
Encoding: 261 261 173
Width: 1024
GlyphClass: 2
Flags: W
LayerCount: 2
Fore
SplineSet
872 -2 m 1,0,1
 799 -68 799 -68 770 -108.5 c 128,-1,2
 741 -149 741 -149 741 -190 c 0,3,4
 741 -232 741 -232 770.5 -263.5 c 128,-1,5
 800 -295 800 -295 844 -295 c 0,6,7
 924 -295 924 -295 1022 -210 c 1,8,-1
 1038 -211 l 1,9,-1
 1065 -248 l 1,10,-1
 1065 -262 l 1,11,12
 964 -351 964 -351 901.5 -375.5 c 128,-1,13
 839 -400 839 -400 785 -400 c 0,14,15
 714 -400 714 -400 666 -350.5 c 128,-1,16
 618 -301 618 -301 618 -231 c 0,17,18
 618 -170 618 -170 657 -117.5 c 128,-1,19
 696 -65 696 -65 787 -2 c 1,20,21
 725 -4 725 -4 687 -7 c 1,22,-1
 672 7 l 1,23,-1
 676 168 l 1,24,-1
 548 68 l 2,25,26
 481 15 481 15 458 -2 c 1,27,28
 403 -25 403 -25 338 -25 c 0,29,30
 219 -25 219 -25 150.5 38.5 c 128,-1,31
 82 102 82 102 82 211 c 0,32,33
 82 299 82 299 119 366.5 c 128,-1,34
 156 434 156 434 202.5 462.5 c 128,-1,35
 249 491 249 491 382.5 526.5 c 128,-1,36
 516 562 516 562 676 581 c 1,37,38
 676 643 676 643 667.5 687 c 128,-1,39
 659 731 659 731 626.5 770.5 c 128,-1,40
 594 810 594 810 544.5 830 c 128,-1,41
 495 850 495 850 433 850 c 0,42,43
 397 850 397 850 365.5 843.5 c 128,-1,44
 334 837 334 837 307 825 c 128,-1,45
 280 813 280 813 276 809 c 128,-1,46
 272 805 272 805 219 683 c 1,47,-1
 212 678 l 1,48,-1
 173 688 l 1,49,-1
 165 698 l 1,50,-1
 165 822 l 1,51,52
 279 895 279 895 351.5 924.5 c 128,-1,53
 424 954 424 954 511 954 c 0,54,55
 666 954 666 954 756 873 c 128,-1,56
 846 792 846 792 846 653 c 1,57,-1
 841 452 l 1,58,-1
 841 154 l 2,59,60
 841 105 841 105 848.5 87 c 128,-1,61
 856 69 856 69 867.5 63 c 128,-1,62
 879 57 879 57 910 55 c 2,63,-1
 967 50 l 1,64,-1
 975 41 l 1,65,-1
 975 1 l 1,66,-1
 967 -7 l 1,67,68
 908 -2 908 -2 872 -2 c 1,0,1
676 520 m 1,69,70
 593 506 593 506 511.5 486 c 128,-1,71
 430 466 430 466 381.5 446 c 128,-1,72
 333 426 333 426 311 404 c 128,-1,73
 289 382 289 382 273.5 341.5 c 128,-1,74
 258 301 258 301 258 252 c 0,75,76
 258 183 258 183 297 139.5 c 128,-1,77
 336 96 336 96 413 96 c 0,78,79
 546 96 546 96 676 250 c 1,80,-1
 676 520 l 1,69,70
EndSplineSet
Position2: "JSTF extension max at priority 3 #11 for dflt in latn subtable" dx=10 dy=0 dh=0 dv=0
Position2: "JSTF shrinkage max at priority 3 #10 for dflt in latn subtable" dx=-10 dy=0 dh=0 dv=0
Position2: "JSTF extension max at priority 3 #7 for dflt in grek subtable" dx=10 dy=0 dh=0 dv=0
Position2: "JSTF shrinkage max at priority 3 #6 for dflt in grek subtable" dx=-10 dy=0 dh=0 dv=0
Position2: "JSTF extension max at priority 3 #3 for dflt in cyrl subtable" dx=10 dy=0 dh=0 dv=0
Position2: "JSTF shrinkage max at priority 3 #2 for dflt in cyrl subtable" dx=-10 dy=0 dh=0 dv=0
Substitution2: "'smcp' Lowercase to Small Capitals in Latin lookup 14 subtable" Aogoneksmall
Substitution2: "'smcp' Lowercase to Small Capitals in Latin lookup 13 subtable" Aogoneksmall
EndChar

StartChar: ae
Encoding: 230 230 174
Width: 1552
GlyphClass: 3
LigCaretCntFixed: 1
Flags: W
LayerCount: 2
Fore
SplineSet
1436 164 m 1,0,-1
 1452 147 l 1,1,-1
 1420 75 l 1,2,3
 1316 8 1316 8 1234.5 -12 c 128,-1,4
 1153 -32 1153 -32 1089 -32 c 0,5,6
 954 -32 954 -32 847.5 22 c 128,-1,7
 741 76 741 76 680 185 c 1,8,9
 515 41 515 41 447 -9 c 1,10,11
 378 -30 378 -30 311 -30 c 0,12,13
 180 -30 180 -30 112.5 43.5 c 128,-1,14
 45 117 45 117 45 214 c 0,15,16
 45 262 45 262 64.5 312.5 c 128,-1,17
 84 363 84 363 116 399 c 128,-1,18
 148 435 148 435 183.5 453.5 c 128,-1,19
 219 472 219 472 298.5 493 c 128,-1,20
 378 514 378 514 475 528 c 128,-1,21
 572 542 572 542 643 546 c 1,22,23
 643 700 643 700 582 774 c 128,-1,24
 521 848 521 848 407 848 c 0,25,26
 321 848 321 848 230 805 c 1,27,28
 215 779 215 779 202 744 c 1,29,-1
 179 688 l 1,30,-1
 167 683 l 1,31,-1
 132 691 l 1,32,-1
 124 702 l 1,33,-1
 124 819 l 1,34,35
 138 827 138 827 186 854.5 c 128,-1,36
 234 882 234 882 273 904 c 1,37,-1
 331 934 l 2,38,39
 349 943 349 943 365 947 c 128,-1,40
 381 951 381 951 416 955 c 128,-1,41
 451 959 451 959 480 959 c 0,42,43
 544 959 544 959 598.5 942 c 128,-1,44
 653 925 653 925 687.5 899 c 128,-1,45
 722 873 722 873 762 824 c 1,46,47
 840 887 840 887 923.5 923.5 c 128,-1,48
 1007 960 1007 960 1104 960 c 0,49,50
 1224 960 1224 960 1315 903.5 c 128,-1,51
 1406 847 1406 847 1443.5 759 c 128,-1,52
 1481 671 1481 671 1481 572 c 0,53,54
 1481 543 1481 543 1477 512 c 1,55,-1
 1467 501 l 1,56,57
 1399 486 1399 486 1284 481 c 128,-1,58
 1169 476 1169 476 1132 476 c 2,59,-1
 811 476 l 1,60,61
 813 269 813 269 915 171 c 128,-1,62
 1017 73 1017 73 1165 73 c 0,63,64
 1232 73 1232 73 1295 95.5 c 128,-1,65
 1358 118 1358 118 1436 164 c 1,0,-1
811 556 m 1,66,67
 829 553 829 553 949.5 549 c 128,-1,68
 1070 545 1070 545 1128 545 c 0,69,70
 1267 545 1267 545 1297 550 c 1,71,72
 1298 574 1298 574 1298 587 c 0,73,74
 1298 738 1298 738 1236.5 815.5 c 128,-1,75
 1175 893 1175 893 1063 893 c 0,76,77
 944 893 944 893 877.5 808 c 128,-1,78
 811 723 811 723 811 556 c 1,66,67
643 480 m 1,79,80
 581 478 581 478 531.5 470.5 c 128,-1,81
 482 463 482 463 416 445 c 128,-1,82
 350 427 350 427 314 411 c 128,-1,83
 278 395 278 395 263 379.5 c 128,-1,84
 248 364 248 364 235.5 330 c 128,-1,85
 223 296 223 296 223 257 c 0,86,87
 223 197 223 197 264 147.5 c 128,-1,88
 305 98 305 98 388 98 c 256,89,90
 471 98 471 98 539.5 144.5 c 128,-1,91
 608 191 608 191 643 243 c 1,92,-1
 643 480 l 1,79,80
EndSplineSet
Position2: "JSTF extension max at priority 3 #11 for dflt in latn subtable" dx=10 dy=0 dh=0 dv=0
Position2: "JSTF shrinkage max at priority 3 #10 for dflt in latn subtable" dx=-10 dy=0 dh=0 dv=0
Position2: "JSTF extension max at priority 3 #7 for dflt in grek subtable" dx=10 dy=0 dh=0 dv=0
Position2: "JSTF shrinkage max at priority 3 #6 for dflt in grek subtable" dx=-10 dy=0 dh=0 dv=0
Position2: "JSTF extension max at priority 3 #3 for dflt in cyrl subtable" dx=10 dy=0 dh=0 dv=0
Position2: "JSTF shrinkage max at priority 3 #2 for dflt in cyrl subtable" dx=-10 dy=0 dh=0 dv=0
Ligature2: "'dpng' Dipthongs (Obsolete) in Latin lookup 19 subtable" a e
Substitution2: "'smcp' Lowercase to Small Capitals in Latin lookup 14 subtable" AEsmall
Substitution2: "'smcp' Lowercase to Small Capitals in Latin lookup 13 subtable" AEsmall
Substitution2: "'subs' Subscript lookup 9 subtable" aesuperior
Substitution2: "'sinf' Scientific Inferiors lookup 8 subtable" aesuperior
LCarets2: 1 780 
EndChar

StartChar: ccedilla
Encoding: 231 231 179
Width: 909
GlyphClass: 2
Flags: W
LayerCount: 2
Fore
SplineSet
552 -31 m 1,0,-1
 504 -142 l 1,1,2
 537 -136 537 -136 566 -136 c 0,3,4
 647 -136 647 -136 693.5 -175 c 128,-1,5
 740 -214 740 -214 740 -277 c 0,6,7
 740 -328 740 -328 705.5 -370.5 c 128,-1,8
 671 -413 671 -413 618.5 -431 c 128,-1,9
 566 -449 566 -449 496 -449 c 0,10,11
 399 -449 399 -449 315 -420 c 1,12,-1
 311 -408 l 1,13,-1
 335 -357 l 1,14,-1
 346 -352 l 1,15,16
 407 -374 407 -374 470 -374 c 0,17,18
 526 -374 526 -374 552.5 -348 c 128,-1,19
 579 -322 579 -322 579 -290 c 0,20,21
 579 -255 579 -255 551 -233.5 c 128,-1,22
 523 -212 523 -212 477 -212 c 0,23,24
 448 -212 448 -212 415 -222 c 1,25,-1
 397 -208 l 1,26,-1
 478 -28 l 1,27,28
 294 -12 294 -12 187 114.5 c 128,-1,29
 80 241 80 241 80 438 c 0,30,31
 80 532 80 532 100.5 605.5 c 128,-1,32
 121 679 121 679 152.5 727 c 128,-1,33
 184 775 184 775 222 803 c 128,-1,34
 260 831 260 831 350.5 881 c 128,-1,35
 441 931 441 931 487 946.5 c 128,-1,36
 533 962 533 962 614 962 c 0,37,38
 769 962 769 962 868 903 c 1,39,40
 849 790 849 790 839 651 c 1,41,-1
 830 643 l 1,42,-1
 789 643 l 1,43,-1
 780 652 l 1,44,45
 776 736 776 736 769 765 c 128,-1,46
 762 794 762 794 689.5 827 c 128,-1,47
 617 860 617 860 535 860 c 256,48,49
 453 860 453 860 389 825.5 c 128,-1,50
 325 791 325 791 292.5 712.5 c 128,-1,51
 260 634 260 634 260 525 c 0,52,53
 260 433 260 433 286 345.5 c 128,-1,54
 312 258 312 258 354.5 200.5 c 128,-1,55
 397 143 397 143 467 108 c 128,-1,56
 537 73 537 73 623 73 c 0,57,58
 677 73 677 73 728.5 87 c 128,-1,59
 780 101 780 101 847 133 c 1,60,-1
 868 107 l 1,61,-1
 828 40 l 1,62,63
 702 -29 702 -29 552 -31 c 1,0,-1
EndSplineSet
Position2: "JSTF extension max at priority 3 #11 for dflt in latn subtable" dx=10 dy=0 dh=0 dv=0
Position2: "JSTF shrinkage max at priority 3 #10 for dflt in latn subtable" dx=-10 dy=0 dh=0 dv=0
Position2: "JSTF extension max at priority 3 #7 for dflt in grek subtable" dx=10 dy=0 dh=0 dv=0
Position2: "JSTF shrinkage max at priority 3 #6 for dflt in grek subtable" dx=-10 dy=0 dh=0 dv=0
Position2: "JSTF extension max at priority 3 #3 for dflt in cyrl subtable" dx=10 dy=0 dh=0 dv=0
Position2: "JSTF shrinkage max at priority 3 #2 for dflt in cyrl subtable" dx=-10 dy=0 dh=0 dv=0
Substitution2: "'smcp' Lowercase to Small Capitals in Latin lookup 14 subtable" Ccedillasmall
Substitution2: "'smcp' Lowercase to Small Capitals in Latin lookup 13 subtable" Ccedillasmall
EndChar

StartChar: dcroat
Encoding: 273 273 182
Width: 1251
GlyphClass: 2
Flags: W
LayerCount: 2
Fore
SplineSet
1188 1165 m 1,0,-1
 1188 1102 l 1,1,-1
 1178 1092 l 1,2,-1
 1011 1092 l 1,3,-1
 1011 353 l 2,4,5
 1011 252 1011 252 1014.5 176.5 c 128,-1,6
 1018 101 1018 101 1027 87 c 128,-1,7
 1036 73 1036 73 1056.5 64 c 128,-1,8
 1077 55 1077 55 1173 47 c 1,9,-1
 1182 39 l 1,10,-1
 1182 1 l 1,11,-1
 1173 -8 l 1,12,13
 1065 -1 1065 -1 1005 -1 c 0,14,15
 951 -1 951 -1 851 -8 c 1,16,-1
 840 3 l 1,17,18
 843 101 843 101 843 140 c 0,19,20
 843 145 843 145 844 178 c 1,21,22
 789 138 789 138 734 89 c 0,23,24
 653 17 653 17 628 -1 c 1,25,26
 582 -24 582 -24 497 -24 c 0,27,28
 359 -24 359 -24 262.5 44 c 128,-1,29
 166 112 166 112 125 217.5 c 128,-1,30
 84 323 84 323 84 434 c 0,31,32
 84 547 84 547 126.5 651.5 c 128,-1,33
 169 756 169 756 247.5 804 c 128,-1,34
 326 852 326 852 418.5 903.5 c 128,-1,35
 511 955 511 955 602 955 c 0,36,37
 729 955 729 955 844 892 c 1,38,39
 843 931 843 931 840 1092 c 1,40,-1
 551 1092 l 1,41,-1
 539 1102 l 1,42,-1
 539 1165 l 1,43,-1
 550 1176 l 1,44,-1
 838 1176 l 1,45,46
 836 1293 836 1293 830.5 1314.5 c 128,-1,47
 825 1336 825 1336 808.5 1341.5 c 128,-1,48
 792 1347 792 1347 682 1347 c 1,49,-1
 673 1356 l 1,50,-1
 673 1398 l 1,51,-1
 681 1407 l 1,52,53
 872 1429 872 1429 1003 1481 c 1,54,-1
 1022 1469 l 1,55,56
 1011 1346 1011 1346 1011 1176 c 1,57,-1
 1178 1176 l 1,58,-1
 1188 1165 l 1,0,-1
844 721 m 1,59,60
 782 791 782 791 706.5 828 c 128,-1,61
 631 865 631 865 555 865 c 0,62,63
 471 865 471 865 398.5 819.5 c 128,-1,64
 326 774 326 774 294 684.5 c 128,-1,65
 262 595 262 595 262 490 c 0,66,67
 262 315 262 315 350.5 209 c 128,-1,68
 439 103 439 103 573 103 c 0,69,70
 646 103 646 103 702.5 136.5 c 128,-1,71
 759 170 759 170 795.5 227 c 128,-1,72
 832 284 832 284 838 341 c 128,-1,73
 844 398 844 398 844 550 c 2,74,-1
 844 721 l 1,59,60
EndSplineSet
Position2: "JSTF extension max at priority 3 #11 for dflt in latn subtable" dx=10 dy=0 dh=0 dv=0
Position2: "JSTF shrinkage max at priority 3 #10 for dflt in latn subtable" dx=-10 dy=0 dh=0 dv=0
Position2: "JSTF extension max at priority 3 #7 for dflt in grek subtable" dx=10 dy=0 dh=0 dv=0
Position2: "JSTF shrinkage max at priority 3 #6 for dflt in grek subtable" dx=-10 dy=0 dh=0 dv=0
Position2: "JSTF extension max at priority 3 #3 for dflt in cyrl subtable" dx=10 dy=0 dh=0 dv=0
Position2: "JSTF shrinkage max at priority 3 #2 for dflt in cyrl subtable" dx=-10 dy=0 dh=0 dv=0
Substitution2: "'smcp' Lowercase to Small Capitals in Latin lookup 14 subtable" Dcroatsmall
Substitution2: "'smcp' Lowercase to Small Capitals in Latin lookup 13 subtable" Dcroatsmall
EndChar

StartChar: eogonek
Encoding: 281 281 191
Width: 981
GlyphClass: 2
Flags: W
LayerCount: 2
Fore
SplineSet
884 147 m 1,0,-1
 852 75 l 1,1,2
 791 35 791 35 705 -1 c 0,3,4
 634 -30 634 -30 597 -52.5 c 128,-1,5
 560 -75 560 -75 539 -108 c 128,-1,6
 518 -141 518 -141 518 -180 c 0,7,8
 518 -222 518 -222 544 -253.5 c 128,-1,9
 570 -285 570 -285 625 -285 c 0,10,11
 698 -285 698 -285 800 -210 c 1,12,-1
 816 -211 l 1,13,-1
 843 -248 l 1,14,-1
 843 -262 l 1,15,16
 765 -334 765 -334 700.5 -367 c 128,-1,17
 636 -400 636 -400 569 -400 c 0,18,19
 515 -400 515 -400 480 -379.5 c 128,-1,20
 445 -359 445 -359 420.5 -321 c 128,-1,21
 396 -283 396 -283 396 -231 c 0,22,23
 396 -119 396 -119 527 -32 c 1,24,25
 302 -32 302 -32 176.5 98 c 128,-1,26
 51 228 51 228 51 444 c 0,27,28
 51 549 51 549 77 633.5 c 128,-1,29
 103 718 103 718 131.5 759 c 128,-1,30
 160 800 160 800 228 850 c 128,-1,31
 296 900 296 900 372 930 c 128,-1,32
 448 960 448 960 536 960 c 0,33,34
 656 960 656 960 747.5 903.5 c 128,-1,35
 839 847 839 847 876 759 c 128,-1,36
 913 671 913 671 913 572 c 0,37,38
 913 543 913 543 910 512 c 1,39,-1
 899 501 l 1,40,41
 831 486 831 486 716 481 c 128,-1,42
 601 476 601 476 564 476 c 2,43,-1
 243 476 l 1,44,45
 245 269 245 269 347 171 c 128,-1,46
 449 73 449 73 597 73 c 0,47,48
 667 73 667 73 731.5 97 c 128,-1,49
 796 121 796 121 868 164 c 1,50,-1
 884 147 l 1,0,-1
243 556 m 1,51,52
 261 553 261 553 381.5 549 c 128,-1,53
 502 545 502 545 560 545 c 0,54,55
 699 545 699 545 729 550 c 1,56,57
 730 574 730 574 730 587 c 0,58,59
 730 742 730 742 667 817.5 c 128,-1,60
 604 893 604 893 495 893 c 0,61,62
 376 893 376 893 309.5 808 c 128,-1,63
 243 723 243 723 243 556 c 1,51,52
EndSplineSet
Position2: "JSTF extension max at priority 3 #11 for dflt in latn subtable" dx=10 dy=0 dh=0 dv=0
Position2: "JSTF shrinkage max at priority 3 #10 for dflt in latn subtable" dx=-10 dy=0 dh=0 dv=0
Position2: "JSTF extension max at priority 3 #7 for dflt in grek subtable" dx=10 dy=0 dh=0 dv=0
Position2: "JSTF shrinkage max at priority 3 #6 for dflt in grek subtable" dx=-10 dy=0 dh=0 dv=0
Position2: "JSTF extension max at priority 3 #3 for dflt in cyrl subtable" dx=10 dy=0 dh=0 dv=0
Position2: "JSTF shrinkage max at priority 3 #2 for dflt in cyrl subtable" dx=-10 dy=0 dh=0 dv=0
Substitution2: "'smcp' Lowercase to Small Capitals in Latin lookup 14 subtable" Eogoneksmall
Substitution2: "'smcp' Lowercase to Small Capitals in Latin lookup 13 subtable" Eogoneksmall
EndChar

StartChar: hbar
Encoding: 295 295 198
Width: 1192
GlyphClass: 2
Flags: W
LayerCount: 2
Fore
SplineSet
5 1102 m 1,0,-1
 5 1165 l 1,1,-1
 16 1176 l 1,2,-1
 176 1176 l 1,3,4
 172 1306 172 1306 166 1322 c 128,-1,5
 160 1338 160 1338 141.5 1342.5 c 128,-1,6
 123 1347 123 1347 19 1347 c 1,7,-1
 11 1356 l 1,8,-1
 11 1398 l 1,9,-1
 19 1407 l 1,10,11
 210 1429 210 1429 341 1481 c 1,12,-1
 359 1469 l 1,13,14
 349 1345 349 1345 349 1176 c 1,15,-1
 643 1176 l 1,16,-1
 654 1165 l 1,17,-1
 654 1102 l 1,18,-1
 643 1092 l 1,19,-1
 349 1092 l 1,20,-1
 349 761 l 1,21,22
 433 830 433 830 505 898 c 0,23,24
 526 917 526 917 544.5 926 c 128,-1,25
 563 935 563 935 606 945 c 128,-1,26
 649 955 649 955 694 955 c 0,27,28
 770 955 770 955 841.5 924 c 128,-1,29
 913 893 913 893 949.5 850.5 c 128,-1,30
 986 808 986 808 1000 750 c 128,-1,31
 1014 692 1014 692 1014 607 c 2,32,-1
 1014 431 l 2,33,34
 1014 414 1014 414 1019 182 c 0,35,36
 1021 87 1021 87 1040 69 c 128,-1,37
 1059 51 1059 51 1164 51 c 1,38,-1
 1172 43 l 1,39,-1
 1172 0 l 1,40,-1
 1164 -8 l 1,41,42
 1037 0 1037 0 992 0 c 0,43,44
 966 0 966 0 846 -8 c 1,45,-1
 834 3 l 1,46,47
 847 133 847 133 847 342 c 2,48,-1
 847 473 l 2,49,50
 847 591 847 591 841.5 643 c 128,-1,51
 836 695 836 695 808 737.5 c 128,-1,52
 780 780 780 780 733 803.5 c 128,-1,53
 686 827 686 827 621 827 c 0,54,55
 553 827 553 827 507.5 808.5 c 128,-1,56
 462 790 462 790 414.5 746 c 128,-1,57
 367 702 367 702 358 672.5 c 128,-1,58
 349 643 349 643 349 559 c 2,59,-1
 349 381 l 2,60,61
 349 359 349 359 353 239.5 c 128,-1,62
 357 120 357 120 361.5 100 c 128,-1,63
 366 80 366 80 375 71 c 128,-1,64
 384 62 384 62 396.5 59.5 c 128,-1,65
 409 57 409 57 505 51 c 1,66,-1
 514 43 l 1,67,-1
 514 1 l 1,68,-1
 505 -8 l 1,69,70
 381 0 381 0 265 0 c 0,71,72
 150 0 150 0 24 -8 c 1,73,-1
 16 1 l 1,74,-1
 16 43 l 1,75,-1
 25 51 l 1,76,77
 121 57 121 57 134 60 c 128,-1,78
 147 63 147 63 156.5 72.5 c 128,-1,79
 166 82 166 82 169 101.5 c 128,-1,80
 172 121 172 121 176.5 230.5 c 128,-1,81
 181 340 181 340 181 396 c 2,82,-1
 181 914 l 1,83,84
 180 1003 180 1003 178 1092 c 1,85,-1
 17 1092 l 1,86,-1
 5 1102 l 1,0,-1
EndSplineSet
Position2: "JSTF extension max at priority 3 #11 for dflt in latn subtable" dx=10 dy=0 dh=0 dv=0
Position2: "JSTF shrinkage max at priority 3 #10 for dflt in latn subtable" dx=-10 dy=0 dh=0 dv=0
Position2: "JSTF extension max at priority 3 #7 for dflt in grek subtable" dx=10 dy=0 dh=0 dv=0
Position2: "JSTF shrinkage max at priority 3 #6 for dflt in grek subtable" dx=-10 dy=0 dh=0 dv=0
Position2: "JSTF extension max at priority 3 #3 for dflt in cyrl subtable" dx=10 dy=0 dh=0 dv=0
Position2: "JSTF shrinkage max at priority 3 #2 for dflt in cyrl subtable" dx=-10 dy=0 dh=0 dv=0
Substitution2: "'smcp' Lowercase to Small Capitals in Latin lookup 14 subtable" Hbarsmall
Substitution2: "'smcp' Lowercase to Small Capitals in Latin lookup 13 subtable" Hbarsmall
EndChar

StartChar: dotlessi
Encoding: 305 305 205
Width: 596
GlyphClass: 2
Flags: W
AnchorPoint: "Anchor-5" 300 1016 basechar 0 38
LayerCount: 2
Fore
SplineSet
373 953 m 1,0,-1
 392 940 l 1,1,2
 381 809 381 809 381 607 c 2,3,-1
 381 381 l 2,4,5
 381 359 381 359 385 239.5 c 128,-1,6
 389 120 389 120 393.5 100 c 128,-1,7
 398 80 398 80 407 71 c 128,-1,8
 416 62 416 62 429 59.5 c 128,-1,9
 442 57 442 57 537 51 c 1,10,-1
 546 43 l 1,11,-1
 546 1 l 1,12,-1
 538 -8 l 1,13,14
 413 0 413 0 297 0 c 0,15,16
 182 0 182 0 57 -8 c 1,17,-1
 48 1 l 1,18,-1
 48 43 l 1,19,-1
 57 51 l 1,20,21
 154 57 154 57 166.5 60 c 128,-1,22
 179 63 179 63 188.5 72.5 c 128,-1,23
 198 82 198 82 201.5 101.5 c 128,-1,24
 205 121 205 121 209.5 230.5 c 128,-1,25
 214 340 214 340 214 396 c 2,26,-1
 214 593 l 2,27,28
 214 633 214 633 210 702 c 128,-1,29
 206 771 206 771 203.5 787 c 128,-1,30
 201 803 201 803 188 810.5 c 128,-1,31
 175 818 175 818 136 818 c 2,32,-1
 52 819 l 1,33,-1
 43 827 l 1,34,-1
 43 870 l 1,35,-1
 51 878 l 1,36,37
 242 901 242 901 373 953 c 1,0,-1
300 1016 m 0,38,-1
295 -60 m 0,39,-1
EndSplineSet
Position2: "JSTF extension max at priority 3 #11 for dflt in latn subtable" dx=10 dy=0 dh=0 dv=0
Position2: "JSTF shrinkage max at priority 3 #10 for dflt in latn subtable" dx=-10 dy=0 dh=0 dv=0
Position2: "JSTF extension max at priority 3 #7 for dflt in grek subtable" dx=10 dy=0 dh=0 dv=0
Position2: "JSTF shrinkage max at priority 3 #6 for dflt in grek subtable" dx=-10 dy=0 dh=0 dv=0
Position2: "JSTF extension max at priority 3 #3 for dflt in cyrl subtable" dx=10 dy=0 dh=0 dv=0
Position2: "JSTF shrinkage max at priority 3 #2 for dflt in cyrl subtable" dx=-10 dy=0 dh=0 dv=0
Substitution2: "'smcp' Lowercase to Small Capitals in Latin lookup 14 subtable" Ismall
EndChar

StartChar: iogonek
Encoding: 303 303 207
Width: 596
GlyphClass: 2
Flags: W
LayerCount: 2
Fore
SplineSet
288 1400 m 0,0,1
 335 1400 335 1400 368 1367 c 128,-1,2
 401 1334 401 1334 401 1287 c 0,3,4
 401 1241 401 1241 368 1208 c 128,-1,5
 335 1175 335 1175 288 1175 c 0,6,7
 242 1175 242 1175 208.5 1207.5 c 128,-1,8
 175 1240 175 1240 175 1287 c 256,9,10
 175 1334 175 1334 208.5 1367 c 128,-1,11
 242 1400 242 1400 288 1400 c 0,0,1
335 0 m 1,12,-1
 326 -9 l 1,13,14
 250 -78 250 -78 226.5 -115.5 c 128,-1,15
 203 -153 203 -153 203 -190 c 0,16,17
 203 -232 203 -232 232 -263.5 c 128,-1,18
 261 -295 261 -295 306 -295 c 0,19,20
 384 -295 384 -295 484 -210 c 1,21,-1
 499 -211 l 1,22,-1
 527 -248 l 1,23,-1
 526 -262 l 1,24,25
 425 -351 425 -351 362.5 -375.5 c 128,-1,26
 300 -400 300 -400 247 -400 c 0,27,28
 175 -400 175 -400 127.5 -350.5 c 128,-1,29
 80 -301 80 -301 80 -231 c 0,30,31
 80 -172 80 -172 117.5 -120 c 128,-1,32
 155 -68 155 -68 250 0 c 1,33,34
 184 0 184 0 57 -8 c 1,35,-1
 48 1 l 1,36,-1
 48 43 l 1,37,-1
 57 51 l 1,38,39
 154 57 154 57 166.5 60 c 128,-1,40
 179 63 179 63 188.5 72.5 c 128,-1,41
 198 82 198 82 201.5 101.5 c 128,-1,42
 205 121 205 121 209.5 230.5 c 128,-1,43
 214 340 214 340 214 396 c 2,44,-1
 214 593 l 2,45,46
 214 633 214 633 210 702 c 128,-1,47
 206 771 206 771 203.5 787 c 128,-1,48
 201 803 201 803 188 810.5 c 128,-1,49
 175 818 175 818 136 818 c 2,50,-1
 52 819 l 1,51,-1
 43 827 l 1,52,-1
 43 870 l 1,53,-1
 51 878 l 1,54,55
 242 901 242 901 373 953 c 1,56,-1
 392 940 l 1,57,58
 381 809 381 809 381 607 c 2,59,-1
 381 381 l 2,60,61
 381 359 381 359 385 239.5 c 128,-1,62
 389 120 389 120 393.5 100 c 128,-1,63
 398 80 398 80 407 71 c 128,-1,64
 416 62 416 62 429 59.5 c 128,-1,65
 442 57 442 57 537 51 c 1,66,-1
 546 43 l 1,67,-1
 546 1 l 1,68,-1
 538 -8 l 1,69,70
 410 0 410 0 335 0 c 1,12,-1
EndSplineSet
Position2: "JSTF extension max at priority 3 #11 for dflt in latn subtable" dx=10 dy=0 dh=0 dv=0
Position2: "JSTF shrinkage max at priority 3 #10 for dflt in latn subtable" dx=-10 dy=0 dh=0 dv=0
Position2: "JSTF extension max at priority 3 #7 for dflt in grek subtable" dx=10 dy=0 dh=0 dv=0
Position2: "JSTF shrinkage max at priority 3 #6 for dflt in grek subtable" dx=-10 dy=0 dh=0 dv=0
Position2: "JSTF extension max at priority 3 #3 for dflt in cyrl subtable" dx=10 dy=0 dh=0 dv=0
Position2: "JSTF shrinkage max at priority 3 #2 for dflt in cyrl subtable" dx=-10 dy=0 dh=0 dv=0
Substitution2: "'smcp' Lowercase to Small Capitals in Latin lookup 14 subtable" Iogoneksmall
Substitution2: "'smcp' Lowercase to Small Capitals in Latin lookup 13 subtable" Iogoneksmall
EndChar

StartChar: jcircumflex
Encoding: 309 309 208
Width: 479
GlyphClass: 2
Flags: W
LayerCount: 2
Fore
SplineSet
543 1120 m 1,0,-1
 536 1110 l 1,1,-1
 478 1110 l 1,2,-1
 223 1358 l 1,3,-1
 -32 1110 l 1,4,-1
 -90 1110 l 1,5,-1
 -97 1120 l 1,6,-1
 164 1482 l 1,7,-1
 282 1482 l 1,8,-1
 543 1120 l 1,0,-1
340 940 m 1,9,10
 329 809 329 809 329 573 c 2,11,-1
 329 389 l 1,12,-1
 332 70 l 1,13,14
 332 -270 332 -270 225.5 -422 c 128,-1,15
 119 -574 119 -574 -33 -574 c 0,16,17
 -40 -574 -40 -574 -55 -573 c 1,18,-1
 -64 -516 l 1,19,-1
 -55 -503 l 1,20,21
 -34 -505 -34 -505 -21 -505 c 0,22,23
 57 -505 57 -505 109.5 -418.5 c 128,-1,24
 162 -332 162 -332 162 11 c 2,25,-1
 162 593 l 2,26,27
 162 668 162 668 159 717.5 c 128,-1,28
 156 767 156 767 151.5 785.5 c 128,-1,29
 147 804 147 804 131 810.5 c 128,-1,30
 115 817 115 817 84 818 c 2,31,-1
 0 819 l 1,32,-1
 -9 827 l 1,33,-1
 -9 870 l 1,34,-1
 -1 878 l 1,35,36
 190 901 190 901 321 953 c 1,37,-1
 340 940 l 1,9,10
EndSplineSet
Position2: "JSTF extension max at priority 3 #11 for dflt in latn subtable" dx=10 dy=0 dh=0 dv=0
Position2: "JSTF shrinkage max at priority 3 #10 for dflt in latn subtable" dx=-10 dy=0 dh=0 dv=0
Position2: "JSTF extension max at priority 3 #7 for dflt in grek subtable" dx=10 dy=0 dh=0 dv=0
Position2: "JSTF shrinkage max at priority 3 #6 for dflt in grek subtable" dx=-10 dy=0 dh=0 dv=0
Position2: "JSTF extension max at priority 3 #3 for dflt in cyrl subtable" dx=10 dy=0 dh=0 dv=0
Position2: "JSTF shrinkage max at priority 3 #2 for dflt in cyrl subtable" dx=-10 dy=0 dh=0 dv=0
Substitution2: "'smcp' Lowercase to Small Capitals in Latin lookup 14 subtable" Jcircumflexsmall
Substitution2: "'smcp' Lowercase to Small Capitals in Latin lookup 13 subtable" Jcircumflexsmall
EndChar

StartChar: kgreenlandic
Encoding: 312 312 211
Width: 1073
GlyphClass: 2
Flags: W
LayerCount: 2
Fore
SplineSet
1064 0 m 1,0,-1
 1059 -6 l 1,1,2
 1002 0 1002 0 948 0 c 0,3,4
 888 0 888 0 827 -6 c 1,5,6
 603 260 603 260 394 456 c 1,7,-1
 386 456 l 1,8,-1
 386 378 l 2,9,10
 386 262 386 262 388.5 192 c 128,-1,11
 391 122 391 122 395.5 102.5 c 128,-1,12
 400 83 400 83 412.5 73 c 128,-1,13
 425 63 425 63 437.5 59 c 128,-1,14
 450 55 450 55 518 49 c 1,15,-1
 526 42 l 1,16,-1
 526 0 l 1,17,-1
 518 -8 l 1,18,19
 419 0 419 0 302 0 c 0,20,21
 182 0 182 0 87 -8 c 1,22,-1
 79 0 l 1,23,-1
 79 42 l 1,24,-1
 87 49 l 1,25,26
 151 55 151 55 170 60.5 c 128,-1,27
 189 66 189 66 201.5 82 c 128,-1,28
 214 98 214 98 216.5 159.5 c 128,-1,29
 219 221 219 221 219 378 c 2,30,-1
 219 593 l 1,31,-1
 215 717 l 2,32,33
 213 774 213 774 207.5 790 c 128,-1,34
 202 806 202 806 192 811.5 c 128,-1,35
 182 817 182 817 141 818 c 2,36,-1
 88 819 l 1,37,-1
 79 827 l 1,38,-1
 79 870 l 1,39,-1
 87 878 l 1,40,41
 234 896 234 896 378 953 c 1,42,-1
 397 940 l 1,43,44
 386 778 386 778 386 552 c 2,45,-1
 386 482 l 1,46,-1
 394 482 l 1,47,48
 520 591 520 591 640 713 c 2,49,-1
 769 845 l 2,50,51
 780 856 780 856 780 870 c 0,52,53
 780 882 780 882 762 887 c 1,54,-1
 762 926 l 1,55,-1
 770 934 l 1,56,57
 856 926 856 926 885 926 c 0,58,59
 934 926 934 926 1000 934 c 1,60,-1
 1007 926 l 1,61,-1
 1007 884 l 1,62,-1
 1000 877 l 1,63,64
 946 872 946 872 909.5 854 c 128,-1,65
 873 836 873 836 790 761 c 2,66,-1
 556 549 l 1,67,-1
 976 96 l 2,68,69
 1021 48 1021 48 1059 48 c 1,70,-1
 1064 43 l 1,71,-1
 1064 0 l 1,0,-1
EndSplineSet
Position2: "JSTF extension max at priority 3 #11 for dflt in latn subtable" dx=10 dy=0 dh=0 dv=0
Position2: "JSTF shrinkage max at priority 3 #10 for dflt in latn subtable" dx=-10 dy=0 dh=0 dv=0
Position2: "JSTF extension max at priority 3 #7 for dflt in grek subtable" dx=10 dy=0 dh=0 dv=0
Position2: "JSTF shrinkage max at priority 3 #6 for dflt in grek subtable" dx=-10 dy=0 dh=0 dv=0
Position2: "JSTF extension max at priority 3 #3 for dflt in cyrl subtable" dx=10 dy=0 dh=0 dv=0
Position2: "JSTF shrinkage max at priority 3 #2 for dflt in cyrl subtable" dx=-10 dy=0 dh=0 dv=0
EndChar

StartChar: lslash
Encoding: 322 322 217
Width: 596
GlyphClass: 2
Flags: W
LayerCount: 2
Fore
SplineSet
214 787 m 1,0,-1
 214 914 l 1,1,-1
 210 1126 l 2,2,3
 208 1237 208 1237 204.5 1280 c 128,-1,4
 201 1323 201 1323 194.5 1331 c 128,-1,5
 188 1339 188 1339 173.5 1343 c 128,-1,6
 159 1347 159 1347 52 1347 c 1,7,-1
 44 1356 l 1,8,-1
 44 1398 l 1,9,-1
 52 1407 l 1,10,11
 243 1429 243 1429 374 1481 c 1,12,-1
 392 1469 l 1,13,14
 381 1354 381 1354 381 1008 c 2,15,-1
 381 884 l 1,16,-1
 588 1004 l 1,17,-1
 600 1001 l 1,18,-1
 629 951 l 1,19,-1
 626 940 l 1,20,-1
 381 799 l 1,21,-1
 381 381 l 2,22,23
 381 359 381 359 385.5 239.5 c 128,-1,24
 390 120 390 120 394.5 100 c 128,-1,25
 399 80 399 80 408 71 c 128,-1,26
 417 62 417 62 429.5 59.5 c 128,-1,27
 442 57 442 57 538 51 c 1,28,-1
 546 43 l 1,29,-1
 546 1 l 1,30,-1
 538 -8 l 1,31,32
 414 0 414 0 298 0 c 0,33,34
 190 0 190 0 57 -8 c 1,35,-1
 49 1 l 1,36,-1
 49 43 l 1,37,-1
 58 51 l 1,38,39
 154 57 154 57 167 60 c 128,-1,40
 180 63 180 63 189 72.5 c 128,-1,41
 198 82 198 82 201.5 101.5 c 128,-1,42
 205 121 205 121 209.5 230.5 c 128,-1,43
 214 340 214 340 214 396 c 2,44,-1
 214 703 l 1,45,-1
 18 590 l 1,46,-1
 6 593 l 1,47,-1
 -19 641 l 1,48,-1
 -16 653 l 1,49,-1
 214 787 l 1,0,-1
EndSplineSet
Position2: "JSTF extension max at priority 3 #11 for dflt in latn subtable" dx=10 dy=0 dh=0 dv=0
Position2: "JSTF shrinkage max at priority 3 #10 for dflt in latn subtable" dx=-10 dy=0 dh=0 dv=0
Position2: "JSTF extension max at priority 3 #7 for dflt in grek subtable" dx=10 dy=0 dh=0 dv=0
Position2: "JSTF shrinkage max at priority 3 #6 for dflt in grek subtable" dx=-10 dy=0 dh=0 dv=0
Position2: "JSTF extension max at priority 3 #3 for dflt in cyrl subtable" dx=10 dy=0 dh=0 dv=0
Position2: "JSTF shrinkage max at priority 3 #2 for dflt in cyrl subtable" dx=-10 dy=0 dh=0 dv=0
Substitution2: "'smcp' Lowercase to Small Capitals in Latin lookup 14 subtable" Lslashsmall
Substitution2: "'smcp' Lowercase to Small Capitals in Latin lookup 13 subtable" Lslashsmall
EndChar

